<svg width="152" height="152" viewBox="0 0 152 152" fill="none" xmlns="http://www.w3.org/2000/svg">
<path d="M149.54 75.9368C149.54 117.026 116.533 150.312 75.8464 150.312C35.1593 150.312 2.15283 117.026 2.15283 75.9368C2.15283 34.8477 35.1593 1.56152 75.8464 1.56152C116.533 1.56152 149.54 34.8477 149.54 75.9368Z" fill="white" stroke="#1B3F92" stroke-width="3"/>
<path d="M117.099 95.7614V110.376C117.099 110.376 108.32 106.715 106.658 106.718C104.995 106.722 102.922 108.169 102.922 108.169C102.922 108.169 84.9087 119.328 82.3505 119.783C79.7922 120.238 77.1535 120.151 73.0584 119.348C69.4131 118.633 57.7983 114.104 53.0308 112.233C52.2042 111.908 51.9946 110.843 52.6115 110.199C53.3771 109.399 54.2398 108.852 54.2398 108.852C54.2398 108.852 55.7193 108.111 57.0677 107.983C57.9525 107.899 59.5429 108.066 60.9199 108.359C59.7553 106.787 58.4106 104.875 57.9239 103.916C59.3536 102.848 60.4729 103.03 61.4039 103.48C62.3348 103.93 64.5736 105.836 65.4066 106.762C66.0171 107.441 67.3923 109.57 68.0822 110.659C69.0981 110.954 70.0854 111.225 70.8816 111.427C73.2376 112.025 77.4214 112.213 79.1789 111.326C80.7545 110.53 84.0886 107.055 84.8053 106.462C85.522 105.869 85.3068 105.346 84.7416 105.126C84.1773 104.905 81.8702 105.457 80.2844 105.638C79.0736 105.776 76.8968 105.912 75.1715 105.602C74.0993 105.409 71.6897 104.894 70.5278 103.783C69.3669 102.672 68.689 99.9291 69.3891 98.6728C70.8289 98.8722 71.7765 99.1416 72.7462 99.3326C73.7151 99.5227 76.1625 99.6504 77.7058 99.0167C79.2491 98.383 87.3968 94.288 89.9791 93.7698C92.5614 93.2517 100.956 91.1986 106.039 92.193C111.208 93.206 117.099 95.7614 117.099 95.7614Z" fill="#EDEFFC" stroke="#1B3F92" stroke-width="2" stroke-linejoin="round"/>
<path d="M45.8021 64.0476C50.8854 65.0429 59.2797 62.9889 61.862 62.4707C64.4443 61.9526 72.5912 57.8576 74.1354 57.2239C75.6786 56.5902 78.1261 56.7178 79.0949 56.908C80.0638 57.0981 81.0123 57.3674 82.4521 57.5678C83.1522 56.3115 82.4743 53.5688 81.3134 52.4579C80.1524 51.3471 77.7428 50.8308 76.6696 50.6388C74.9435 50.3284 72.7676 50.4654 71.5568 50.6024C69.971 50.7823 67.6639 51.3359 67.0996 51.115C66.5353 50.8941 66.3192 50.3713 67.0359 49.7786C67.7526 49.1859 71.0867 45.7107 72.6623 44.9148C74.4189 44.0276 78.6036 44.2158 80.9596 44.8132C81.7557 45.0145 82.743 45.2866 83.759 45.5821C84.4489 46.6696 85.8241 48.7991 86.4345 49.4785C87.2667 50.4049 89.5063 52.3107 90.4373 52.7608C91.3683 53.2109 92.4867 53.3927 93.9173 52.3247C93.4306 51.3657 92.0859 49.4543 90.9212 47.8812C92.2983 48.1747 93.8887 48.3415 94.7735 48.2577C96.1219 48.13 97.6014 47.3882 97.6014 47.3882C97.6014 47.3882 98.464 46.8411 99.2297 46.0415C99.8466 45.3975 99.637 44.3333 98.8104 44.008C94.0429 42.1367 82.4281 37.6074 78.7828 36.8926C74.6858 36.0902 72.0472 36.0035 69.4889 36.4583C66.9306 36.9131 48.9173 48.0713 48.9173 48.0713C48.9173 48.0713 46.8439 49.5177 45.1814 49.5223C43.519 49.527 34.7405 45.8644 34.7405 45.8644V60.4792C34.7405 60.4801 40.631 63.0355 45.8021 64.0476Z" fill="#EDEFFC" stroke="#1B3F92" stroke-width="2" stroke-linejoin="round"/>
<path d="M75.9197 66.4648C69.5508 66.4648 64.3687 71.693 64.3687 78.1207C64.3687 84.5473 69.5499 89.7765 75.9197 89.7765C82.2887 89.7765 87.4708 84.5473 87.4708 78.1207C87.4708 71.693 82.2887 66.4648 75.9197 66.4648Z" fill="#EDEFFC"/>
<path d="M75.9197 64.1787C68.2809 64.1787 62.0662 70.4498 62.0662 78.1579C62.0662 85.866 68.2809 92.137 75.9197 92.137C83.5586 92.137 89.7733 85.866 89.7733 78.1579C89.7733 70.4498 83.5586 64.1787 75.9197 64.1787ZM75.9197 89.8137C69.5508 89.8137 64.3686 84.5845 64.3686 78.1579C64.3686 71.7312 69.5498 66.502 75.9197 66.502C82.2887 66.502 87.4708 71.7302 87.4708 78.1579C87.4708 84.5845 82.2887 89.8137 75.9197 89.8137Z" fill="#1B3F92"/>
<path d="M77.0262 76.8426C75.3472 76.2052 74.6563 75.7867 74.6563 75.1288C74.6563 74.5705 75.071 74.0123 76.3548 74.0123C77.0604 74.0123 77.6385 74.1251 78.1059 74.2658C78.7182 74.4503 79.3573 74.0673 79.5162 73.4419C79.5906 73.1445 79.545 72.8294 79.3893 72.5659C79.2336 72.3023 78.9806 72.112 78.6859 72.0366C78.1037 71.8876 77.5073 71.8017 76.9071 71.7803V71.003C76.9071 70.8748 76.882 70.7478 76.8334 70.6293C76.7848 70.5108 76.7135 70.4031 76.6236 70.3124C76.5337 70.2217 76.427 70.1498 76.3096 70.1007C76.1921 70.0516 76.0663 70.0264 75.9392 70.0264C75.8121 70.0264 75.6862 70.0516 75.5688 70.1007C75.4513 70.1498 75.3446 70.2217 75.2548 70.3124C75.1649 70.4031 75.0936 70.5108 75.0449 70.6293C74.9963 70.7478 74.9713 70.8748 74.9713 71.003V71.9191C72.8581 72.3376 71.6326 73.7131 71.6326 75.4671C71.6326 77.3999 73.0743 78.3971 75.1883 79.1147C76.6503 79.6133 77.282 80.0914 77.282 80.849C77.282 81.6468 76.5118 82.0848 75.386 82.0848C74.6586 82.0799 73.937 81.9549 73.2497 81.7148C72.6226 81.4995 71.9447 81.8471 71.7794 82.4948L71.7554 82.588C71.6827 82.8705 71.7191 83.1702 71.8571 83.4266C71.9952 83.683 72.2245 83.8769 72.4989 83.9692C73.2672 84.2172 74.0647 84.3611 74.8706 84.3969V85.314C74.8706 85.8536 75.3038 86.2906 75.8385 86.2906H75.8394C76.3742 86.2906 76.8073 85.8536 76.8073 85.314V84.2571C79.0784 83.8583 80.3234 82.3439 80.3234 80.5694C80.3243 78.7764 79.3758 77.6804 77.0262 76.8426Z" fill="#1B3F92"/>
</svg>
