<svg width="184" height="76" viewBox="0 0 184 76" fill="none" xmlns="http://www.w3.org/2000/svg">
<g clip-path="url(#clip0_767_2334)">
<path fill-rule="evenodd" clip-rule="evenodd" d="M39.4177 40.7282C46.2047 41.7828 46.9877 45.8949 47.5215 49.6432L47.5742 50.0167L47.6352 50.4438L47.9588 52.608C48.5902 56.7418 49.9089 65.321 49.9089 69.7974C49.9089 70.9169 49.8112 71.7756 49.6326 72.2474C49.3348 72.9745 48.4672 73.6722 47.2698 74.2543C44.3718 74.9724 41.3432 75.3603 38.2232 75.3603C37.8931 75.3603 37.5682 75.3443 37.2417 75.3351C35.981 74.9745 35.0326 74.3727 34.5312 73.5492C32.9929 71.0284 32.9223 65.3631 32.8929 58.7703L32.8909 58.3194L32.8786 56.3818C32.8295 49.5386 32.7875 43.6372 35.2569 41.5201C36.2132 40.7056 37.5726 40.4361 39.4177 40.7282ZM24.5485 54.7333C26.0135 54.6499 26.9554 61.9096 27.1442 67.4149C27.2766 71.2476 26.8774 72.8239 26.2402 73.3905C25.5182 73.1476 24.8088 72.885 24.1096 72.5987C23.6434 71.745 23.2862 70.4021 23.0606 68.6426C22.3688 63.1136 22.9694 54.8304 24.5485 54.7333ZM106.247 32.2353L106.759 32.2408C109.47 32.2992 111.869 32.8254 113.957 33.8192C116.175 34.8752 117.881 36.3756 119.074 38.3203C120.268 40.2651 120.865 42.4782 120.865 44.9598C120.865 48.7261 119.56 51.696 116.95 53.8696C114.34 56.0431 110.728 57.1299 106.114 57.1299H99.0857V70.6728H91.0689V32.2353H106.247ZM139.886 32.2353L154.385 70.6728H145.899L143.212 62.753H129.218L126.558 70.6728H118.071L132.491 32.2353H139.886ZM158.475 32.2353L166.477 49.5533L174.531 32.2353H183.25L170.544 56.7339V70.6728H162.436V56.7339L149.73 32.2353H158.475ZM61.6232 66.2212C61.5283 66.727 61.3936 67.1183 61.2284 67.4481C59.9244 68.4649 58.5546 69.3981 57.1203 70.2381C56.6638 70.3139 56.2581 70.2607 56.0595 69.9354C54.1592 66.6899 53.4454 56.5095 55.2847 55.6235C57.6829 54.4974 61.9788 64.4612 61.6232 66.2212ZM38.2233 0.360352C58.6583 0.360352 75.2715 16.7317 75.6845 37.0863L75.692 37.7043V38.0295C75.6553 47.2057 72.312 55.6015 66.8048 62.0997C66.605 61.9981 66.2404 61.6671 65.5801 60.6692C64.8972 59.666 59.0058 50.507 59.0058 40.0082C59.0058 37.9485 61.9456 34.7303 64.5466 31.9053C66.491 29.7792 68.3335 27.7739 69.0111 26.1984C69.8749 24.165 69.2706 22.7447 68.3148 22.2639C67.4497 21.8357 66.1508 22.1479 65.2389 23.7836C63.7432 26.4313 63.263 26.9261 61.0818 28.6974C58.9338 30.4679 55.5197 32.2498 55.5197 29.9424C55.5197 28.6974 57.4215 25.876 58.3602 23.8984C59.3197 21.8992 58.2861 20.4515 56.305 20.4515C52.4152 20.4515 49.8333 25.4579 49.8333 27.1918C49.8333 28.924 50.6657 29.1713 50.6657 31.189C50.6657 33.2224 46.3974 35.8595 42.3776 35.8595C38.4408 35.8595 36.1859 35.0406 35.2862 32.7225L35.2144 32.5258L34.9454 31.7221C33.991 28.9058 33.3073 26.8634 32.1164 24.73C31.4843 23.6018 30.5085 22.8189 29.6649 22.131C28.562 21.2652 27.9895 20.4684 27.8702 19.8736C27.7607 19.2844 27.7011 18.1736 29.5861 15.612C31.468 13.0657 31.7312 11.1415 30.7895 10.1493C30.4484 9.79618 29.8669 9.56962 29.1199 9.56962C27.7983 9.56962 25.9626 10.2775 24.0702 12.2194C21.1291 15.2649 22.7985 18.1555 22.7985 19.4247C22.7985 20.6929 22.2595 21.4102 20.4945 23.1355C18.7162 24.8684 18.1031 26.3542 17.8996 32.3263C17.8216 35.4029 17.2855 37.1738 16.8033 38.7448C16.388 40.1209 16.0051 41.4156 15.9843 43.2854C15.9512 45.357 16.2932 46.692 16.6909 48.2336C17.082 49.657 17.498 51.2891 17.7635 54.0186C18.201 58.378 18.0298 62.0393 17.1953 65.8089L17.0651 66.3753L17.0174 66.6382C16.8592 67.279 16.6717 68.0576 16.4188 68.3498C6.93482 61.545 0.75 50.4304 0.75 37.8675C0.75 17.1544 17.5269 0.360352 38.2233 0.360352ZM135.737 42.5478L131.107 56.6103H140.418L135.737 42.5478ZM106.451 38.7978H99.449V50.9853H106.272C108.292 50.9853 109.833 50.4875 110.893 49.4919C111.954 48.4962 112.485 47.0739 112.485 45.2249C112.485 43.3225 111.95 41.7847 110.881 40.6112C109.811 39.4378 108.335 38.8333 106.451 38.7978ZM128.67 4.93124C131.044 4.93124 132.765 5.51415 134.243 6.94598L132.111 9.0576C131.044 8.01178 129.712 7.86888 128.574 7.86888C126.781 7.86888 125.932 8.86154 125.932 10.0494C125.932 10.5102 126.051 10.9487 126.416 11.2879C126.757 11.6008 127.264 11.8473 127.99 11.9421L130.053 12.2587C131.625 12.475 132.596 12.8892 133.346 13.6179C134.268 14.4663 134.679 15.7013 134.679 17.2547C134.679 20.6024 131.917 22.4953 128.282 22.4953C125.665 22.4953 123.68 21.9374 121.983 20.2132L124.164 18.0303C125.253 19.1227 126.731 19.4882 128.306 19.4882C130.317 19.4882 131.384 18.7103 131.384 17.3282C131.384 16.7461 131.213 16.2592 130.854 15.8971C130.514 15.58 130.173 15.4371 129.301 15.315L127.242 14.9979C125.714 14.7808 124.672 14.3179 123.896 13.5692C123.07 12.7671 122.66 11.6279 122.66 10.1715C122.66 7.091 124.939 4.93124 128.67 4.93124ZM156.444 5.07716V22.3499H153.077V5.07716H156.444ZM95.0772 5.07583V12.5977L101.16 5.07583H105.256L99.5378 11.9427L105.668 22.3486H101.742L97.3069 14.4898L95.0772 17.158V22.3486H91.7109V5.07583H95.0772ZM144.544 5.07785C148.13 5.07785 150.24 7.52866 150.24 10.4618C150.24 13.399 148.13 15.8474 144.544 15.8474H141.222V22.3482H137.857V5.07785H144.544ZM115.097 5.07699L121.397 22.3482H117.884L116.865 19.2931H110.735L109.693 22.3482H106.182L112.457 5.07699H115.097ZM113.861 10.1715L111.681 16.4539H115.968L113.861 10.1715ZM144.374 8.08575H141.222V12.8163H144.374C145.901 12.8163 146.868 11.8705 146.868 10.4618C146.868 9.05684 145.901 8.08575 144.374 8.08575Z" fill="white"/>
</g>
<defs>
<clipPath id="clip0_767_2334">
<rect width="182.5" height="75" fill="white" transform="translate(0.75 0.360352)"/>
</clipPath>
</defs>
</svg>
