<svg width="316" height="132" viewBox="0 0 316 132" fill="none" xmlns="http://www.w3.org/2000/svg">
<path d="M0 0.783203H25.8345C38.4367 0.783203 43.7926 5.95341 43.7926 17.8605C43.7926 29.7677 38.4367 34.9379 25.8345 34.9379H11.4995V50.6052H0V0.783203ZM25.0469 24.2841C30.0877 24.2841 32.2931 22.4041 32.2931 17.8605C32.2931 13.317 30.0877 11.437 25.0469 11.437H11.4995V24.2841H25.0469Z" fill="#FDFFFF"/>
<path d="M51.6689 50.6052V0.783203H78.9212C91.5234 0.783203 96.8793 5.32671 96.8793 15.9805C96.8793 22.0907 95.1465 26.3209 91.2083 28.671C94.6739 30.551 96.2492 33.6845 96.2492 38.3847V50.6052H84.7497V39.0114C84.7497 35.7212 82.7018 34.1545 78.1335 34.1545H63.1684V50.6052H51.6689ZM78.2911 23.5008C83.332 23.5008 85.3798 21.6207 85.3798 17.3905C85.3798 13.1604 83.1744 11.437 78.2911 11.437H63.1684V23.5008H78.2911Z" fill="#FDFFFF"/>
<path d="M155.322 25.6943C155.322 43.7117 147.603 51.3887 129.488 51.3887C111.372 51.3887 103.653 43.7117 103.653 25.6943C103.653 7.67697 111.529 0 129.488 0C147.603 0 155.322 7.67697 155.322 25.6943ZM129.488 40.5783C139.569 40.5783 143.823 36.0348 143.823 25.5377C143.823 15.0406 139.569 10.4971 129.488 10.4971C119.406 10.4971 115.153 15.0406 115.153 25.5377C115.153 36.1914 119.563 40.5783 129.488 40.5783Z" fill="#FDFFFF"/>
<path d="M174.068 34.9376C175.013 38.8544 178.793 40.5778 186.512 40.5778C193.444 40.5778 196.752 39.1678 196.752 36.5043C196.752 33.9976 193.444 32.4309 184.307 30.8641C167.924 27.8873 163.041 24.1272 163.041 15.3535C163.041 4.85643 169.814 0.15625 184.464 0.15625C198.799 0.15625 205.573 4.85643 206.991 16.4502H195.019C194.231 12.5334 190.766 10.81 183.677 10.81C177.376 10.81 174.383 12.2201 174.383 14.7268C174.383 17.2336 177.061 18.487 186.197 20.2104C202.895 23.5005 208.094 26.9473 208.094 35.8777C208.094 46.3747 200.847 51.3883 185.567 51.3883C170.76 51.3883 163.828 46.5314 162.411 35.0943H174.068V34.9376Z" fill="#FDFFFF"/>
<path d="M241.647 11.437V50.6052H230.148V11.437H211.559V0.783203H260.393V11.437H241.647Z" fill="#FDFFFF"/>
<path d="M316 25.6943C316 43.7117 308.281 51.3887 290.166 51.3887C272.05 51.3887 264.331 43.7117 264.331 25.6943C264.331 7.67697 272.05 0 290.166 0C308.124 0 316 7.67697 316 25.6943ZM290.166 40.5783C300.247 40.5783 304.501 36.0348 304.501 25.5377C304.501 15.0406 300.247 10.4971 290.166 10.4971C280.084 10.4971 275.831 15.0406 275.831 25.5377C275.831 36.1914 280.084 40.5783 290.166 40.5783Z" fill="#FDFFFF"/>
<path d="M0 79.2764H25.8345C38.4367 79.2764 43.7926 84.4466 43.7926 96.3537C43.7926 108.261 38.4367 113.431 25.8345 113.431H11.4995V129.098H0V79.2764ZM25.0469 102.777C30.0877 102.777 32.2931 100.897 32.2931 96.3537C32.2931 91.8102 30.0877 89.9301 25.0469 89.9301H11.4995V102.777H25.0469Z" fill="#FDFFFF"/>
<path d="M43.4775 129.099L65.6889 79.1201H78.4486L100.66 129.099H88.3728L84.7497 120.795H59.2303L55.6071 129.099H43.4775ZM63.9561 110.141H80.3389L72.1475 91.3406L63.9561 110.141Z" fill="#FDFFFF"/>
<path d="M93.5713 79.2764H107.276L121.296 99.9572L135.159 79.2764H148.706L126.967 110.298V129.098H115.468V110.298L93.5713 79.2764Z" fill="#FDFFFF"/>
<path d="M314.897 59.8486H0V69.8757H314.897V59.8486Z" fill="#FDFFFF"/>
</svg>
