<svg width="102" height="102" viewBox="0 0 102 102" fill="none" xmlns="http://www.w3.org/2000/svg">
<path d="M99.5991 51.0327C99.5991 78.1536 77.8144 100.116 50.9701 100.116C24.1258 100.116 2.34106 78.1536 2.34106 51.0327C2.34106 23.9119 24.1258 1.94922 50.9701 1.94922C77.8144 1.94922 99.5991 23.9119 99.5991 51.0327Z" fill="white" stroke="#1B3F92" stroke-width="3"/>
<path d="M44.3729 79.114H61.3285L63.1882 58.7867C63.2471 58.1438 63.091 57.4995 62.7448 56.9571C62.3986 56.4147 61.8824 56.0057 61.279 55.7956C55.8175 53.8923 49.8838 53.8923 44.4223 55.7956C43.8189 56.0057 43.3028 56.4147 42.9566 56.9571C42.6104 57.4995 42.4542 58.1438 42.5131 58.7867L44.3729 79.114Z" fill="#1B3F92"/>
<path d="M44.5293 80.4404C44.8879 82.4089 45.9166 84.1881 47.4368 85.4688C48.957 86.7496 50.8726 87.451 52.8508 87.4513C54.829 87.4512 56.7447 86.7499 58.2649 85.4691C59.7851 84.1883 60.8138 82.409 61.1722 80.4404H44.5293Z" fill="#1B3F92"/>
<path d="M52.8504 73.4245C52.0349 73.4234 51.2531 73.0951 50.6765 72.5116C50.0998 71.9282 49.7754 71.1371 49.7743 70.3119V69.8272H49.2953C48.4795 69.8272 47.6971 69.4993 47.1202 68.9156C46.5433 68.3319 46.2192 67.5402 46.2192 66.7147C46.2192 65.8892 46.5433 65.0975 47.1202 64.5138C47.6971 63.9301 48.4795 63.6021 49.2953 63.6021H49.7743V63.1174C49.7743 62.2919 50.0984 61.5002 50.6753 60.9165C51.2522 60.3328 52.0346 60.0049 52.8504 60.0049C53.6662 60.0049 54.4486 60.3328 55.0255 60.9165C55.6024 61.5002 55.9264 62.2919 55.9264 63.1174V63.6021H56.4055C57.2213 63.6021 58.0037 63.9301 58.5806 64.5138C59.1575 65.0975 59.4815 65.8892 59.4815 66.7147C59.4815 67.5402 59.1575 68.3319 58.5806 68.9156C58.0037 69.4993 57.2213 69.8272 56.4055 69.8272H55.9264V70.3119C55.9256 71.1372 55.6013 71.9284 55.0246 72.5119C54.4479 73.0955 53.666 73.4237 52.8504 73.4245Z" fill="#1B3F92"/>
<path d="M56.4058 64.4186H55.1199V63.1174C55.1199 62.5084 54.8808 61.9244 54.4552 61.4938C54.0297 61.0632 53.4525 60.8213 52.8507 60.8213C52.2488 60.8213 51.6716 61.0632 51.2461 61.4938C50.8205 61.9244 50.5814 62.5084 50.5814 63.1174V64.4186H49.2966C48.6947 64.4186 48.1175 64.6605 47.692 65.0911C47.2664 65.5217 47.0273 66.1057 47.0273 66.7147C47.0273 67.3236 47.2664 67.9077 47.692 68.3383C48.1175 68.7689 48.6947 69.0108 49.2966 69.0108H50.5814V70.3119C50.5814 70.9209 50.8205 71.5049 51.2461 71.9355C51.6716 72.3662 52.2488 72.6081 52.8507 72.6081C53.4525 72.6081 54.0297 72.3662 54.4552 71.9355C54.8808 71.5049 55.1199 70.9209 55.1199 70.3119V69.0108H56.4058C57.0076 69.0108 57.5848 68.7689 58.0103 68.3383C58.4359 67.9077 58.675 67.3236 58.675 66.7147C58.675 66.1057 58.4359 65.5217 58.0103 65.0911C57.5848 64.6605 57.0076 64.4186 56.4058 64.4186Z" fill="#EDEFFC"/>
<path d="M49.2089 67.7866C49.7937 67.7866 50.2678 67.3069 50.2678 66.7151C50.2678 66.1233 49.7937 65.6436 49.2089 65.6436C48.624 65.6436 48.1499 66.1233 48.1499 66.7151C48.1499 67.3069 48.624 67.7866 49.2089 67.7866Z" fill="#1B3F92"/>
<path d="M56.4945 67.7866C57.0794 67.7866 57.5535 67.3069 57.5535 66.7151C57.5535 66.1233 57.0794 65.6436 56.4945 65.6436C55.9097 65.6436 55.4355 66.1233 55.4355 66.7151C55.4355 67.3069 55.9097 67.7866 56.4945 67.7866Z" fill="#1B3F92"/>
<path d="M52.8514 64.1001C53.4363 64.1001 53.9104 63.6203 53.9104 63.0286C53.9104 62.4368 53.4363 61.957 52.8514 61.957C52.2666 61.957 51.7925 62.4368 51.7925 63.0286C51.7925 63.6203 52.2666 64.1001 52.8514 64.1001Z" fill="#1B3F92"/>
<path d="M52.8514 71.4721C53.4363 71.4721 53.9104 70.9924 53.9104 70.4006C53.9104 69.8088 53.4363 69.3291 52.8514 69.3291C52.2666 69.3291 51.7925 69.8088 51.7925 70.4006C51.7925 70.9924 52.2666 71.4721 52.8514 71.4721Z" fill="#1B3F92"/>
<path d="M46.5977 61.9697C46.119 61.9697 45.651 61.826 45.253 61.5569C44.8549 61.2878 44.5447 60.9053 44.3615 60.4578C44.1783 60.0102 44.1304 59.5178 44.2238 59.0427C44.3172 58.5676 44.5477 58.1312 44.8862 57.7886C45.2247 57.4461 45.656 57.2129 46.1255 57.1184C46.5951 57.0238 47.0817 57.0723 47.524 57.2577C47.9663 57.4431 48.3443 57.757 48.6103 58.1598C48.8763 58.5626 49.0182 59.0361 49.0182 59.5205C49.0182 60.1701 48.7632 60.793 48.3093 61.2523C47.8554 61.7117 47.2397 61.9697 46.5977 61.9697Z" fill="#1B3F92"/>
<path d="M46.5985 61.1533C47.4897 61.1533 48.2122 60.4223 48.2122 59.5205C48.2122 58.6187 47.4897 57.8877 46.5985 57.8877C45.7073 57.8877 44.9849 58.6187 44.9849 59.5205C44.9849 60.4223 45.7073 61.1533 46.5985 61.1533Z" fill="#EDEFFC"/>
<path d="M59.1036 61.9697C58.6249 61.9697 58.1569 61.826 57.7588 61.5569C57.3608 61.2878 57.0506 60.9053 56.8674 60.4578C56.6842 60.0102 56.6362 59.5178 56.7296 59.0427C56.823 58.5676 57.0535 58.1312 57.392 57.7886C57.7306 57.4461 58.1619 57.2129 58.6314 57.1184C59.1009 57.0238 59.5876 57.0723 60.0299 57.2577C60.4722 57.4431 60.8502 57.757 61.1162 58.1598C61.3821 58.5626 61.5241 59.0361 61.5241 59.5205C61.5241 60.1701 61.2691 60.793 60.8151 61.2523C60.3612 61.7117 59.7456 61.9697 59.1036 61.9697Z" fill="#1B3F92"/>
<path d="M59.1044 61.1533C59.9956 61.1533 60.7181 60.4223 60.7181 59.5205C60.7181 58.6187 59.9956 57.8877 59.1044 57.8877C58.2132 57.8877 57.4907 58.6187 57.4907 59.5205C57.4907 60.4223 58.2132 61.1533 59.1044 61.1533Z" fill="#EDEFFC"/>
<path d="M59.047 50.3672C58.9874 50.3673 58.9284 50.3555 58.8733 50.3323C58.8183 50.3092 58.7683 50.2753 58.7263 50.2325C57.168 48.6559 55.0547 47.7702 52.8511 47.7702C50.6474 47.7702 48.5341 48.6559 46.9758 50.2325C46.8906 50.3185 46.7751 50.3668 46.6547 50.3667C46.5343 50.3667 46.4189 50.3182 46.3339 50.232C46.2488 50.1458 46.2011 50.0289 46.2012 49.9071C46.2013 49.7853 46.2492 49.6685 46.3344 49.5824C48.0628 47.8339 50.4069 46.8516 52.8511 46.8516C55.2952 46.8516 57.6393 47.8339 59.3677 49.5824C59.431 49.6468 59.474 49.7286 59.4914 49.8177C59.5088 49.9067 59.4998 49.9989 59.4655 50.0828C59.4313 50.1667 59.3732 50.2384 59.2988 50.289C59.2243 50.3396 59.1367 50.3668 59.047 50.3672Z" fill="#1B3F92"/>
<path d="M57.5746 51.856C57.4545 51.856 57.3392 51.808 57.2539 51.7223C56.6758 51.1371 55.9895 50.6728 55.234 50.356C54.4786 50.0393 53.6689 49.8762 52.8511 49.8762C52.0334 49.8762 51.2237 50.0393 50.4682 50.356C49.7128 50.6728 49.0264 51.1371 48.4483 51.7223C48.4062 51.765 48.3561 51.7988 48.301 51.8219C48.2459 51.845 48.1868 51.8569 48.1271 51.8569C48.0675 51.8569 48.0084 51.845 47.9533 51.8219C47.8982 51.7988 47.8481 51.765 47.8059 51.7223C47.7637 51.6796 47.7303 51.6289 47.7074 51.5732C47.6846 51.5174 47.6729 51.4576 47.6729 51.3973C47.6729 51.3369 47.6846 51.2771 47.7074 51.2214C47.7303 51.1656 47.7637 51.1149 47.8059 51.0722C49.1437 49.7197 50.9575 48.96 52.8486 48.96C54.7397 48.96 56.5535 49.7197 57.8913 51.0722C57.9547 51.1365 57.9979 51.2183 58.0153 51.3073C58.0328 51.3963 58.0238 51.4886 57.9895 51.5725C57.9552 51.6563 57.8971 51.728 57.8225 51.7785C57.748 51.8289 57.6603 51.8559 57.5706 51.856H57.5746Z" fill="#F76701"/>
<path d="M56.102 53.3465C56.0424 53.3465 55.9834 53.3346 55.9283 53.3115C55.8733 53.2884 55.8233 53.2545 55.7813 53.2117C55.0034 52.4266 53.9496 51.9857 52.851 51.9857C51.7523 51.9857 50.6985 52.4266 49.9206 53.2117C49.8356 53.298 49.7202 53.3464 49.5998 53.3465C49.4794 53.3466 49.3639 53.2983 49.2787 53.2123C49.1935 53.1262 49.1456 53.0094 49.1455 52.8876C49.1454 52.7658 49.1931 52.6489 49.2782 52.5627C49.7473 52.088 50.3042 51.7115 50.9172 51.4546C51.5301 51.1977 52.187 51.0654 52.8505 51.0654C53.5139 51.0654 54.1708 51.1977 54.7838 51.4546C55.3967 51.7115 55.9536 52.088 56.4227 52.5627C56.4861 52.6269 56.5293 52.7087 56.5467 52.7978C56.5642 52.8868 56.5552 52.979 56.5209 53.0629C56.4866 53.1468 56.4285 53.2185 56.3539 53.2689C56.2794 53.3194 56.1917 53.3464 56.102 53.3465Z" fill="#FFC014"/>
<path d="M37.9968 30.6523H25.6533C24.4084 30.6523 23.3992 31.6735 23.3992 32.9332V49.3346C23.3992 50.5943 24.4084 51.6155 25.6533 51.6155H37.9968C39.2417 51.6155 40.2509 50.5943 40.2509 49.3346V32.9332C40.2509 31.6735 39.2417 30.6523 37.9968 30.6523Z" fill="#EDEFFC"/>
<path d="M33.1196 31.7158H26.3099C25.2489 31.7158 24.3887 32.5862 24.3887 33.6599V45.2905C24.3887 46.3642 25.2489 47.2346 26.3099 47.2346H33.1196C34.1807 47.2346 35.0409 46.3642 35.0409 45.2905V33.6599C35.0409 32.5862 34.1807 31.7158 33.1196 31.7158Z" fill="#1B3F92"/>
<path d="M37.9818 31.7158H37.0923C36.4629 31.7158 35.9526 32.2321 35.9526 32.869V48.897C35.9526 49.5338 36.4629 50.0501 37.0923 50.0501H37.9818C38.6112 50.0501 39.1215 49.5338 39.1215 48.897V32.869C39.1215 32.2321 38.6112 31.7158 37.9818 31.7158Z" fill="#1B3F92"/>
<g opacity="0.85">
<path opacity="0.85" d="M57.6552 20.4141H48.0469C47.0777 20.4141 46.292 21.2091 46.292 22.1897V34.9572C46.292 35.9379 47.0777 36.7329 48.0469 36.7329H57.6552C58.6244 36.7329 59.4101 35.9379 59.4101 34.9572V22.1897C59.4101 21.2091 58.6244 20.4141 57.6552 20.4141Z" fill="#EDEFFC"/>
<path opacity="0.85" d="M53.8591 21.2422H48.5582C47.7321 21.2422 47.0625 21.9198 47.0625 22.7556V31.8095C47.0625 32.6453 47.7321 33.3229 48.5582 33.3229H53.8591C54.6851 33.3229 55.3547 32.6453 55.3547 31.8095V22.7556C55.3547 21.9198 54.6851 21.2422 53.8591 21.2422Z" fill="#1B3F92"/>
<path opacity="0.85" d="M57.6451 21.2422H56.9512C56.4616 21.2422 56.0647 21.6438 56.0647 22.1392V34.6179C56.0647 35.1133 56.4616 35.5149 56.9512 35.5149H57.6451C58.1347 35.5149 58.5316 35.1133 58.5316 34.6179V22.1392C58.5316 21.6438 58.1347 21.2422 57.6451 21.2422Z" fill="#1B3F92"/>
</g>
<g opacity="0.7">
<path opacity="0.7" d="M77.2935 14.6123H70.4617C69.7727 14.6123 69.2141 15.1775 69.2141 15.8747V24.952C69.2141 25.6492 69.7727 26.2144 70.4617 26.2144H77.2935C77.9825 26.2144 78.5411 25.6492 78.5411 24.952V15.8747C78.5411 15.1775 77.9825 14.6123 77.2935 14.6123Z" fill="#EDEFFC"/>
<path opacity="0.7" d="M74.5946 15.2012H70.8247C70.2376 15.2012 69.7617 15.6827 69.7617 16.2768V22.7141C69.7617 23.3081 70.2376 23.7897 70.8247 23.7897H74.5946C75.1817 23.7897 75.6576 23.3081 75.6576 22.7141V16.2768C75.6576 15.6827 75.1817 15.2012 74.5946 15.2012Z" fill="#1B3F92"/>
<path opacity="0.7" d="M77.2854 15.2012H76.7922C76.4441 15.2012 76.1619 15.4867 76.1619 15.839V24.7112C76.1619 25.0635 76.4441 25.349 76.7922 25.349H77.2854C77.6335 25.349 77.9157 25.0635 77.9157 24.7112V15.839C77.9157 15.4867 77.6335 15.2012 77.2854 15.2012Z" fill="#1B3F92"/>
</g>
</svg>
