<svg width="150" height="153" viewBox="0 0 150 153" fill="none" xmlns="http://www.w3.org/2000/svg">
<path d="M148.5 76.5999C148.5 117.581 115.58 150.78 75 150.78C34.4198 150.78 1.5 117.581 1.5 76.5999C1.5 35.6186 34.4198 2.41992 75 2.41992C115.58 2.41992 148.5 35.6186 148.5 76.5999Z" fill="white" stroke="#1B3F92" stroke-width="3"/>
<g opacity="0.85">
<path opacity="0.85" d="M85.0019 30.7891H70.6265C69.1765 30.7891 68.001 31.9785 68.001 33.4457V52.5476C68.001 54.0149 69.1765 55.2043 70.6265 55.2043H85.0019C86.452 55.2043 87.6274 54.0149 87.6274 52.5476V33.4457C87.6274 31.9785 86.452 30.7891 85.0019 30.7891Z" fill="#FFC014"/>
<path opacity="0.85" d="M79.3224 32.0273H71.3915C70.1557 32.0273 69.1538 33.0411 69.1538 34.2916V47.8375C69.1538 49.088 70.1557 50.1017 71.3915 50.1017H79.3224C80.5583 50.1017 81.5601 49.088 81.5601 47.8375V34.2916C81.5601 33.0411 80.5583 32.0273 79.3224 32.0273Z" fill="#1B3F92"/>
<path opacity="0.85" d="M84.9865 32.0273H83.9484C83.2159 32.0273 82.6221 32.6282 82.6221 33.3694V52.0392C82.6221 52.7805 83.2159 53.3813 83.9484 53.3813H84.9865C85.719 53.3813 86.3129 52.7805 86.3129 52.0392V33.3694C86.3129 32.6282 85.719 32.0273 84.9865 32.0273Z" fill="#1B3F92"/>
</g>
<path d="M65.1293 118.613H90.4972L93.2796 88.2006C93.3677 87.2387 93.1341 86.2747 92.6161 85.4633C92.0982 84.6518 91.3259 84.0398 90.4232 83.7255C82.2521 80.878 73.3744 80.878 65.2032 83.7255C64.3005 84.0398 63.5282 84.6518 63.0103 85.4633C62.4923 86.2747 62.2587 87.2387 62.3468 88.2006L65.1293 118.613Z" fill="#1B3F92"/>
<path d="M65.3633 120.598C65.8998 123.543 67.4389 126.205 69.7133 128.121C71.9878 130.037 74.8537 131.086 77.8134 131.087C80.773 131.087 83.6392 130.037 85.9137 128.121C88.1881 126.205 89.7272 123.543 90.2634 120.598H65.3633Z" fill="#1B3F92"/>
<path d="M77.8137 110.101C76.5936 110.099 75.424 109.608 74.5612 108.735C73.6985 107.862 73.2131 106.679 73.2115 105.444V104.719H72.4948C71.2742 104.719 70.1036 104.228 69.2405 103.355C68.3775 102.482 67.8926 101.297 67.8926 100.062C67.8926 98.8272 68.3775 97.6427 69.2405 96.7694C70.1036 95.8961 71.2742 95.4054 72.4948 95.4054H73.2115V94.6802C73.2115 93.4452 73.6964 92.2607 74.5595 91.3874C75.4225 90.5141 76.5931 90.0234 77.8137 90.0234C79.0343 90.0234 80.2049 90.5141 81.068 91.3874C81.931 92.2607 82.4159 93.4452 82.4159 94.6802V95.4054H83.1326C84.3532 95.4054 85.5238 95.8961 86.3869 96.7694C87.25 97.6427 87.7348 98.8272 87.7348 100.062C87.7348 101.297 87.25 102.482 86.3869 103.355C85.5238 104.228 84.3532 104.719 83.1326 104.719H82.4159V105.444C82.4147 106.679 81.9294 107.863 81.0666 108.736C80.2038 109.609 79.0339 110.1 77.8137 110.101Z" fill="#1B3F92"/>
<path d="M83.132 96.6261H81.2081V94.6795C81.2081 93.7684 80.8504 92.8946 80.2137 92.2503C79.577 91.6061 78.7135 91.2441 77.8131 91.2441C76.9126 91.2441 76.0491 91.6061 75.4124 92.2503C74.7757 92.8946 74.418 93.7684 74.418 94.6795V96.6261H72.4956C71.5952 96.6261 70.7317 96.9881 70.095 97.6323C69.4583 98.2766 69.1006 99.1504 69.1006 100.061C69.1006 100.973 69.4583 101.846 70.095 102.491C70.7317 103.135 71.5952 103.497 72.4956 103.497H74.418V105.443C74.418 106.355 74.7757 107.228 75.4124 107.873C76.0491 108.517 76.9126 108.879 77.8131 108.879C78.7135 108.879 79.577 108.517 80.2137 107.873C80.8504 107.228 81.2081 106.355 81.2081 105.443V103.497H83.132C84.0324 103.497 84.896 103.135 85.5327 102.491C86.1694 101.846 86.5271 100.973 86.5271 100.061C86.5271 99.1504 86.1694 98.2766 85.5327 97.6323C84.896 96.9881 84.0324 96.6261 83.132 96.6261Z" fill="#EDEFFC"/>
<path d="M72.3646 101.665C73.2397 101.665 73.949 100.948 73.949 100.062C73.949 99.1767 73.2397 98.459 72.3646 98.459C71.4896 98.459 70.7803 99.1767 70.7803 100.062C70.7803 100.948 71.4896 101.665 72.3646 101.665Z" fill="#1B3F92"/>
<path d="M83.2655 101.665C84.1405 101.665 84.8499 100.948 84.8499 100.062C84.8499 99.1767 84.1405 98.459 83.2655 98.459C82.3905 98.459 81.6812 99.1767 81.6812 100.062C81.6812 100.948 82.3905 101.665 83.2655 101.665Z" fill="#1B3F92"/>
<path d="M77.8153 96.1497C78.6903 96.1497 79.3997 95.4319 79.3997 94.5465C79.3997 93.6611 78.6903 92.9434 77.8153 92.9434C76.9403 92.9434 76.231 93.6611 76.231 94.5465C76.231 95.4319 76.9403 96.1497 77.8153 96.1497Z" fill="#1B3F92"/>
<path d="M77.8153 107.181C78.6903 107.181 79.3997 106.463 79.3997 105.578C79.3997 104.692 78.6903 103.975 77.8153 103.975C76.9403 103.975 76.231 104.692 76.231 105.578C76.231 106.463 76.9403 107.181 77.8153 107.181Z" fill="#1B3F92"/>
<path d="M68.4578 92.9635C67.7416 92.9635 67.0414 92.7485 66.4459 92.3459C65.8503 91.9433 65.3862 91.371 65.1121 90.7014C64.838 90.0318 64.7663 89.295 64.906 88.5842C65.0457 87.8734 65.3907 87.2205 65.8971 86.708C66.4036 86.1956 67.0488 85.8466 67.7513 85.7052C68.4538 85.5638 69.182 85.6364 69.8437 85.9137C70.5054 86.191 71.071 86.6607 71.4689 87.2633C71.8668 87.8659 72.0792 88.5744 72.0792 89.2991C72.0792 90.271 71.6977 91.203 71.0185 91.8902C70.3394 92.5774 69.4183 92.9635 68.4578 92.9635Z" fill="#1B3F92"/>
<path d="M68.4597 91.7413C69.793 91.7413 70.8739 90.6475 70.8739 89.2984C70.8739 87.9492 69.793 86.8555 68.4597 86.8555C67.1263 86.8555 66.0454 87.9492 66.0454 89.2984C66.0454 90.6475 67.1263 91.7413 68.4597 91.7413Z" fill="#EDEFFC"/>
<path d="M87.1683 92.9635C86.452 92.9635 85.7519 92.7485 85.1563 92.3459C84.5608 91.9433 84.0966 91.371 83.8225 90.7014C83.5484 90.0318 83.4767 89.295 83.6165 88.5842C83.7562 87.8734 84.1011 87.2205 84.6076 86.708C85.114 86.1956 85.7593 85.8466 86.4618 85.7052C87.1642 85.5638 87.8924 85.6364 88.5541 85.9137C89.2158 86.191 89.7814 86.6607 90.1793 87.2633C90.5773 87.8659 90.7897 88.5744 90.7897 89.2991C90.7897 90.271 90.4081 91.203 89.729 91.8902C89.0498 92.5774 88.1287 92.9635 87.1683 92.9635Z" fill="#1B3F92"/>
<path d="M87.1706 91.7413C88.504 91.7413 89.5849 90.6475 89.5849 89.2984C89.5849 87.9492 88.504 86.8555 87.1706 86.8555C85.8373 86.8555 84.7563 87.9492 84.7563 89.2984C84.7563 90.6475 85.8373 91.7413 87.1706 91.7413Z" fill="#EDEFFC"/>
<path d="M87.0844 75.6036C86.9952 75.6038 86.9069 75.5861 86.8246 75.5515C86.7422 75.5169 86.6674 75.4661 86.6046 75.4021C84.2732 73.0433 81.1113 71.7182 77.8144 71.7182C74.5175 71.7182 71.3556 73.0433 69.0242 75.4021C68.8967 75.5308 68.7239 75.6031 68.5438 75.603C68.3637 75.6028 68.191 75.5303 68.0638 75.4013C67.9365 75.2723 67.8651 75.0975 67.8652 74.9152C67.8654 74.733 67.9371 74.5583 68.0645 74.4295C70.6506 71.8134 74.1576 70.3438 77.8144 70.3438C81.4712 70.3438 84.9782 71.8134 87.5642 74.4295C87.6589 74.5258 87.7232 74.6482 87.7493 74.7814C87.7753 74.9146 87.7618 75.0527 87.7106 75.1782C87.6593 75.3036 87.5725 75.411 87.4611 75.4867C87.3497 75.5624 87.2186 75.6031 87.0844 75.6036Z" fill="#1B3F92"/>
<path d="M84.8818 77.8309C84.702 77.831 84.5295 77.7591 84.402 77.6309C83.5371 76.7553 82.5102 76.0607 81.38 75.5868C80.2497 75.1129 79.0383 74.8689 77.8148 74.8689C76.5914 74.8689 75.3799 75.1129 74.2496 75.5868C73.1194 76.0607 72.0925 76.7553 71.2276 77.6309C71.1645 77.6948 71.0896 77.7454 71.0071 77.78C70.9247 77.8145 70.8363 77.8323 70.747 77.8323C70.6578 77.8323 70.5694 77.8145 70.4869 77.78C70.4045 77.7454 70.3296 77.6948 70.2665 77.6309C70.2033 77.567 70.1533 77.4912 70.1191 77.4078C70.085 77.3243 70.0674 77.2349 70.0674 77.1446C70.0674 77.0543 70.085 76.9649 70.1191 76.8814C70.1533 76.798 70.2033 76.7222 70.2665 76.6583C72.268 74.6347 74.9816 73.498 77.811 73.498C80.6404 73.498 83.3541 74.6347 85.3556 76.6583C85.4505 76.7544 85.515 76.8768 85.5412 77.01C85.5673 77.1432 85.5539 77.2812 85.5025 77.4067C85.4512 77.5322 85.3643 77.6394 85.2527 77.7149C85.1411 77.7904 85.01 77.8308 84.8758 77.8309H84.8818Z" fill="#FFC014"/>
<path d="M82.6784 80.0612C82.5892 80.0613 82.5009 80.0435 82.4186 80.0089C82.3362 79.9743 82.2614 79.9236 82.1985 79.8596C81.0348 78.685 79.4581 78.0253 77.8144 78.0253C76.1706 78.0253 74.594 78.685 73.4302 79.8596C73.303 79.9886 73.1303 80.0611 72.9502 80.0613C72.77 80.0614 72.5973 79.9892 72.4698 79.8604C72.3423 79.7316 72.2706 79.5569 72.2705 79.3746C72.2704 79.1924 72.3418 79.0176 72.469 78.8886C73.1709 78.1784 74.0041 77.615 74.9211 77.2306C75.8382 76.8463 76.821 76.6484 77.8136 76.6484C78.8062 76.6484 79.7891 76.8463 80.7061 77.2306C81.6231 77.615 82.4564 78.1784 83.1582 78.8886C83.253 78.9847 83.3176 79.107 83.3438 79.2402C83.3699 79.3734 83.3565 79.5115 83.3051 79.637C83.2538 79.7624 83.1668 79.8697 83.0553 79.9452C82.9437 80.0207 82.8126 80.0611 82.6784 80.0612Z" fill="#FFC014"/>
<path d="M55.5901 46.1074H37.1224C35.2599 46.1074 33.75 47.6352 33.75 49.5198V74.0588C33.75 75.9434 35.2599 77.4712 37.1224 77.4712H55.5901C57.4526 77.4712 58.9625 75.9434 58.9625 74.0588V49.5198C58.9625 47.6352 57.4526 46.1074 55.5901 46.1074Z" fill="#FFC014"/>
<path d="M48.2927 47.6992H38.1045C36.5169 47.6992 35.23 49.0014 35.23 50.6078V68.0089C35.23 69.6152 36.5169 70.9174 38.1045 70.9174H48.2927C49.8802 70.9174 51.1672 69.6152 51.1672 68.0089V50.6078C51.1672 49.0014 49.8802 47.6992 48.2927 47.6992Z" fill="#1B3F92"/>
<path d="M55.5672 47.6992H54.2363C53.2946 47.6992 52.5312 48.4717 52.5312 49.4245V73.4046C52.5312 74.3575 53.2946 75.1299 54.2363 75.1299H55.5672C56.5089 75.1299 57.2723 74.3575 57.2723 73.4046V49.4245C57.2723 48.4717 56.5089 47.6992 55.5672 47.6992Z" fill="#1B3F92"/>
<g opacity="0.7">
<path opacity="0.7" d="M114.384 22.1094H104.162C103.132 22.1094 102.296 22.955 102.296 23.998V37.579C102.296 38.6221 103.132 39.4677 104.162 39.4677H114.384C115.415 39.4677 116.25 38.6221 116.25 37.579V23.998C116.25 22.955 115.415 22.1094 114.384 22.1094Z" fill="#FFC014"/>
<path opacity="0.7" d="M110.346 22.9902H104.706C103.828 22.9902 103.116 23.7107 103.116 24.5995V34.2306C103.116 35.1194 103.828 35.8399 104.706 35.8399H110.346C111.225 35.8399 111.937 35.1194 111.937 34.2306V24.5995C111.937 23.7107 111.225 22.9902 110.346 22.9902Z" fill="#1B3F92"/>
<path opacity="0.7" d="M114.372 22.9902H113.634C113.113 22.9902 112.691 23.4175 112.691 23.9445V37.2186C112.691 37.7456 113.113 38.1728 113.634 38.1728H114.372C114.893 38.1728 115.315 37.7456 115.315 37.2186V23.9445C115.315 23.4175 114.893 22.9902 114.372 22.9902Z" fill="#1B3F92"/>
</g>
</svg>
