<svg width="387" height="2258" viewBox="0 0 387 2258" fill="none" xmlns="http://www.w3.org/2000/svg">
<path d="M33 2258V2133.5C33 2122.45 41.9543 2113.5 53 2113.5H144H362C373.046 2113.5 382 2104.55 382 2093.5V2036V1562C382 1550.95 373.046 1542 362 1542H152.5C141.454 1542 132.5 1533.05 132.5 1522V1477.5V1431.5V1386V1324V1281V1251.74C132.5 1237.97 140.794 1225.57 153.511 1220.31L238.489 1185.19C251.206 1179.93 259.5 1167.52 259.5 1153.76V923.5C259.5 912.454 250.546 903.5 239.5 903.5H128.461H22C10.9543 903.5 2.00001 894.546 2.00001 883.5L2 612.25C2 609.903 3.90279 608 6.25 608V608C8.59721 608 10.5 606.097 10.5 603.75V532.25C10.5 529.903 8.59721 528 6.25 528V528C3.90279 528 2 526.097 2 523.75L2.00001 112.46C2.00001 101.414 10.9543 92.46 22 92.46H353C364.046 92.46 373 83.5057 373 72.46V0" stroke="url(#paint0_linear_608_515)" stroke-width="2.43337"/>
<path d="M2.90845 543.179C3.20445 543.179 3.48845 543.179 3.76045 543.179C4.03245 543.179 4.33245 543.179 4.66045 543.179H6.85645C7.19245 543.179 7.51911 543.179 7.83645 543.179C8.15378 543.179 8.46311 543.179 8.76445 543.179L8.84445 543.839C8.52178 543.839 8.19778 543.839 7.87245 543.839C7.54978 543.839 7.21111 543.839 6.85645 543.839H4.66045C4.33245 543.839 4.03245 543.839 3.76045 543.839C3.48845 543.839 3.20445 543.839 2.90845 543.839V543.179ZM2.82045 547.002C2.82045 546.527 2.91111 546.137 3.09245 545.83C3.27378 545.523 3.52178 545.295 3.83645 545.146C4.15111 544.997 4.51111 544.922 4.91645 544.922C5.31645 544.922 5.67111 544.995 5.98045 545.142C6.28978 545.289 6.53111 545.499 6.70445 545.774C6.88045 546.049 6.96845 546.377 6.96845 546.758C6.96845 547.094 6.90311 547.382 6.77245 547.622C6.64178 547.865 6.44978 548.051 6.19645 548.182C5.94578 548.313 5.63511 548.378 5.26445 548.378C5.16578 548.378 5.07645 548.375 4.99645 548.37C4.91911 548.367 4.84045 548.359 4.76045 548.346L5.05245 547.766C5.09511 547.771 5.13511 547.774 5.17245 547.774C5.21245 547.777 5.25111 547.778 5.28845 547.778C5.66445 547.778 5.94978 547.685 6.14445 547.498C6.34178 547.311 6.44045 547.067 6.44045 546.766C6.44045 546.523 6.37778 546.314 6.25245 546.138C6.12978 545.965 5.95911 545.83 5.74045 545.734C5.52178 545.638 5.27245 545.59 4.99245 545.59H4.90045C4.59111 545.59 4.32445 545.643 4.10045 545.75C3.87645 545.857 3.70311 546.018 3.58045 546.234C3.46045 546.453 3.40045 546.73 3.40045 547.066C3.40045 547.191 3.40978 547.323 3.42845 547.462C3.44978 547.603 3.48178 547.742 3.52445 547.878C3.56711 548.017 3.62311 548.149 3.69245 548.274L3.09645 548.302C3.04045 548.201 2.99111 548.083 2.94845 547.95C2.90845 547.817 2.87778 547.67 2.85645 547.51C2.83245 547.35 2.82045 547.181 2.82045 547.002ZM4.76045 545.198H5.23245L5.25645 547.942L5.10445 548.346H4.76045V545.198ZM2.82045 550.549C2.82045 550.383 2.83378 550.217 2.86045 550.049C2.88711 549.883 2.92178 549.727 2.96445 549.581C3.00978 549.434 3.06045 549.306 3.11645 549.197L3.73645 549.249C3.66711 549.371 3.60578 549.502 3.55245 549.641C3.50178 549.782 3.46178 549.927 3.43245 550.077C3.40578 550.229 3.39245 550.381 3.39245 550.533C3.39245 550.679 3.40845 550.814 3.44045 550.937C3.47511 551.062 3.53645 551.161 3.62445 551.233C3.71511 551.307 3.84578 551.345 4.01645 551.345C4.12845 551.345 4.22045 551.313 4.29245 551.249C4.36445 551.185 4.42978 551.077 4.48845 550.925C4.54711 550.775 4.61245 550.573 4.68445 550.317C4.74311 550.106 4.81511 549.918 4.90045 549.753C4.98578 549.587 5.10045 549.457 5.24445 549.361C5.38845 549.267 5.57645 549.221 5.80845 549.221C6.16845 549.221 6.45111 549.338 6.65645 549.573C6.86445 549.81 6.96845 550.129 6.96845 550.529C6.96845 550.694 6.95378 550.854 6.92445 551.009C6.89778 551.163 6.86178 551.306 6.81645 551.437C6.77111 551.567 6.72311 551.681 6.67245 551.777L6.05245 551.721C6.13245 551.593 6.19778 551.461 6.24845 551.325C6.30178 551.189 6.33911 551.058 6.36045 550.933C6.38445 550.807 6.39645 550.697 6.39645 550.601C6.39645 550.491 6.38045 550.382 6.34845 550.273C6.31911 550.166 6.26311 550.077 6.18045 550.005C6.10045 549.933 5.98445 549.897 5.83245 549.897C5.72311 549.897 5.63111 549.922 5.55645 549.973C5.48178 550.023 5.41511 550.111 5.35645 550.237C5.29778 550.362 5.23645 550.535 5.17245 550.757C5.09511 551.021 5.01378 551.246 4.92845 551.433C4.84578 551.622 4.73645 551.767 4.60045 551.869C4.46445 551.97 4.27645 552.021 4.03645 552.021C3.80445 552.021 3.59645 551.97 3.41245 551.869C3.23111 551.767 3.08711 551.609 2.98045 551.393C2.87378 551.177 2.82045 550.895 2.82045 550.549ZM2.82045 554.182C2.82045 554.016 2.83378 553.85 2.86045 553.682C2.88711 553.516 2.92178 553.36 2.96445 553.214C3.00978 553.067 3.06045 552.939 3.11645 552.83L3.73645 552.882C3.66711 553.004 3.60578 553.135 3.55245 553.274C3.50178 553.415 3.46178 553.56 3.43245 553.71C3.40578 553.862 3.39245 554.014 3.39245 554.166C3.39245 554.312 3.40845 554.447 3.44045 554.57C3.47511 554.695 3.53645 554.794 3.62445 554.866C3.71511 554.94 3.84578 554.978 4.01645 554.978C4.12845 554.978 4.22045 554.946 4.29245 554.882C4.36445 554.818 4.42978 554.71 4.48845 554.558C4.54711 554.408 4.61245 554.206 4.68445 553.95C4.74311 553.739 4.81511 553.551 4.90045 553.386C4.98578 553.22 5.10045 553.09 5.24445 552.994C5.38845 552.9 5.57645 552.854 5.80845 552.854C6.16845 552.854 6.45111 552.971 6.65645 553.206C6.86445 553.443 6.96845 553.762 6.96845 554.162C6.96845 554.327 6.95378 554.487 6.92445 554.642C6.89778 554.796 6.86178 554.939 6.81645 555.07C6.77111 555.2 6.72311 555.314 6.67245 555.41L6.05245 555.354C6.13245 555.226 6.19778 555.094 6.24845 554.958C6.30178 554.822 6.33911 554.691 6.36045 554.566C6.38445 554.44 6.39645 554.33 6.39645 554.234C6.39645 554.124 6.38045 554.015 6.34845 553.906C6.31911 553.799 6.26311 553.71 6.18045 553.638C6.10045 553.566 5.98445 553.53 5.83245 553.53C5.72311 553.53 5.63111 553.555 5.55645 553.606C5.48178 553.656 5.41511 553.744 5.35645 553.87C5.29778 553.995 5.23645 554.168 5.17245 554.39C5.09511 554.654 5.01378 554.879 4.92845 555.066C4.84578 555.255 4.73645 555.4 4.60045 555.502C4.46445 555.603 4.27645 555.654 4.03645 555.654C3.80445 555.654 3.59645 555.603 3.41245 555.502C3.23111 555.4 3.08711 555.242 2.98045 555.026C2.87378 554.81 2.82045 554.528 2.82045 554.182ZM2.82045 561.557C2.82045 561.082 2.91111 560.691 3.09245 560.385C3.27378 560.078 3.52178 559.85 3.83645 559.701C4.15111 559.551 4.51111 559.477 4.91645 559.477C5.31645 559.477 5.67111 559.55 5.98045 559.697C6.28978 559.843 6.53111 560.054 6.70445 560.329C6.88045 560.603 6.96845 560.931 6.96845 561.313C6.96845 561.649 6.90311 561.937 6.77245 562.177C6.64178 562.419 6.44978 562.606 6.19645 562.737C5.94578 562.867 5.63511 562.933 5.26445 562.933C5.16578 562.933 5.07645 562.93 4.99645 562.925C4.91911 562.922 4.84045 562.914 4.76045 562.901L5.05245 562.321C5.09511 562.326 5.13511 562.329 5.17245 562.329C5.21245 562.331 5.25111 562.333 5.28845 562.333C5.66445 562.333 5.94978 562.239 6.14445 562.053C6.34178 561.866 6.44045 561.622 6.44045 561.321C6.44045 561.078 6.37778 560.869 6.25245 560.693C6.12978 560.519 5.95911 560.385 5.74045 560.289C5.52178 560.193 5.27245 560.145 4.99245 560.145H4.90045C4.59111 560.145 4.32445 560.198 4.10045 560.305C3.87645 560.411 3.70311 560.573 3.58045 560.789C3.46045 561.007 3.40045 561.285 3.40045 561.621C3.40045 561.746 3.40978 561.878 3.42845 562.017C3.44978 562.158 3.48178 562.297 3.52445 562.433C3.56711 562.571 3.62311 562.703 3.69245 562.829L3.09645 562.857C3.04045 562.755 2.99111 562.638 2.94845 562.505C2.90845 562.371 2.87778 562.225 2.85645 562.065C2.83245 561.905 2.82045 561.735 2.82045 561.557ZM4.76045 559.753H5.23245L5.25645 562.497L5.10445 562.901H4.76045V559.753ZM2.90845 563.527C3.08978 563.647 3.24578 563.751 3.37645 563.839C3.50978 563.93 3.63511 564.014 3.75245 564.091C3.87245 564.171 3.99911 564.257 4.13245 564.347L5.02845 564.947L4.84045 564.955L5.69245 564.367C5.82578 564.274 5.95111 564.186 6.06845 564.103C6.18578 564.023 6.30845 563.938 6.43645 563.847C6.56445 563.759 6.71111 563.658 6.87645 563.543L6.90445 564.291C6.71778 564.417 6.54978 564.527 6.40045 564.623C6.25111 564.722 6.09245 564.826 5.92445 564.935L5.28445 565.359V565.415L5.92445 565.835C6.09245 565.942 6.24845 566.043 6.39245 566.139C6.53911 566.235 6.70045 566.341 6.87645 566.455V567.215C6.70578 567.095 6.55778 566.991 6.43245 566.903C6.30978 566.818 6.19378 566.737 6.08445 566.659C5.97511 566.582 5.85378 566.497 5.72045 566.403L4.86445 565.803L5.04045 565.771L4.12845 566.439C3.93378 566.581 3.74578 566.717 3.56445 566.847C3.38578 566.981 3.16711 567.142 2.90845 567.331V566.531C3.08178 566.411 3.23778 566.303 3.37645 566.207C3.51778 566.111 3.67378 566.003 3.84445 565.883L4.54845 565.399V565.343L3.87645 564.903C3.70045 564.789 3.53911 564.683 3.39245 564.587C3.24845 564.494 3.08711 564.389 2.90845 564.271L2.90845 563.527ZM1.34845 568.241C1.64178 568.241 1.92978 568.241 2.21245 568.241C2.49245 568.241 2.79645 568.241 3.12445 568.241H5.06045C5.35378 568.241 5.65378 568.241 5.96045 568.241C6.26711 568.241 6.57245 568.241 6.87645 568.241L6.91645 568.841L6.40045 568.857V568.925C6.50445 569.005 6.59911 569.107 6.68445 569.229C6.77245 569.352 6.84178 569.492 6.89245 569.649C6.94578 569.809 6.97245 569.984 6.97245 570.173C6.97245 570.536 6.88178 570.844 6.70045 571.097C6.52178 571.353 6.27645 571.548 5.96445 571.681C5.65245 571.815 5.29911 571.881 4.90445 571.881C4.53378 571.881 4.18978 571.819 3.87245 571.693C3.55778 571.571 3.30311 571.383 3.10845 571.129C2.91645 570.879 2.82045 570.564 2.82045 570.185C2.82045 570.009 2.84445 569.847 2.89245 569.697C2.93778 569.548 3.00311 569.412 3.08845 569.289C3.17645 569.169 3.28311 569.06 3.40845 568.961V568.901H3.09645C2.78445 568.901 2.49378 568.901 2.22445 568.901C1.95245 568.901 1.66845 568.901 1.37245 568.901L1.34845 568.241ZM3.41245 569.985C3.41245 570.271 3.48311 570.503 3.62445 570.681C3.76578 570.863 3.94845 570.995 4.17245 571.077C4.39911 571.163 4.64178 571.205 4.90045 571.205C5.16978 571.205 5.41511 571.16 5.63645 571.069C5.86045 570.981 6.03911 570.847 6.17245 570.665C6.30578 570.484 6.37245 570.253 6.37245 569.973C6.37245 569.835 6.35111 569.699 6.30845 569.565C6.26845 569.432 6.20711 569.308 6.12445 569.193C6.04445 569.081 5.94445 568.984 5.82445 568.901H4.06045C3.92445 568.981 3.80845 569.073 3.71245 569.177C3.61645 569.284 3.54178 569.404 3.48845 569.537C3.43778 569.671 3.41245 569.82 3.41245 569.985ZM2.82045 574.768C2.82045 574.293 2.91111 573.902 3.09245 573.596C3.27378 573.289 3.52178 573.061 3.83645 572.912C4.15111 572.762 4.51111 572.688 4.91645 572.688C5.31645 572.688 5.67111 572.761 5.98045 572.908C6.28978 573.054 6.53111 573.265 6.70445 573.54C6.88045 573.814 6.96845 574.142 6.96845 574.524C6.96845 574.86 6.90311 575.148 6.77245 575.388C6.64178 575.63 6.44978 575.817 6.19645 575.948C5.94578 576.078 5.63511 576.144 5.26445 576.144C5.16578 576.144 5.07645 576.141 4.99645 576.136C4.91911 576.133 4.84045 576.125 4.76045 576.112L5.05245 575.532C5.09511 575.537 5.13511 575.54 5.17245 575.54C5.21245 575.542 5.25111 575.544 5.28845 575.544C5.66445 575.544 5.94978 575.45 6.14445 575.264C6.34178 575.077 6.44045 574.833 6.44045 574.532C6.44045 574.289 6.37778 574.08 6.25245 573.904C6.12978 573.73 5.95911 573.596 5.74045 573.5C5.52178 573.404 5.27245 573.356 4.99245 573.356H4.90045C4.59111 573.356 4.32445 573.409 4.10045 573.516C3.87645 573.622 3.70311 573.784 3.58045 574C3.46045 574.218 3.40045 574.496 3.40045 574.832C3.40045 574.957 3.40978 575.089 3.42845 575.228C3.44978 575.369 3.48178 575.508 3.52445 575.644C3.56711 575.782 3.62311 575.914 3.69245 576.04L3.09645 576.068C3.04045 575.966 2.99111 575.849 2.94845 575.716C2.90845 575.582 2.87778 575.436 2.85645 575.276C2.83245 575.116 2.82045 574.946 2.82045 574.768ZM4.76045 572.964H5.23245L5.25645 575.708L5.10445 576.112H4.76045V572.964ZM2.90845 577.194C3.20445 577.194 3.48845 577.194 3.76045 577.194C4.03245 577.194 4.33245 577.194 4.66045 577.194H5.06045C5.35378 577.194 5.65378 577.194 5.96045 577.194C6.26711 577.194 6.57245 577.194 6.87645 577.194L6.91645 577.77L6.18045 577.79V577.862C6.30045 577.948 6.42178 578.057 6.54445 578.19C6.66711 578.324 6.76845 578.481 6.84845 578.662C6.93111 578.844 6.97245 579.052 6.97245 579.286C6.97245 579.708 6.85111 580.016 6.60845 580.21C6.36578 580.405 6.01378 580.502 5.55245 580.502C5.37911 580.502 5.22578 580.502 5.09245 580.502C4.95911 580.502 4.81511 580.502 4.66045 580.502C4.34578 580.502 4.04845 580.502 3.76845 580.502C3.49111 580.502 3.20445 580.502 2.90845 580.502V579.842C3.20445 579.842 3.48978 579.842 3.76445 579.842C4.04178 579.842 4.33111 579.842 4.63245 579.842H5.38445C5.70178 579.842 5.94178 579.785 6.10445 579.67C6.26711 579.558 6.34845 579.354 6.34845 579.058C6.34845 578.88 6.31245 578.717 6.24045 578.57C6.16845 578.424 6.07111 578.29 5.94845 578.17C5.82845 578.053 5.69511 577.948 5.54845 577.854H4.63245C4.32045 577.854 4.02845 577.854 3.75645 577.854C3.48711 577.854 3.20445 577.854 2.90845 577.854V577.194ZM2.82045 582.9C2.82045 582.735 2.83378 582.568 2.86045 582.4C2.88711 582.235 2.92178 582.079 2.96445 581.932C3.00978 581.786 3.06045 581.658 3.11645 581.548L3.73645 581.6C3.66711 581.723 3.60578 581.854 3.55245 581.992C3.50178 582.134 3.46178 582.279 3.43245 582.428C3.40578 582.58 3.39245 582.732 3.39245 582.884C3.39245 583.031 3.40845 583.166 3.44045 583.288C3.47511 583.414 3.53645 583.512 3.62445 583.584C3.71511 583.659 3.84578 583.696 4.01645 583.696C4.12845 583.696 4.22045 583.664 4.29245 583.6C4.36445 583.536 4.42978 583.428 4.48845 583.276C4.54711 583.127 4.61245 582.924 4.68445 582.668C4.74311 582.458 4.81511 582.27 4.90045 582.104C4.98578 581.939 5.10045 581.808 5.24445 581.712C5.38845 581.619 5.57645 581.572 5.80845 581.572C6.16845 581.572 6.45111 581.69 6.65645 581.924C6.86445 582.162 6.96845 582.48 6.96845 582.88C6.96845 583.046 6.95378 583.206 6.92445 583.36C6.89778 583.515 6.86178 583.658 6.81645 583.788C6.77111 583.919 6.72311 584.032 6.67245 584.128L6.05245 584.072C6.13245 583.944 6.19778 583.812 6.24845 583.676C6.30178 583.54 6.33911 583.41 6.36045 583.284C6.38445 583.159 6.39645 583.048 6.39645 582.952C6.39645 582.843 6.38045 582.734 6.34845 582.624C6.31911 582.518 6.26311 582.428 6.18045 582.356C6.10045 582.284 5.98445 582.248 5.83245 582.248C5.72311 582.248 5.63111 582.274 5.55645 582.324C5.48178 582.375 5.41511 582.463 5.35645 582.588C5.29778 582.714 5.23645 582.887 5.17245 583.108C5.09511 583.372 5.01378 583.598 4.92845 583.784C4.84578 583.974 4.73645 584.119 4.60045 584.22C4.46445 584.322 4.27645 584.372 4.03645 584.372C3.80445 584.372 3.59645 584.322 3.41245 584.22C3.23111 584.119 3.08711 583.96 2.98045 583.744C2.87378 583.528 2.82045 583.247 2.82045 582.9ZM2.82045 587.213C2.82045 586.738 2.91111 586.348 3.09245 586.041C3.27378 585.734 3.52178 585.506 3.83645 585.357C4.15111 585.208 4.51111 585.133 4.91645 585.133C5.31645 585.133 5.67111 585.206 5.98045 585.353C6.28978 585.5 6.53111 585.71 6.70445 585.985C6.88045 586.26 6.96845 586.588 6.96845 586.969C6.96845 587.305 6.90311 587.593 6.77245 587.833C6.64178 588.076 6.44978 588.262 6.19645 588.393C5.94578 588.524 5.63511 588.589 5.26445 588.589C5.16578 588.589 5.07645 588.586 4.99645 588.581C4.91911 588.578 4.84045 588.57 4.76045 588.557L5.05245 587.977C5.09511 587.982 5.13511 587.985 5.17245 587.985C5.21245 587.988 5.25111 587.989 5.28845 587.989C5.66445 587.989 5.94978 587.896 6.14445 587.709C6.34178 587.522 6.44045 587.278 6.44045 586.977C6.44045 586.734 6.37778 586.525 6.25245 586.349C6.12978 586.176 5.95911 586.041 5.74045 585.945C5.52178 585.849 5.27245 585.801 4.99245 585.801H4.90045C4.59111 585.801 4.32445 585.854 4.10045 585.961C3.87645 586.068 3.70311 586.229 3.58045 586.445C3.46045 586.664 3.40045 586.941 3.40045 587.277C3.40045 587.402 3.40978 587.534 3.42845 587.673C3.44978 587.814 3.48178 587.953 3.52445 588.089C3.56711 588.228 3.62311 588.36 3.69245 588.485L3.09645 588.513C3.04045 588.412 2.99111 588.294 2.94845 588.161C2.90845 588.028 2.87778 587.881 2.85645 587.721C2.83245 587.561 2.82045 587.392 2.82045 587.213ZM4.76045 585.409H5.23245L5.25645 588.153L5.10445 588.557H4.76045V585.409ZM2.82045 590.76C2.82045 590.594 2.83378 590.428 2.86045 590.26C2.88711 590.094 2.92178 589.938 2.96445 589.792C3.00978 589.645 3.06045 589.517 3.11645 589.408L3.73645 589.46C3.66711 589.582 3.60578 589.713 3.55245 589.852C3.50178 589.993 3.46178 590.138 3.43245 590.288C3.40578 590.44 3.39245 590.592 3.39245 590.744C3.39245 590.89 3.40845 591.025 3.44045 591.148C3.47511 591.273 3.53645 591.372 3.62445 591.444C3.71511 591.518 3.84578 591.556 4.01645 591.556C4.12845 591.556 4.22045 591.524 4.29245 591.46C4.36445 591.396 4.42978 591.288 4.48845 591.136C4.54711 590.986 4.61245 590.784 4.68445 590.528C4.74311 590.317 4.81511 590.129 4.90045 589.964C4.98578 589.798 5.10045 589.668 5.24445 589.572C5.38845 589.478 5.57645 589.432 5.80845 589.432C6.16845 589.432 6.45111 589.549 6.65645 589.784C6.86445 590.021 6.96845 590.34 6.96845 590.74C6.96845 590.905 6.95378 591.065 6.92445 591.22C6.89778 591.374 6.86178 591.517 6.81645 591.648C6.77111 591.778 6.72311 591.892 6.67245 591.988L6.05245 591.932C6.13245 591.804 6.19778 591.672 6.24845 591.536C6.30178 591.4 6.33911 591.269 6.36045 591.144C6.38445 591.018 6.39645 590.908 6.39645 590.812C6.39645 590.702 6.38045 590.593 6.34845 590.484C6.31911 590.377 6.26311 590.288 6.18045 590.216C6.10045 590.144 5.98445 590.108 5.83245 590.108C5.72311 590.108 5.63111 590.133 5.55645 590.184C5.48178 590.234 5.41511 590.322 5.35645 590.448C5.29778 590.573 5.23645 590.746 5.17245 590.968C5.09511 591.232 5.01378 591.457 4.92845 591.644C4.84578 591.833 4.73645 591.978 4.60045 592.08C4.46445 592.181 4.27645 592.232 4.03645 592.232C3.80445 592.232 3.59645 592.181 3.41245 592.08C3.23111 591.978 3.08711 591.82 2.98045 591.604C2.87378 591.388 2.82045 591.106 2.82045 590.76Z" fill="url(#paint1_linear_608_515)"/>
<path d="M31.5673 535.732L32.6173 535.417C33.3873 536.747 34.1514 538.071 34.9098 539.389C35.6681 540.707 36.4323 542.032 37.2023 543.362H36.0123C35.2656 542.09 34.5248 540.818 33.7898 539.547C33.0548 538.287 32.3139 537.015 31.5673 535.732ZM13.1923 542.872C14.5106 542.872 15.7764 542.872 16.9898 542.872C18.2031 542.872 19.5156 542.872 20.9273 542.872H28.8373C30.1206 542.872 31.4039 542.872 32.6873 542.872C33.9823 542.872 35.2773 542.872 36.5723 542.872L37.2023 543.362L37.1323 543.922C35.8723 543.922 34.5481 543.922 33.1598 543.922C31.7714 543.922 30.3306 543.922 28.8373 543.922H20.9273C19.5156 543.922 18.2031 543.922 16.9898 543.922C15.7764 543.922 14.5106 543.922 13.1923 543.922V542.872ZM12.8773 559.644C12.8773 558.127 13.1748 556.797 13.7698 555.654C14.3764 554.522 15.2281 553.577 16.3248 552.819C17.4331 552.072 18.7398 551.512 20.2448 551.139C21.7614 550.765 23.4239 550.579 25.2323 550.579C27.7289 550.579 29.8989 550.929 31.7423 551.629C33.5856 552.34 35.0148 553.367 36.0298 554.709C37.0448 556.05 37.5523 557.672 37.5523 559.574C37.5523 561.032 37.2606 562.315 36.6773 563.424C36.0939 564.532 35.2598 565.465 34.1748 566.224C33.0898 566.994 31.7889 567.571 30.2723 567.956C28.7673 568.341 27.0873 568.534 25.2323 568.534C22.6889 568.534 20.4898 568.178 18.6348 567.466C16.7914 566.766 15.3681 565.751 14.3648 564.421C13.3731 563.103 12.8773 561.51 12.8773 559.644ZM13.9973 559.574C13.9973 561.44 14.4873 562.945 15.4673 564.089C16.4589 565.244 17.8006 566.084 19.4923 566.609C21.1839 567.145 23.0973 567.414 25.2323 567.414C27.5073 567.414 29.4789 567.134 31.1473 566.574C32.8273 566.014 34.1281 565.15 35.0498 563.984C35.9714 562.829 36.4323 561.359 36.4323 559.574C36.4323 557.742 35.9423 556.243 34.9623 555.076C33.9939 553.921 32.6639 553.07 30.9723 552.521C29.2923 551.973 27.3789 551.699 25.2323 551.699C23.0623 551.699 21.1314 551.967 19.4398 552.504C17.7481 553.04 16.4181 553.886 15.4498 555.041C14.4814 556.196 13.9973 557.707 13.9973 559.574ZM13.1923 577.794C14.4756 578.517 15.7356 579.223 16.9723 579.911C18.2089 580.6 19.6206 581.387 21.2073 582.274L29.8873 587.139C30.9956 587.757 32.0048 588.317 32.9148 588.819C33.8248 589.332 34.6998 589.822 35.5398 590.289C36.3798 590.767 37.2489 591.257 38.1473 591.759V592.949C37.2489 592.447 36.3798 591.957 35.5398 591.479C34.6998 591.012 33.8248 590.522 32.9148 590.009C32.0048 589.507 30.9956 588.947 29.8873 588.329L21.2073 583.464C19.6206 582.577 18.2089 581.79 16.9723 581.101C15.7356 580.413 14.4756 579.707 13.1923 578.984V577.794ZM26.4223 578.354C26.4223 577.176 26.6731 576.12 27.1748 575.186C27.6764 574.265 28.3764 573.536 29.2748 572.999C30.1848 572.462 31.2406 572.194 32.4423 572.194C33.6089 572.194 34.6531 572.462 35.5748 572.999C36.4964 573.536 37.2256 574.271 37.7623 575.204C38.2989 576.137 38.5673 577.199 38.5673 578.389C38.5673 579.567 38.2989 580.617 37.7623 581.539C37.2256 582.461 36.4964 583.184 35.5748 583.709C34.6531 584.246 33.6089 584.514 32.4423 584.514C31.2406 584.514 30.1848 584.246 29.2748 583.709C28.3764 583.184 27.6764 582.455 27.1748 581.521C26.6731 580.6 26.4223 579.544 26.4223 578.354ZM27.5073 578.354C27.5073 579.952 27.9389 581.195 28.8023 582.081C29.6773 582.98 30.8906 583.429 32.4423 583.429C33.4456 583.429 34.3264 583.225 35.0848 582.816C35.8431 582.42 36.4323 581.842 36.8523 581.084C37.2723 580.337 37.4823 579.439 37.4823 578.389C37.4823 576.814 37.0156 575.566 36.0823 574.644C35.1606 573.734 33.9473 573.279 32.4423 573.279C30.8906 573.279 29.6773 573.734 28.8023 574.644C27.9389 575.566 27.5073 576.802 27.5073 578.354ZM12.8773 592.424C12.8773 591.246 13.1281 590.19 13.6298 589.256C14.1314 588.335 14.8314 587.606 15.7298 587.069C16.6398 586.532 17.6956 586.264 18.8973 586.264C20.0639 586.264 21.1081 586.532 22.0298 587.069C22.9514 587.606 23.6806 588.341 24.2173 589.274C24.7539 590.207 25.0223 591.269 25.0223 592.459C25.0223 593.637 24.7539 594.687 24.2173 595.609C23.6806 596.531 22.9514 597.254 22.0298 597.779C21.1081 598.316 20.0639 598.584 18.8973 598.584C17.6956 598.584 16.6398 598.316 15.7298 597.779C14.8314 597.254 14.1314 596.525 13.6298 595.591C13.1281 594.67 12.8773 593.614 12.8773 592.424ZM13.9623 592.424C13.9623 594.022 14.3939 595.265 15.2573 596.151C16.1323 597.05 17.3456 597.499 18.8973 597.499C19.9006 597.499 20.7814 597.295 21.5398 596.886C22.2981 596.49 22.8873 595.912 23.3073 595.154C23.7273 594.407 23.9373 593.509 23.9373 592.459C23.9373 590.884 23.4706 589.636 22.5373 588.714C21.6156 587.804 20.4023 587.349 18.8973 587.349C17.3456 587.349 16.1323 587.804 15.2573 588.714C14.3939 589.636 13.9623 590.872 13.9623 592.424Z" fill="url(#paint2_linear_608_515)"/>
<path d="M174.642 1218.87C174.344 1219.01 174.057 1219.08 173.783 1219.08C173.509 1219.08 173.256 1219.02 173.023 1218.92C172.789 1218.81 172.58 1218.66 172.397 1218.47C172.214 1218.27 172.066 1218.05 171.951 1217.79C171.787 1217.43 171.714 1217.08 171.733 1216.73C171.753 1216.38 171.861 1216.07 172.056 1215.78C172.254 1215.5 172.54 1215.27 172.914 1215.1C173.203 1214.97 173.481 1214.9 173.747 1214.89C174.013 1214.88 174.263 1214.93 174.495 1215.03C174.728 1215.13 174.936 1215.28 175.12 1215.47C175.303 1215.66 175.454 1215.88 175.574 1216.15C175.737 1216.51 175.81 1216.86 175.796 1217.22C175.782 1217.57 175.678 1217.9 175.486 1218.19C175.295 1218.48 175.014 1218.71 174.642 1218.87ZM174.404 1218.35C174.669 1218.23 174.859 1218.06 174.974 1217.85C175.089 1217.64 175.143 1217.41 175.134 1217.16C175.125 1216.91 175.067 1216.67 174.959 1216.43C174.835 1216.16 174.679 1215.94 174.491 1215.78C174.302 1215.63 174.094 1215.53 173.866 1215.5C173.638 1215.47 173.402 1215.51 173.16 1215.62C172.897 1215.74 172.703 1215.9 172.578 1216.1C172.452 1216.3 172.39 1216.52 172.39 1216.77C172.393 1217.01 172.452 1217.26 172.566 1217.51C172.674 1217.75 172.82 1217.96 173.004 1218.13C173.189 1218.3 173.402 1218.41 173.641 1218.46C173.88 1218.51 174.135 1218.47 174.404 1218.35ZM177.397 1217.53C177.274 1217.26 177.157 1217 177.044 1216.75C176.932 1216.5 176.808 1216.23 176.672 1215.93L176.507 1215.57C176.385 1215.3 176.261 1215.03 176.134 1214.75C176.007 1214.47 175.881 1214.19 175.755 1213.91L176.263 1213.64L176.586 1214.3L176.651 1214.27C176.679 1214.13 176.729 1213.97 176.799 1213.8C176.87 1213.64 176.971 1213.48 177.103 1213.33C177.234 1213.18 177.407 1213.06 177.62 1212.96C178.004 1212.79 178.334 1212.77 178.612 1212.91C178.89 1213.05 179.124 1213.33 179.315 1213.75C179.386 1213.91 179.45 1214.05 179.505 1214.17C179.56 1214.29 179.62 1214.42 179.684 1214.56C179.814 1214.85 179.937 1215.12 180.053 1215.37C180.167 1215.63 180.286 1215.89 180.408 1216.16L179.808 1216.43C179.685 1216.16 179.567 1215.9 179.453 1215.65C179.339 1215.4 179.219 1215.14 179.094 1214.86L178.783 1214.18C178.652 1213.89 178.501 1213.69 178.329 1213.59C178.16 1213.49 177.94 1213.5 177.671 1213.62C177.508 1213.7 177.375 1213.8 177.271 1213.92C177.167 1214.05 177.086 1214.19 177.028 1214.35C176.971 1214.51 176.93 1214.68 176.906 1214.85L177.284 1215.68C177.413 1215.97 177.534 1216.23 177.647 1216.48C177.758 1216.73 177.875 1216.98 177.998 1217.25L177.397 1217.53ZM182.973 1214.99C182.851 1214.72 182.733 1214.46 182.621 1214.22C182.508 1213.97 182.384 1213.7 182.249 1213.4L182.083 1213.03C181.985 1212.82 181.894 1212.62 181.812 1212.44C181.728 1212.25 181.647 1212.07 181.57 1211.9C181.492 1211.73 181.412 1211.56 181.332 1211.38L181.926 1211.08C182.008 1211.26 182.089 1211.44 182.168 1211.61C182.246 1211.79 182.328 1211.97 182.413 1212.15C182.497 1212.34 182.588 1212.54 182.688 1212.76L182.853 1213.12C182.989 1213.42 183.113 1213.69 183.225 1213.94C183.338 1214.19 183.455 1214.45 183.578 1214.72L182.973 1214.99ZM181.244 1210.41C181.113 1210.47 180.99 1210.48 180.874 1210.45C180.759 1210.41 180.667 1210.32 180.598 1210.17C180.531 1210.02 180.522 1209.89 180.571 1209.78C180.62 1209.67 180.712 1209.58 180.848 1209.52C180.981 1209.46 181.106 1209.45 181.221 1209.49C181.336 1209.53 181.425 1209.62 181.49 1209.77C181.559 1209.92 181.569 1210.05 181.522 1210.15C181.475 1210.26 181.383 1210.35 181.244 1210.41ZM184.837 1214.15C184.714 1213.88 184.597 1213.62 184.484 1213.37C184.372 1213.12 184.248 1212.85 184.112 1212.55L183.946 1212.19C183.825 1211.92 183.701 1211.65 183.574 1211.37C183.447 1211.09 183.321 1210.81 183.195 1210.53L183.703 1210.26L184.026 1210.92L184.091 1210.89C184.119 1210.75 184.169 1210.59 184.239 1210.42C184.31 1210.26 184.411 1210.1 184.543 1209.95C184.674 1209.8 184.847 1209.68 185.06 1209.58C185.444 1209.41 185.774 1209.39 186.052 1209.53C186.33 1209.67 186.564 1209.95 186.755 1210.37C186.826 1210.53 186.89 1210.67 186.945 1210.79C187 1210.91 187.06 1211.04 187.124 1211.18C187.254 1211.47 187.377 1211.74 187.493 1211.99C187.607 1212.25 187.726 1212.51 187.848 1212.78L187.247 1213.05C187.125 1212.78 187.007 1212.52 186.893 1212.27C186.779 1212.02 186.659 1211.75 186.534 1211.48L186.223 1210.8C186.092 1210.51 185.941 1210.31 185.769 1210.21C185.6 1210.11 185.38 1210.12 185.111 1210.24C184.948 1210.32 184.815 1210.42 184.711 1210.54C184.607 1210.67 184.526 1210.81 184.468 1210.97C184.411 1211.13 184.37 1211.3 184.345 1211.47L184.724 1212.3C184.853 1212.59 184.974 1212.85 185.087 1213.1C185.198 1213.35 185.315 1213.6 185.438 1213.87L184.837 1214.15ZM190.068 1211.87C189.917 1211.93 189.76 1211.99 189.596 1212.04C189.435 1212.08 189.278 1212.11 189.127 1212.13C188.975 1212.15 188.837 1212.16 188.715 1212.16L188.505 1211.57C188.646 1211.58 188.79 1211.58 188.938 1211.57C189.088 1211.56 189.237 1211.54 189.385 1211.5C189.534 1211.46 189.678 1211.41 189.817 1211.35C189.95 1211.29 190.066 1211.22 190.165 1211.14C190.264 1211.06 190.329 1210.96 190.358 1210.85C190.389 1210.74 190.368 1210.6 190.298 1210.45C190.252 1210.35 190.184 1210.27 190.096 1210.24C190.008 1210.2 189.883 1210.18 189.72 1210.19C189.56 1210.2 189.348 1210.22 189.086 1210.26C188.87 1210.3 188.669 1210.31 188.483 1210.3C188.297 1210.29 188.131 1210.24 187.984 1210.15C187.839 1210.06 187.719 1209.91 187.623 1209.69C187.474 1209.37 187.464 1209.06 187.593 1208.78C187.723 1208.49 187.97 1208.26 188.334 1208.1C188.484 1208.03 188.636 1207.98 188.789 1207.94C188.941 1207.9 189.086 1207.87 189.223 1207.86C189.361 1207.85 189.484 1207.84 189.593 1207.85L189.798 1208.44C189.648 1208.42 189.501 1208.41 189.356 1208.42C189.211 1208.43 189.076 1208.45 188.953 1208.48C188.829 1208.51 188.723 1208.55 188.636 1208.59C188.536 1208.63 188.444 1208.69 188.357 1208.77C188.272 1208.84 188.214 1208.93 188.183 1209.03C188.15 1209.13 188.165 1209.25 188.228 1209.39C188.274 1209.49 188.335 1209.57 188.412 1209.61C188.489 1209.66 188.596 1209.68 188.735 1209.69C188.873 1209.69 189.056 1209.67 189.284 1209.64C189.557 1209.6 189.795 1209.58 190.001 1209.58C190.207 1209.58 190.385 1209.62 190.533 1209.7C190.682 1209.78 190.806 1209.93 190.905 1210.15C191.001 1210.36 191.041 1210.57 191.025 1210.78C191.008 1210.99 190.923 1211.18 190.77 1211.37C190.618 1211.56 190.384 1211.72 190.068 1211.87ZM193.711 1210.21C193.47 1210.32 193.248 1210.37 193.043 1210.36C192.837 1210.36 192.651 1210.29 192.487 1210.16C192.323 1210.02 192.181 1209.82 192.06 1209.55C191.964 1209.34 191.869 1209.13 191.775 1208.93C191.68 1208.72 191.587 1208.52 191.497 1208.32C191.405 1208.11 191.318 1207.92 191.234 1207.74C191.149 1207.55 191.068 1207.37 190.991 1207.2C190.878 1206.95 190.774 1206.72 190.678 1206.51C190.582 1206.3 190.482 1206.08 190.378 1205.85L190.913 1205.45C190.994 1205.63 191.07 1205.8 191.139 1205.95C191.209 1206.11 191.279 1206.26 191.349 1206.41C191.42 1206.57 191.498 1206.74 191.584 1206.93L192.589 1209.14C192.707 1209.4 192.85 1209.57 193.019 1209.65C193.19 1209.73 193.39 1209.72 193.618 1209.62C193.708 1209.58 193.8 1209.52 193.893 1209.44C193.986 1209.36 194.058 1209.27 194.111 1209.17L194.402 1209.67C194.37 1209.73 194.319 1209.79 194.25 1209.86C194.18 1209.92 194.098 1209.99 194.005 1210.05C193.913 1210.11 193.815 1210.16 193.711 1210.21ZM190.432 1207.82L190.216 1207.34L192.772 1206.18L192.989 1206.66C192.746 1206.77 192.501 1206.88 192.253 1206.99C192.008 1207.1 191.769 1207.21 191.536 1207.32L191.288 1207.43L190.432 1207.82ZM196.17 1209.08C195.954 1209.18 195.746 1209.23 195.546 1209.22C195.345 1209.21 195.163 1209.14 195 1209.03C194.839 1208.92 194.71 1208.75 194.61 1208.53C194.521 1208.34 194.481 1208.15 194.491 1207.99C194.499 1207.82 194.542 1207.67 194.617 1207.53C194.693 1207.39 194.789 1207.27 194.906 1207.16C195.023 1207.05 195.145 1206.95 195.272 1206.86L196.315 1206.15C196.213 1205.9 196.097 1205.73 195.965 1205.64C195.835 1205.55 195.693 1205.51 195.54 1205.53C195.387 1205.55 195.229 1205.59 195.066 1205.67C194.983 1205.7 194.897 1205.75 194.808 1205.81C194.719 1205.86 194.627 1205.93 194.533 1206C194.439 1206.07 194.343 1206.15 194.244 1206.25C194.145 1206.34 194.044 1206.44 193.941 1206.56L193.658 1206.02C193.729 1205.94 193.811 1205.86 193.905 1205.78C194.001 1205.7 194.105 1205.61 194.217 1205.53C194.33 1205.44 194.449 1205.36 194.573 1205.29C194.698 1205.21 194.827 1205.15 194.96 1205.09C195.23 1204.96 195.481 1204.9 195.714 1204.9C195.949 1204.89 196.16 1204.96 196.347 1205.09C196.535 1205.23 196.695 1205.44 196.828 1205.74C196.879 1205.85 196.944 1205.99 197.022 1206.16C197.1 1206.33 197.175 1206.5 197.245 1206.65L197.459 1207.12C197.534 1207.29 197.61 1207.46 197.689 1207.63C197.766 1207.8 197.851 1207.99 197.944 1208.19L197.397 1208.44L197.131 1207.94L197.073 1207.97C197.042 1208.1 196.99 1208.23 196.916 1208.38C196.843 1208.52 196.744 1208.65 196.62 1208.78C196.498 1208.9 196.348 1209 196.17 1209.08ZM196.118 1208.51C196.247 1208.45 196.364 1208.36 196.468 1208.25C196.573 1208.14 196.657 1208 196.721 1207.85C196.787 1207.69 196.822 1207.51 196.827 1207.32L196.476 1206.54C196.447 1206.58 196.405 1206.62 196.35 1206.67C196.296 1206.72 196.212 1206.79 196.097 1206.88C195.982 1206.97 195.822 1207.08 195.615 1207.22C195.487 1207.31 195.383 1207.41 195.302 1207.51C195.219 1207.61 195.168 1207.72 195.148 1207.85C195.129 1207.97 195.15 1208.09 195.21 1208.23C195.305 1208.44 195.435 1208.56 195.598 1208.59C195.763 1208.62 195.936 1208.59 196.118 1208.51ZM199.105 1207.66C198.982 1207.39 198.865 1207.13 198.752 1206.89C198.64 1206.64 198.516 1206.37 198.38 1206.07L197.472 1204.07C197.333 1203.76 197.198 1203.46 197.066 1203.18C196.935 1202.89 196.807 1202.61 196.682 1202.33L197.25 1201.99C197.384 1202.28 197.518 1202.57 197.652 1202.87C197.786 1203.16 197.926 1203.47 198.073 1203.8L198.981 1205.79C199.117 1206.09 199.241 1206.37 199.353 1206.61C199.466 1206.86 199.583 1207.12 199.706 1207.39L199.105 1207.66ZM200.954 1206.82C200.832 1206.55 200.714 1206.29 200.602 1206.05C200.489 1205.8 200.365 1205.53 200.229 1205.23L199.321 1203.23C199.182 1202.92 199.047 1202.62 198.916 1202.34C198.784 1202.05 198.656 1201.77 198.532 1201.49L199.1 1201.15C199.233 1201.44 199.367 1201.73 199.502 1202.03C199.635 1202.32 199.775 1202.63 199.922 1202.95L200.83 1204.95C200.966 1205.25 201.09 1205.53 201.203 1205.77C201.315 1206.02 201.433 1206.28 201.555 1206.55L200.954 1206.82Z" fill="url(#paint3_linear_608_515)"/>
<path d="M146.432 1220.3L146.041 1219.44C146.457 1218.49 146.879 1217.55 147.306 1216.6C147.728 1215.64 148.15 1214.69 148.571 1213.75C149.567 1211.52 150.361 1209.49 150.951 1207.65C151.552 1205.82 151.893 1204.16 151.975 1202.67C152.051 1201.18 151.814 1199.82 151.264 1198.61C150.511 1196.96 149.498 1195.91 148.225 1195.48C146.951 1195.04 145.411 1195.24 143.606 1196.06C143.085 1196.29 142.568 1196.58 142.055 1196.92C141.551 1197.25 141.052 1197.63 140.555 1198.06C140.07 1198.48 139.603 1198.96 139.155 1199.5C138.702 1200.03 138.281 1200.61 137.891 1201.25L137.186 1200.2C137.523 1199.7 137.907 1199.21 138.338 1198.72C138.764 1198.22 139.233 1197.74 139.746 1197.29C140.269 1196.84 140.815 1196.42 141.383 1196.03C141.95 1195.64 142.537 1195.31 143.143 1195.04C144.491 1194.42 145.75 1194.15 146.917 1194.21C148.095 1194.26 149.139 1194.63 150.048 1195.3C150.953 1195.97 151.682 1196.91 152.237 1198.13C152.812 1199.4 153.073 1200.8 153.02 1202.35C152.974 1203.88 152.659 1205.6 152.077 1207.51C151.5 1209.4 150.701 1211.5 149.68 1213.83L147.388 1219.02L147.017 1218.88L151.829 1216.69C153.135 1216.1 154.447 1215.5 155.764 1214.91C157.081 1214.31 158.393 1213.71 159.7 1213.12L160.134 1214.07L146.432 1220.3ZM172.499 1208.8C171.119 1209.43 169.785 1209.71 168.498 1209.64C167.216 1209.55 166.004 1209.17 164.86 1208.49C163.721 1207.79 162.671 1206.83 161.709 1205.61C160.741 1204.39 159.884 1202.95 159.136 1201.3C158.103 1199.03 157.524 1196.91 157.399 1194.94C157.284 1192.97 157.628 1191.24 158.429 1189.76C159.231 1188.28 160.497 1187.15 162.229 1186.37C163.556 1185.76 164.845 1185.5 166.096 1185.57C167.346 1185.64 168.541 1186.02 169.68 1186.69C170.83 1187.36 171.894 1188.3 172.872 1189.53C173.845 1190.74 174.715 1192.19 175.482 1193.88C176.535 1196.19 177.12 1198.34 177.24 1200.32C177.365 1202.29 177.03 1204.01 176.234 1205.47C175.444 1206.92 174.199 1208.03 172.499 1208.8ZM171.972 1207.81C173.672 1207.04 174.839 1205.97 175.475 1204.6C176.116 1203.22 176.326 1201.65 176.104 1199.9C175.893 1198.14 175.346 1196.28 174.463 1194.34C173.522 1192.27 172.451 1190.59 171.251 1189.3C170.046 1188 168.722 1187.18 167.279 1186.82C165.846 1186.46 164.317 1186.65 162.692 1187.38C161.024 1188.14 159.862 1189.21 159.205 1190.58C158.554 1191.94 158.329 1193.51 158.53 1195.27C158.725 1197.03 159.267 1198.88 160.155 1200.84C161.053 1202.82 162.096 1204.46 163.284 1205.78C164.473 1207.1 165.793 1207.96 167.245 1208.36C168.697 1208.77 170.273 1208.58 171.972 1207.81ZM184.433 1203.03C184.121 1202.35 183.822 1201.69 183.535 1201.06C183.248 1200.43 182.938 1199.74 182.604 1199.01L182.191 1198.1C181.896 1197.45 181.591 1196.78 181.276 1196.09C180.962 1195.39 180.652 1194.71 180.346 1194.04L180.867 1193.74L181.653 1195.47L181.762 1195.42C181.825 1195.09 181.938 1194.71 182.099 1194.3C182.264 1193.87 182.506 1193.46 182.825 1193.07C183.15 1192.67 183.583 1192.35 184.123 1192.1C184.9 1191.75 185.579 1191.67 186.159 1191.87C186.737 1192.06 187.242 1192.49 187.673 1193.15L187.725 1193.21C187.812 1193.36 187.894 1193.5 187.972 1193.66C188.056 1193.81 188.138 1193.98 188.218 1194.15C188.394 1194.54 188.545 1194.87 188.669 1195.14C188.79 1195.41 188.929 1195.72 189.087 1196.06C189.404 1196.76 189.71 1197.44 190.005 1198.09C190.3 1198.73 190.603 1199.4 190.915 1200.09L190.369 1200.34C190.057 1199.65 189.754 1198.98 189.459 1198.33C189.164 1197.68 188.857 1197.01 188.54 1196.31L187.672 1194.4C187.274 1193.53 186.822 1192.93 186.315 1192.62C185.807 1192.31 185.153 1192.34 184.351 1192.7C183.86 1192.92 183.462 1193.23 183.158 1193.63C182.86 1194.02 182.63 1194.46 182.468 1194.96C182.313 1195.46 182.198 1195.97 182.125 1196.5L183.15 1198.76C183.484 1199.5 183.794 1200.18 184.081 1200.81C184.368 1201.44 184.667 1202.1 184.979 1202.79L184.433 1203.03ZM196.214 1197.68C195.902 1196.99 195.599 1196.33 195.304 1195.68C195.008 1195.03 194.702 1194.35 194.385 1193.66L193.517 1191.74C193.119 1190.87 192.667 1190.28 192.16 1189.97C191.652 1189.66 190.998 1189.68 190.196 1190.05C189.705 1190.27 189.307 1190.58 189.003 1190.97C188.702 1191.36 188.471 1191.8 188.309 1192.3C188.145 1192.79 188.031 1193.31 187.97 1193.85L187.45 1192.9L187.559 1192.85C187.638 1192.49 187.762 1192.09 187.93 1191.66C188.099 1191.22 188.345 1190.81 188.67 1190.41C188.995 1190.01 189.428 1189.69 189.968 1189.45C190.951 1189 191.767 1188.98 192.414 1189.39C193.058 1189.79 193.608 1190.5 194.063 1191.5C194.239 1191.88 194.39 1192.22 194.514 1192.49C194.635 1192.76 194.774 1193.06 194.931 1193.41C195.249 1194.11 195.555 1194.78 195.85 1195.43C196.145 1196.08 196.448 1196.75 196.76 1197.43L196.214 1197.68ZM200.312 1195.82C200 1195.13 199.701 1194.47 199.414 1193.84C199.127 1193.21 198.817 1192.53 198.483 1191.79L198.07 1190.88C197.846 1190.39 197.634 1189.93 197.433 1189.48C197.229 1189.03 197.029 1188.59 196.833 1188.16C196.634 1187.72 196.432 1187.28 196.225 1186.82L196.759 1186.55C196.966 1187 197.168 1187.45 197.367 1187.89C197.565 1188.32 197.767 1188.77 197.971 1189.22C198.175 1189.66 198.39 1190.14 198.616 1190.64L199.03 1191.55C199.363 1192.28 199.674 1192.96 199.96 1193.59C200.247 1194.23 200.546 1194.88 200.858 1195.57L200.312 1195.82ZM195.27 1184.09C195.082 1184.18 194.891 1184.19 194.697 1184.11C194.509 1184.04 194.357 1183.87 194.241 1183.62C194.117 1183.34 194.089 1183.11 194.159 1182.93C194.232 1182.74 194.368 1182.59 194.569 1182.5C194.769 1182.41 194.96 1182.4 195.142 1182.48C195.33 1182.56 195.485 1182.73 195.606 1183C195.722 1183.25 195.747 1183.47 195.68 1183.67C195.619 1183.85 195.483 1184 195.27 1184.09ZM204.686 1193.83C204.375 1193.15 204.075 1192.49 203.789 1191.86C203.502 1191.22 203.191 1190.54 202.858 1189.81L202.444 1188.9C202.149 1188.25 201.844 1187.58 201.53 1186.88C201.216 1186.19 200.905 1185.51 200.599 1184.84L201.121 1184.53L201.915 1186.28L202.024 1186.23C202.09 1185.89 202.212 1185.51 202.389 1185.08C202.573 1184.64 202.836 1184.22 203.179 1183.82C203.528 1183.41 203.988 1183.08 204.559 1182.82C205.56 1182.36 206.399 1182.32 207.074 1182.7C207.753 1183.06 208.328 1183.76 208.799 1184.8C208.976 1185.19 209.126 1185.52 209.25 1185.79C209.371 1186.06 209.511 1186.37 209.668 1186.71C209.985 1187.41 210.291 1188.08 210.586 1188.73C210.881 1189.38 211.185 1190.05 211.496 1190.74L210.95 1190.99C210.638 1190.3 210.335 1189.63 210.04 1188.98C209.745 1188.33 209.439 1187.66 209.122 1186.96L208.253 1185.05C207.856 1184.18 207.394 1183.59 206.869 1183.28C206.343 1182.98 205.655 1183.02 204.805 1183.41C204.283 1183.65 203.858 1183.97 203.53 1184.37C203.205 1184.77 202.952 1185.22 202.772 1185.73C202.59 1186.23 202.458 1186.75 202.378 1187.3L203.404 1189.56C203.738 1190.29 204.048 1190.98 204.335 1191.61C204.622 1192.24 204.921 1192.9 205.232 1193.58L204.686 1193.83ZM217.385 1188.26C217.052 1188.41 216.687 1188.54 216.293 1188.63C215.907 1188.74 215.523 1188.81 215.139 1188.85C214.762 1188.89 214.417 1188.9 214.105 1188.87L213.914 1188.21C214.265 1188.24 214.622 1188.24 214.984 1188.22C215.346 1188.19 215.704 1188.14 216.06 1188.05C216.421 1187.96 216.775 1187.83 217.121 1187.68C217.545 1187.48 217.908 1187.25 218.207 1186.97C218.513 1186.7 218.707 1186.37 218.79 1185.98C218.876 1185.59 218.799 1185.13 218.559 1184.61C218.402 1184.26 218.189 1184.02 217.92 1183.88C217.657 1183.73 217.289 1183.66 216.818 1183.67C216.343 1183.68 215.722 1183.73 214.955 1183.83C214.463 1183.89 213.985 1183.92 213.519 1183.91C213.06 1183.9 212.644 1183.79 212.269 1183.6C211.894 1183.4 211.594 1183.06 211.368 1182.56C211.054 1181.87 211.037 1181.19 211.318 1180.54C211.599 1179.88 212.152 1179.37 212.977 1178.99C213.293 1178.85 213.618 1178.74 213.951 1178.67C214.283 1178.59 214.606 1178.55 214.923 1178.54C215.243 1178.52 215.54 1178.52 215.813 1178.56L216.03 1179.23C215.629 1179.17 215.261 1179.15 214.926 1179.17C214.589 1179.19 214.28 1179.23 213.999 1179.31C213.725 1179.38 213.473 1179.47 213.242 1179.58C212.969 1179.7 212.688 1179.88 212.399 1180.11C212.11 1180.35 211.901 1180.65 211.775 1181.01C211.654 1181.37 211.709 1181.81 211.941 1182.32C212.098 1182.67 212.303 1182.92 212.557 1183.07C212.817 1183.22 213.151 1183.31 213.559 1183.32C213.974 1183.33 214.491 1183.29 215.112 1183.21C215.748 1183.12 216.327 1183.08 216.849 1183.07C217.369 1183.05 217.822 1183.14 218.209 1183.33C218.596 1183.52 218.909 1183.88 219.149 1184.4C219.353 1184.85 219.44 1185.32 219.41 1185.8C219.383 1186.27 219.209 1186.73 218.885 1187.16C218.565 1187.58 218.065 1187.95 217.385 1188.26Z" fill="url(#paint4_linear_608_515)"/>
<path d="M287.279 2121.37C286.858 2121.37 286.55 2121.25 286.355 2121.01C286.161 2120.77 286.063 2120.41 286.063 2119.95C286.063 2119.78 286.063 2119.62 286.063 2119.5C286.063 2119.37 286.063 2119.24 286.063 2119.11C286.063 2118.87 286.063 2118.66 286.063 2118.46C286.063 2118.26 286.063 2118.07 286.063 2117.88C286.063 2117.7 286.063 2117.51 286.063 2117.32L286.723 2117.29C286.723 2117.58 286.723 2117.87 286.723 2118.15C286.723 2118.43 286.723 2118.73 286.723 2119.04V2119.8C286.723 2120.11 286.781 2120.35 286.895 2120.52C287.01 2120.68 287.214 2120.76 287.507 2120.76C287.678 2120.76 287.834 2120.72 287.975 2120.65C288.117 2120.58 288.246 2120.48 288.363 2120.36C288.481 2120.24 288.587 2120.11 288.683 2119.96V2119.04C288.683 2118.73 288.683 2118.44 288.683 2118.16C288.683 2117.89 288.683 2117.61 288.683 2117.32H289.343C289.343 2117.61 289.343 2117.89 289.343 2118.17C289.343 2118.45 289.343 2118.77 289.343 2119.11V2119.53C289.343 2119.86 289.343 2120.16 289.343 2120.43C289.343 2120.7 289.343 2120.99 289.343 2121.28H288.767L288.743 2120.58H288.671C288.589 2120.7 288.481 2120.83 288.347 2120.95C288.217 2121.07 288.062 2121.17 287.883 2121.25C287.705 2121.33 287.503 2121.37 287.279 2121.37ZM290.632 2121.28C290.632 2120.99 290.632 2120.7 290.632 2120.43C290.632 2120.16 290.632 2119.86 290.632 2119.53V2119.13C290.632 2118.84 290.632 2118.54 290.632 2118.23C290.632 2117.93 290.632 2117.62 290.632 2117.32L291.208 2117.28L291.228 2118.01H291.3C291.385 2117.89 291.495 2117.77 291.628 2117.65C291.761 2117.53 291.919 2117.42 292.1 2117.34C292.281 2117.26 292.489 2117.22 292.724 2117.22C293.145 2117.22 293.453 2117.34 293.648 2117.58C293.843 2117.83 293.94 2118.18 293.94 2118.64C293.94 2118.81 293.94 2118.97 293.94 2119.1C293.94 2119.23 293.94 2119.38 293.94 2119.53C293.94 2119.85 293.94 2120.14 293.94 2120.42C293.94 2120.7 293.94 2120.99 293.94 2121.28H293.28C293.28 2120.99 293.28 2120.7 293.28 2120.43C293.28 2120.15 293.28 2119.86 293.28 2119.56V2118.81C293.28 2118.49 293.223 2118.25 293.108 2118.09C292.996 2117.93 292.792 2117.84 292.496 2117.84C292.317 2117.84 292.155 2117.88 292.008 2117.95C291.861 2118.02 291.728 2118.12 291.608 2118.24C291.491 2118.36 291.385 2118.5 291.292 2118.64V2119.56C291.292 2119.87 291.292 2120.16 291.292 2120.44C291.292 2120.71 291.292 2120.99 291.292 2121.28H290.632ZM295.218 2121.28C295.218 2120.99 295.218 2120.7 295.218 2120.43C295.218 2120.16 295.218 2119.86 295.218 2119.53V2119.13C295.218 2118.84 295.218 2118.54 295.218 2118.23C295.218 2117.93 295.218 2117.62 295.218 2117.32L295.794 2117.28L295.814 2118.01H295.886C295.971 2117.89 296.081 2117.77 296.214 2117.65C296.347 2117.53 296.505 2117.42 296.686 2117.34C296.867 2117.26 297.075 2117.22 297.31 2117.22C297.731 2117.22 298.039 2117.34 298.234 2117.58C298.429 2117.83 298.526 2118.18 298.526 2118.64C298.526 2118.81 298.526 2118.97 298.526 2119.1C298.526 2119.23 298.526 2119.38 298.526 2119.53C298.526 2119.85 298.526 2120.14 298.526 2120.42C298.526 2120.7 298.526 2120.99 298.526 2121.28H297.866C297.866 2120.99 297.866 2120.7 297.866 2120.43C297.866 2120.15 297.866 2119.86 297.866 2119.56V2118.81C297.866 2118.49 297.809 2118.25 297.694 2118.09C297.582 2117.93 297.378 2117.84 297.082 2117.84C296.903 2117.84 296.741 2117.88 296.594 2117.95C296.447 2118.02 296.314 2118.12 296.194 2118.24C296.077 2118.36 295.971 2118.5 295.878 2118.64V2119.56C295.878 2119.87 295.878 2120.16 295.878 2120.44C295.878 2120.71 295.878 2120.99 295.878 2121.28H295.218ZM301.596 2121.37C301.121 2121.37 300.731 2121.28 300.424 2121.1C300.117 2120.92 299.889 2120.67 299.74 2120.36C299.591 2120.04 299.516 2119.68 299.516 2119.28C299.516 2118.88 299.589 2118.52 299.736 2118.21C299.883 2117.9 300.093 2117.66 300.368 2117.49C300.643 2117.31 300.971 2117.22 301.352 2117.22C301.688 2117.22 301.976 2117.29 302.216 2117.42C302.459 2117.55 302.645 2117.74 302.776 2118C302.907 2118.25 302.972 2118.56 302.972 2118.93C302.972 2119.03 302.969 2119.12 302.964 2119.2C302.961 2119.27 302.953 2119.35 302.94 2119.43L302.36 2119.14C302.365 2119.1 302.368 2119.06 302.368 2119.02C302.371 2118.98 302.372 2118.94 302.372 2118.9C302.372 2118.53 302.279 2118.24 302.092 2118.05C301.905 2117.85 301.661 2117.75 301.36 2117.75C301.117 2117.75 300.908 2117.81 300.732 2117.94C300.559 2118.06 300.424 2118.23 300.328 2118.45C300.232 2118.67 300.184 2118.92 300.184 2119.2V2119.29C300.184 2119.6 300.237 2119.87 300.344 2120.09C300.451 2120.32 300.612 2120.49 300.828 2120.61C301.047 2120.73 301.324 2120.79 301.66 2120.79C301.785 2120.79 301.917 2120.78 302.056 2120.76C302.197 2120.74 302.336 2120.71 302.472 2120.67C302.611 2120.63 302.743 2120.57 302.868 2120.5L302.896 2121.1C302.795 2121.15 302.677 2121.2 302.544 2121.24C302.411 2121.28 302.264 2121.31 302.104 2121.34C301.944 2121.36 301.775 2121.37 301.596 2121.37ZM299.792 2119.43V2118.96L302.536 2118.94L302.94 2119.09V2119.43H299.792ZM305.751 2121.36C305.321 2121.36 304.956 2121.27 304.655 2121.09C304.356 2120.91 304.128 2120.66 303.971 2120.35C303.813 2120.04 303.735 2119.69 303.735 2119.3C303.735 2118.9 303.809 2118.55 303.959 2118.24C304.111 2117.93 304.331 2117.68 304.619 2117.5C304.909 2117.31 305.263 2117.22 305.679 2117.22C305.833 2117.22 305.985 2117.24 306.135 2117.26C306.287 2117.29 306.429 2117.33 306.563 2117.37C306.696 2117.41 306.815 2117.47 306.919 2117.52L306.859 2118.13C306.709 2118.05 306.568 2117.98 306.435 2117.94C306.304 2117.89 306.181 2117.86 306.067 2117.84C305.955 2117.82 305.851 2117.81 305.755 2117.81C305.349 2117.81 305.024 2117.95 304.779 2118.21C304.533 2118.48 304.411 2118.83 304.411 2119.28C304.411 2119.57 304.464 2119.82 304.571 2120.05C304.68 2120.28 304.843 2120.46 305.059 2120.59C305.277 2120.72 305.548 2120.79 305.871 2120.79C305.985 2120.79 306.099 2120.78 306.211 2120.76C306.325 2120.73 306.439 2120.7 306.551 2120.66C306.663 2120.62 306.771 2120.57 306.875 2120.5L306.931 2121.1C306.843 2121.15 306.74 2121.2 306.623 2121.24C306.505 2121.27 306.373 2121.3 306.227 2121.33C306.083 2121.35 305.924 2121.36 305.751 2121.36ZM309.768 2121.37C309.293 2121.37 308.902 2121.28 308.596 2121.1C308.289 2120.92 308.061 2120.67 307.912 2120.36C307.762 2120.04 307.688 2119.68 307.688 2119.28C307.688 2118.88 307.761 2118.52 307.908 2118.21C308.054 2117.9 308.265 2117.66 308.54 2117.49C308.814 2117.31 309.142 2117.22 309.524 2117.22C309.86 2117.22 310.148 2117.29 310.388 2117.42C310.63 2117.55 310.817 2117.74 310.948 2118C311.078 2118.25 311.144 2118.56 311.144 2118.93C311.144 2119.03 311.141 2119.12 311.136 2119.2C311.133 2119.27 311.125 2119.35 311.112 2119.43L310.532 2119.14C310.537 2119.1 310.54 2119.06 310.54 2119.02C310.542 2118.98 310.544 2118.94 310.544 2118.9C310.544 2118.53 310.45 2118.24 310.264 2118.05C310.077 2117.85 309.833 2117.75 309.532 2117.75C309.289 2117.75 309.08 2117.81 308.904 2117.94C308.73 2118.06 308.596 2118.23 308.5 2118.45C308.404 2118.67 308.356 2118.92 308.356 2119.2V2119.29C308.356 2119.6 308.409 2119.87 308.516 2120.09C308.622 2120.32 308.784 2120.49 309 2120.61C309.218 2120.73 309.496 2120.79 309.832 2120.79C309.957 2120.79 310.089 2120.78 310.228 2120.76C310.369 2120.74 310.508 2120.71 310.644 2120.67C310.782 2120.63 310.914 2120.57 311.04 2120.5L311.068 2121.1C310.966 2121.15 310.849 2121.2 310.716 2121.24C310.582 2121.28 310.436 2121.31 310.276 2121.34C310.116 2121.36 309.946 2121.37 309.768 2121.37ZM307.964 2119.43V2118.96L310.708 2118.94L311.112 2119.09V2119.43H307.964ZM313.315 2121.37C313.149 2121.37 312.983 2121.36 312.815 2121.33C312.649 2121.31 312.493 2121.27 312.347 2121.23C312.2 2121.18 312.072 2121.13 311.963 2121.08L312.015 2120.46C312.137 2120.53 312.268 2120.59 312.407 2120.64C312.548 2120.69 312.693 2120.73 312.843 2120.76C312.995 2120.79 313.147 2120.8 313.299 2120.8C313.445 2120.8 313.58 2120.78 313.703 2120.75C313.828 2120.72 313.927 2120.66 313.999 2120.57C314.073 2120.48 314.111 2120.35 314.111 2120.18C314.111 2120.06 314.079 2119.97 314.015 2119.9C313.951 2119.83 313.843 2119.76 313.691 2119.7C313.541 2119.65 313.339 2119.58 313.083 2119.51C312.872 2119.45 312.684 2119.38 312.519 2119.29C312.353 2119.21 312.223 2119.09 312.127 2118.95C312.033 2118.8 311.987 2118.62 311.987 2118.38C311.987 2118.02 312.104 2117.74 312.339 2117.54C312.576 2117.33 312.895 2117.22 313.295 2117.22C313.46 2117.22 313.62 2117.24 313.775 2117.27C313.929 2117.29 314.072 2117.33 314.203 2117.38C314.333 2117.42 314.447 2117.47 314.543 2117.52L314.487 2118.14C314.359 2118.06 314.227 2117.99 314.091 2117.94C313.955 2117.89 313.824 2117.85 313.699 2117.83C313.573 2117.81 313.463 2117.8 313.367 2117.8C313.257 2117.8 313.148 2117.81 313.039 2117.84C312.932 2117.87 312.843 2117.93 312.771 2118.01C312.699 2118.09 312.663 2118.21 312.663 2118.36C312.663 2118.47 312.688 2118.56 312.739 2118.64C312.789 2118.71 312.877 2118.78 313.003 2118.84C313.128 2118.89 313.301 2118.96 313.523 2119.02C313.787 2119.1 314.012 2119.18 314.199 2119.26C314.388 2119.35 314.533 2119.46 314.635 2119.59C314.736 2119.73 314.787 2119.92 314.787 2120.16C314.787 2120.39 314.736 2120.6 314.635 2120.78C314.533 2120.96 314.375 2121.11 314.159 2121.21C313.943 2121.32 313.661 2121.37 313.315 2121.37ZM316.947 2121.37C316.782 2121.37 316.615 2121.36 316.447 2121.33C316.282 2121.31 316.126 2121.27 315.979 2121.23C315.833 2121.18 315.705 2121.13 315.595 2121.08L315.647 2120.46C315.77 2120.53 315.901 2120.59 316.039 2120.64C316.181 2120.69 316.326 2120.73 316.475 2120.76C316.627 2120.79 316.779 2120.8 316.931 2120.8C317.078 2120.8 317.213 2120.78 317.335 2120.75C317.461 2120.72 317.559 2120.66 317.631 2120.57C317.706 2120.48 317.743 2120.35 317.743 2120.18C317.743 2120.06 317.711 2119.97 317.647 2119.9C317.583 2119.83 317.475 2119.76 317.323 2119.7C317.174 2119.65 316.971 2119.58 316.715 2119.51C316.505 2119.45 316.317 2119.38 316.151 2119.29C315.986 2119.21 315.855 2119.09 315.759 2118.95C315.666 2118.8 315.619 2118.62 315.619 2118.38C315.619 2118.02 315.737 2117.74 315.971 2117.54C316.209 2117.33 316.527 2117.22 316.927 2117.22C317.093 2117.22 317.253 2117.24 317.407 2117.27C317.562 2117.29 317.705 2117.33 317.835 2117.38C317.966 2117.42 318.079 2117.47 318.175 2117.52L318.119 2118.14C317.991 2118.06 317.859 2117.99 317.723 2117.94C317.587 2117.89 317.457 2117.85 317.331 2117.83C317.206 2117.81 317.095 2117.8 316.999 2117.8C316.89 2117.8 316.781 2117.81 316.671 2117.84C316.565 2117.87 316.475 2117.93 316.403 2118.01C316.331 2118.09 316.295 2118.21 316.295 2118.36C316.295 2118.47 316.321 2118.56 316.371 2118.64C316.422 2118.71 316.51 2118.78 316.635 2118.84C316.761 2118.89 316.934 2118.96 317.155 2119.02C317.419 2119.1 317.645 2119.18 317.831 2119.26C318.021 2119.35 318.166 2119.46 318.267 2119.59C318.369 2119.73 318.419 2119.92 318.419 2120.16C318.419 2120.39 318.369 2120.6 318.267 2120.78C318.166 2120.96 318.007 2121.11 317.791 2121.21C317.575 2121.32 317.294 2121.37 316.947 2121.37ZM320.396 2121.36C320.159 2121.36 319.951 2121.32 319.772 2121.23C319.593 2121.13 319.453 2121 319.352 2120.83C319.253 2120.66 319.204 2120.46 319.204 2120.22C319.204 2120 319.243 2119.82 319.32 2119.67C319.397 2119.52 319.499 2119.4 319.624 2119.31C319.749 2119.21 319.888 2119.14 320.04 2119.09C320.192 2119.04 320.344 2119 320.496 2118.97L321.74 2118.76C321.751 2118.49 321.715 2118.28 321.632 2118.15C321.552 2118.01 321.439 2117.92 321.292 2117.87C321.145 2117.82 320.983 2117.8 320.804 2117.8C320.713 2117.8 320.616 2117.8 320.512 2117.82C320.408 2117.83 320.297 2117.85 320.18 2117.88C320.065 2117.91 319.944 2117.94 319.816 2117.98C319.688 2118.03 319.553 2118.08 319.412 2118.14L319.376 2117.54C319.472 2117.5 319.58 2117.46 319.7 2117.42C319.823 2117.38 319.952 2117.35 320.088 2117.32C320.227 2117.29 320.368 2117.26 320.512 2117.25C320.656 2117.23 320.801 2117.22 320.948 2117.22C321.244 2117.22 321.499 2117.27 321.712 2117.36C321.928 2117.46 322.093 2117.6 322.208 2117.8C322.323 2118 322.38 2118.27 322.38 2118.59C322.38 2118.71 322.38 2118.87 322.38 2119.06C322.38 2119.25 322.38 2119.43 322.38 2119.6V2120.11C322.38 2120.29 322.38 2120.48 322.38 2120.67C322.38 2120.85 322.38 2121.06 322.38 2121.28H321.78L321.744 2120.72H321.68C321.597 2120.83 321.493 2120.93 321.368 2121.03C321.243 2121.13 321.097 2121.21 320.932 2121.27C320.769 2121.33 320.591 2121.36 320.396 2121.36ZM320.588 2120.82C320.729 2120.82 320.871 2120.79 321.012 2120.73C321.153 2120.67 321.285 2120.58 321.408 2120.47C321.533 2120.35 321.639 2120.2 321.724 2120.03L321.728 2119.17C321.685 2119.2 321.628 2119.22 321.556 2119.24C321.487 2119.27 321.381 2119.3 321.24 2119.33C321.101 2119.36 320.908 2119.39 320.66 2119.44C320.508 2119.47 320.373 2119.51 320.256 2119.57C320.139 2119.63 320.045 2119.71 319.976 2119.82C319.909 2119.92 319.876 2120.04 319.876 2120.19C319.876 2120.42 319.944 2120.58 320.08 2120.68C320.219 2120.77 320.388 2120.82 320.588 2120.82ZM323.655 2121.28C323.655 2120.99 323.655 2120.7 323.655 2120.43C323.655 2120.16 323.655 2119.86 323.655 2119.53V2119.13C323.655 2118.84 323.655 2118.54 323.655 2118.23C323.655 2117.93 323.655 2117.62 323.655 2117.32L324.231 2117.28L324.251 2118.08H324.319C324.429 2117.84 324.554 2117.66 324.695 2117.54C324.839 2117.41 324.985 2117.33 325.131 2117.28C325.278 2117.24 325.413 2117.22 325.535 2117.22C325.61 2117.22 325.685 2117.23 325.759 2117.24C325.834 2117.25 325.905 2117.26 325.971 2117.29L325.911 2117.95C325.823 2117.94 325.743 2117.92 325.671 2117.91C325.602 2117.9 325.521 2117.9 325.427 2117.9C325.35 2117.9 325.262 2117.91 325.163 2117.93C325.067 2117.95 324.967 2118 324.863 2118.07C324.762 2118.14 324.663 2118.25 324.567 2118.39C324.471 2118.53 324.387 2118.71 324.315 2118.94V2119.56C324.315 2119.87 324.315 2120.16 324.315 2120.44C324.315 2120.71 324.315 2120.99 324.315 2121.28H323.655ZM327.235 2122.84C327.341 2122.58 327.448 2122.32 327.555 2122.05C327.661 2121.79 327.768 2121.52 327.875 2121.26V2121.43C327.773 2121.16 327.672 2120.88 327.571 2120.6C327.469 2120.32 327.369 2120.05 327.271 2119.78L327.007 2119.06C326.903 2118.78 326.795 2118.49 326.683 2118.19C326.573 2117.89 326.467 2117.6 326.363 2117.32L327.071 2117.29C327.185 2117.63 327.297 2117.97 327.407 2118.3C327.516 2118.62 327.628 2118.96 327.743 2119.3L328.163 2120.58H328.235L328.695 2119.3C328.815 2118.96 328.933 2118.63 329.051 2118.3C329.168 2117.98 329.287 2117.65 329.407 2117.32H330.107C330.021 2117.53 329.939 2117.74 329.859 2117.94C329.781 2118.13 329.695 2118.35 329.599 2118.59C329.505 2118.83 329.393 2119.12 329.263 2119.45L328.823 2120.56C328.623 2121.07 328.452 2121.5 328.311 2121.86C328.172 2122.21 328.045 2122.53 327.931 2122.82L327.235 2122.84ZM333.515 2121.28C333.421 2121.04 333.327 2120.78 333.231 2120.53C333.137 2120.27 333.045 2120.02 332.955 2119.78L332.691 2119.08C332.581 2118.79 332.471 2118.5 332.359 2118.2C332.249 2117.9 332.141 2117.61 332.035 2117.32L332.743 2117.29C332.86 2117.62 332.973 2117.96 333.083 2118.29C333.195 2118.62 333.308 2118.95 333.423 2119.29L333.859 2120.56H333.927L334.363 2119.28C334.48 2118.95 334.593 2118.61 334.703 2118.29C334.815 2117.96 334.925 2117.64 335.035 2117.32H335.739C335.629 2117.61 335.519 2117.9 335.407 2118.2C335.297 2118.5 335.189 2118.79 335.083 2119.09L334.819 2119.8C334.725 2120.05 334.633 2120.3 334.543 2120.54C334.452 2120.79 334.36 2121.03 334.267 2121.28H333.515ZM336.632 2121.28C336.632 2120.99 336.632 2120.7 336.632 2120.43C336.632 2120.16 336.632 2119.86 336.632 2119.53V2119.13C336.632 2118.89 336.632 2118.68 336.632 2118.48C336.632 2118.27 336.632 2118.08 336.632 2117.89C336.632 2117.7 336.632 2117.51 336.632 2117.32L337.296 2117.29C337.296 2117.49 337.296 2117.68 337.296 2117.88C337.296 2118.07 337.296 2118.26 337.296 2118.47C337.296 2118.67 337.296 2118.89 337.296 2119.13V2119.53C337.296 2119.86 337.296 2120.16 337.296 2120.43C337.296 2120.7 337.296 2120.99 337.296 2121.28H336.632ZM336.952 2116.4C336.808 2116.4 336.691 2116.36 336.6 2116.28C336.51 2116.2 336.464 2116.08 336.464 2115.91C336.464 2115.75 336.51 2115.63 336.6 2115.55C336.691 2115.47 336.811 2115.42 336.96 2115.42C337.107 2115.42 337.224 2115.47 337.312 2115.55C337.4 2115.63 337.444 2115.75 337.444 2115.91C337.444 2116.08 337.4 2116.2 337.312 2116.28C337.224 2116.36 337.104 2116.4 336.952 2116.4ZM339.799 2121.37C339.634 2121.37 339.467 2121.36 339.299 2121.33C339.134 2121.31 338.978 2121.27 338.831 2121.23C338.684 2121.18 338.556 2121.13 338.447 2121.08L338.499 2120.46C338.622 2120.53 338.752 2120.59 338.891 2120.64C339.032 2120.69 339.178 2120.73 339.327 2120.76C339.479 2120.79 339.631 2120.8 339.783 2120.8C339.93 2120.8 340.064 2120.78 340.187 2120.75C340.312 2120.72 340.411 2120.66 340.483 2120.57C340.558 2120.48 340.595 2120.35 340.595 2120.18C340.595 2120.06 340.563 2119.97 340.499 2119.9C340.435 2119.83 340.327 2119.76 340.175 2119.7C340.026 2119.65 339.823 2119.58 339.567 2119.51C339.356 2119.45 339.168 2119.38 339.003 2119.29C338.838 2119.21 338.707 2119.09 338.611 2118.95C338.518 2118.8 338.471 2118.62 338.471 2118.38C338.471 2118.02 338.588 2117.74 338.823 2117.54C339.06 2117.33 339.379 2117.22 339.779 2117.22C339.944 2117.22 340.104 2117.24 340.259 2117.27C340.414 2117.29 340.556 2117.33 340.687 2117.38C340.818 2117.42 340.931 2117.47 341.027 2117.52L340.971 2118.14C340.843 2118.06 340.711 2117.99 340.575 2117.94C340.439 2117.89 340.308 2117.85 340.183 2117.83C340.058 2117.81 339.947 2117.8 339.851 2117.8C339.742 2117.8 339.632 2117.81 339.523 2117.84C339.416 2117.87 339.327 2117.93 339.255 2118.01C339.183 2118.09 339.147 2118.21 339.147 2118.36C339.147 2118.47 339.172 2118.56 339.223 2118.64C339.274 2118.71 339.362 2118.78 339.487 2118.84C339.612 2118.89 339.786 2118.96 340.007 2119.02C340.271 2119.1 340.496 2119.18 340.683 2119.26C340.872 2119.35 341.018 2119.46 341.119 2119.59C341.22 2119.73 341.271 2119.92 341.271 2120.16C341.271 2120.39 341.22 2120.6 341.119 2120.78C341.018 2120.96 340.859 2121.11 340.643 2121.21C340.427 2121.32 340.146 2121.37 339.799 2121.37ZM342.328 2121.28C342.328 2120.99 342.328 2120.7 342.328 2120.43C342.328 2120.16 342.328 2119.86 342.328 2119.53V2119.13C342.328 2118.89 342.328 2118.68 342.328 2118.48C342.328 2118.27 342.328 2118.08 342.328 2117.89C342.328 2117.7 342.328 2117.51 342.328 2117.32L342.992 2117.29C342.992 2117.49 342.992 2117.68 342.992 2117.88C342.992 2118.07 342.992 2118.26 342.992 2118.47C342.992 2118.67 342.992 2118.89 342.992 2119.13V2119.53C342.992 2119.86 342.992 2120.16 342.992 2120.43C342.992 2120.7 342.992 2120.99 342.992 2121.28H342.328ZM342.648 2116.4C342.504 2116.4 342.386 2116.36 342.296 2116.28C342.205 2116.2 342.16 2116.08 342.16 2115.91C342.16 2115.75 342.205 2115.63 342.296 2115.55C342.386 2115.47 342.506 2115.42 342.656 2115.42C342.802 2115.42 342.92 2115.47 343.008 2115.55C343.096 2115.63 343.14 2115.75 343.14 2115.91C343.14 2116.08 343.096 2116.2 343.008 2116.28C342.92 2116.36 342.8 2116.4 342.648 2116.4ZM345.878 2121.37C345.614 2121.37 345.39 2121.33 345.206 2121.24C345.022 2121.14 344.882 2121 344.786 2120.82C344.693 2120.63 344.646 2120.39 344.646 2120.09C344.646 2119.86 344.646 2119.63 344.646 2119.4C344.646 2119.17 344.646 2118.95 344.646 2118.73C344.646 2118.51 344.646 2118.3 344.646 2118.1C344.646 2117.89 344.646 2117.69 344.646 2117.51C344.646 2117.24 344.646 2116.98 344.646 2116.75C344.646 2116.52 344.646 2116.28 344.646 2116.03L345.298 2115.88C345.298 2116.08 345.298 2116.26 345.298 2116.43C345.298 2116.6 345.298 2116.77 345.298 2116.94C345.298 2117.11 345.298 2117.3 345.298 2117.51V2119.94C345.298 2120.22 345.358 2120.44 345.478 2120.58C345.601 2120.72 345.788 2120.8 346.038 2120.8C346.137 2120.8 346.245 2120.78 346.362 2120.75C346.48 2120.71 346.584 2120.66 346.674 2120.59L346.73 2121.17C346.677 2121.21 346.605 2121.24 346.514 2121.28C346.424 2121.31 346.324 2121.33 346.214 2121.34C346.105 2121.36 345.993 2121.37 345.878 2121.37ZM343.882 2117.84V2117.32H346.69V2117.84C346.424 2117.84 346.154 2117.84 345.882 2117.84C345.613 2117.84 345.35 2117.84 345.094 2117.84H344.822H343.882ZM348.775 2121.37C348.61 2121.37 348.443 2121.36 348.275 2121.33C348.11 2121.31 347.954 2121.27 347.807 2121.23C347.661 2121.18 347.533 2121.13 347.423 2121.08L347.475 2120.46C347.598 2120.53 347.729 2120.59 347.867 2120.64C348.009 2120.69 348.154 2120.73 348.303 2120.76C348.455 2120.79 348.607 2120.8 348.759 2120.8C348.906 2120.8 349.041 2120.78 349.163 2120.75C349.289 2120.72 349.387 2120.66 349.459 2120.57C349.534 2120.48 349.571 2120.35 349.571 2120.18C349.571 2120.06 349.539 2119.97 349.475 2119.9C349.411 2119.83 349.303 2119.76 349.151 2119.7C349.002 2119.65 348.799 2119.58 348.543 2119.51C348.333 2119.45 348.145 2119.38 347.979 2119.29C347.814 2119.21 347.683 2119.09 347.587 2118.95C347.494 2118.8 347.447 2118.62 347.447 2118.38C347.447 2118.02 347.565 2117.74 347.799 2117.54C348.037 2117.33 348.355 2117.22 348.755 2117.22C348.921 2117.22 349.081 2117.24 349.235 2117.27C349.39 2117.29 349.533 2117.33 349.663 2117.38C349.794 2117.42 349.907 2117.47 350.003 2117.52L349.947 2118.14C349.819 2118.06 349.687 2117.99 349.551 2117.94C349.415 2117.89 349.285 2117.85 349.159 2117.83C349.034 2117.81 348.923 2117.8 348.827 2117.8C348.718 2117.8 348.609 2117.81 348.499 2117.84C348.393 2117.87 348.303 2117.93 348.231 2118.01C348.159 2118.09 348.123 2118.21 348.123 2118.36C348.123 2118.47 348.149 2118.56 348.199 2118.64C348.25 2118.71 348.338 2118.78 348.463 2118.84C348.589 2118.89 348.762 2118.96 348.983 2119.02C349.247 2119.1 349.473 2119.18 349.659 2119.26C349.849 2119.35 349.994 2119.46 350.095 2119.59C350.197 2119.73 350.247 2119.92 350.247 2120.16C350.247 2120.39 350.197 2120.6 350.095 2120.78C349.994 2120.96 349.835 2121.11 349.619 2121.21C349.403 2121.32 349.122 2121.37 348.775 2121.37Z" fill="url(#paint5_linear_608_515)"/>
<path d="M276.785 2101.2V2100.15C277.684 2100.15 278.547 2100.15 279.375 2100.15C280.204 2100.15 280.974 2100.15 281.685 2100.15C282.409 2100.15 283.185 2100.15 284.013 2100.15C284.841 2100.15 285.699 2100.15 286.585 2100.15V2101.2C285.699 2101.2 284.841 2101.2 284.013 2101.2C283.185 2101.2 282.409 2101.2 281.685 2101.2C280.974 2101.2 280.204 2101.2 279.375 2101.2C278.547 2101.2 277.684 2101.2 276.785 2101.2ZM299.953 2111.32C298.133 2111.32 296.575 2110.87 295.28 2109.97C293.997 2109.07 293.011 2107.76 292.323 2106.05C291.646 2104.32 291.308 2102.21 291.308 2099.73C291.308 2097.7 291.489 2095.88 291.85 2094.27C292.224 2092.65 292.778 2091.27 293.513 2090.14C294.248 2089.01 295.169 2088.14 296.278 2087.55C297.398 2086.94 298.704 2086.64 300.198 2086.64C300.781 2086.64 301.359 2086.69 301.93 2086.78C302.514 2086.87 303.079 2087 303.628 2087.16C304.176 2087.33 304.695 2087.53 305.185 2087.76C305.675 2087.99 306.124 2088.25 306.533 2088.53L306.288 2089.72C305.821 2089.38 305.337 2089.09 304.835 2088.84C304.345 2088.6 303.838 2088.4 303.313 2088.25C302.799 2088.09 302.28 2087.96 301.755 2087.88C301.23 2087.8 300.711 2087.76 300.198 2087.76C298.424 2087.76 296.96 2088.23 295.805 2089.16C294.65 2090.09 293.793 2091.45 293.233 2093.24C292.673 2095.02 292.393 2097.2 292.393 2099.76C292.393 2102.02 292.679 2103.92 293.25 2105.47C293.822 2107.02 294.668 2108.2 295.788 2109C296.908 2109.8 298.296 2110.19 299.953 2110.19C301.563 2110.19 302.869 2109.86 303.873 2109.2C304.888 2108.52 305.629 2107.66 306.095 2106.61C306.574 2105.55 306.813 2104.43 306.813 2103.26C306.813 2102.1 306.579 2101.04 306.113 2100.08C305.658 2099.11 304.94 2098.34 303.96 2097.77C302.98 2097.19 301.714 2096.89 300.163 2096.89C299.544 2096.89 298.914 2096.96 298.273 2097.09C297.631 2097.2 296.978 2097.41 296.313 2097.7C295.648 2097.98 294.977 2098.36 294.3 2098.85C293.624 2099.34 292.941 2099.96 292.253 2100.71C292.229 2100.46 292.212 2100.23 292.2 2100.01C292.2 2099.79 292.2 2099.58 292.2 2099.4C292.212 2099.2 292.229 2099.02 292.253 2098.85L292.673 2098.89C293.221 2098.38 293.787 2097.93 294.37 2097.54C294.965 2097.15 295.572 2096.82 296.19 2096.56C296.82 2096.29 297.462 2096.1 298.115 2095.97C298.78 2095.84 299.463 2095.77 300.163 2095.77C301.784 2095.77 303.173 2096.1 304.328 2096.75C305.483 2097.4 306.364 2098.28 306.97 2099.41C307.589 2100.55 307.898 2101.83 307.898 2103.26C307.898 2104.65 307.594 2105.96 306.988 2107.18C306.381 2108.41 305.489 2109.41 304.31 2110.18C303.132 2110.94 301.679 2111.32 299.953 2111.32ZM321.325 2111.32C319.808 2111.32 318.478 2111.02 317.335 2110.42C316.203 2109.82 315.258 2108.96 314.5 2107.87C313.753 2106.76 313.193 2105.45 312.82 2103.95C312.447 2102.43 312.26 2100.77 312.26 2098.96C312.26 2096.46 312.61 2094.29 313.31 2092.45C314.022 2090.61 315.048 2089.18 316.39 2088.16C317.732 2087.15 319.353 2086.64 321.255 2086.64C322.713 2086.64 323.997 2086.93 325.105 2087.51C326.213 2088.1 327.147 2088.93 327.905 2090.02C328.675 2091.1 329.252 2092.4 329.637 2093.92C330.022 2095.42 330.215 2097.1 330.215 2098.96C330.215 2101.5 329.859 2103.7 329.147 2105.56C328.447 2107.4 327.432 2108.82 326.102 2109.83C324.784 2110.82 323.192 2111.32 321.325 2111.32ZM321.255 2110.19C323.122 2110.19 324.627 2109.7 325.77 2108.72C326.925 2107.73 327.765 2106.39 328.29 2104.7C328.827 2103.01 329.095 2101.09 329.095 2098.96C329.095 2096.68 328.815 2094.71 328.255 2093.04C327.695 2091.36 326.832 2090.06 325.665 2089.14C324.51 2088.22 323.04 2087.76 321.255 2087.76C319.423 2087.76 317.924 2088.25 316.757 2089.23C315.602 2090.2 314.751 2091.53 314.202 2093.22C313.654 2094.9 313.38 2096.81 313.38 2098.96C313.38 2101.13 313.648 2103.06 314.185 2104.75C314.722 2106.44 315.567 2107.77 316.722 2108.74C317.877 2109.71 319.388 2110.19 321.255 2110.19ZM339.475 2111C340.198 2109.72 340.904 2108.46 341.593 2107.22C342.281 2105.98 343.068 2104.57 343.955 2102.98L348.82 2094.3C349.438 2093.2 349.998 2092.19 350.5 2091.28C351.013 2090.37 351.503 2089.49 351.97 2088.65C352.448 2087.81 352.938 2086.94 353.44 2086.04H354.63C354.128 2086.94 353.638 2087.81 353.16 2088.65C352.693 2089.49 352.203 2090.37 351.69 2091.28C351.188 2092.19 350.628 2093.2 350.01 2094.3L345.145 2102.98C344.258 2104.57 343.471 2105.98 342.783 2107.22C342.094 2108.46 341.388 2109.72 340.665 2111H339.475ZM340.035 2097.77C338.857 2097.77 337.801 2097.52 336.868 2097.02C335.946 2096.52 335.217 2095.82 334.68 2094.92C334.143 2094.01 333.875 2092.95 333.875 2091.75C333.875 2090.58 334.143 2089.54 334.68 2088.62C335.217 2087.7 335.952 2086.97 336.885 2086.43C337.818 2085.89 338.88 2085.62 340.07 2085.62C341.248 2085.62 342.298 2085.89 343.22 2086.43C344.142 2086.97 344.865 2087.7 345.39 2088.62C345.927 2089.54 346.195 2090.58 346.195 2091.75C346.195 2092.95 345.927 2094.01 345.39 2094.92C344.865 2095.82 344.136 2096.52 343.203 2097.02C342.281 2097.52 341.225 2097.77 340.035 2097.77ZM340.035 2096.68C341.633 2096.68 342.876 2096.25 343.763 2095.39C344.661 2094.51 345.11 2093.3 345.11 2091.75C345.11 2090.75 344.906 2089.87 344.498 2089.11C344.101 2088.35 343.523 2087.76 342.765 2087.34C342.018 2086.92 341.12 2086.71 340.07 2086.71C338.495 2086.71 337.247 2087.18 336.325 2088.11C335.415 2089.03 334.96 2090.24 334.96 2091.75C334.96 2093.3 335.415 2094.51 336.325 2095.39C337.247 2096.25 338.483 2096.68 340.035 2096.68ZM354.105 2111.32C352.927 2111.32 351.871 2111.06 350.938 2110.56C350.016 2110.06 349.287 2109.36 348.75 2108.46C348.213 2107.55 347.945 2106.5 347.945 2105.29C347.945 2104.13 348.213 2103.08 348.75 2102.16C349.287 2101.24 350.022 2100.51 350.955 2099.97C351.888 2099.44 352.95 2099.17 354.14 2099.17C355.318 2099.17 356.368 2099.44 357.29 2099.97C358.212 2100.51 358.935 2101.24 359.46 2102.16C359.997 2103.08 360.265 2104.13 360.265 2105.29C360.265 2106.5 359.997 2107.55 359.46 2108.46C358.935 2109.36 358.206 2110.06 357.273 2110.56C356.351 2111.06 355.295 2111.32 354.105 2111.32ZM354.105 2110.23C355.703 2110.23 356.946 2109.8 357.833 2108.93C358.731 2108.06 359.18 2106.85 359.18 2105.29C359.18 2104.29 358.976 2103.41 358.568 2102.65C358.171 2101.89 357.593 2101.3 356.835 2100.88C356.088 2100.46 355.19 2100.25 354.14 2100.25C352.565 2100.25 351.317 2100.72 350.395 2101.65C349.485 2102.58 349.03 2103.79 349.03 2105.29C349.03 2106.85 349.485 2108.06 350.395 2108.93C351.317 2109.8 352.553 2110.23 354.105 2110.23Z" fill="url(#paint6_linear_608_515)"/>
<path d="M325.046 334.284C325.046 333.988 325.046 333.704 325.046 333.432C325.046 333.16 325.046 332.86 325.046 332.532V330.336C325.046 330 325.046 329.673 325.046 329.356C325.046 329.038 325.046 328.729 325.046 328.428L325.706 328.348C325.706 328.67 325.706 328.994 325.706 329.32C325.706 329.642 325.706 329.981 325.706 330.336V332.532C325.706 332.86 325.706 333.16 325.706 333.432C325.706 333.704 325.706 333.988 325.706 334.284H325.046ZM328.869 334.372C328.395 334.372 328.004 334.281 327.697 334.1C327.391 333.918 327.163 333.67 327.013 333.356C326.864 333.041 326.789 332.681 326.789 332.276C326.789 331.876 326.863 331.521 327.009 331.212C327.156 330.902 327.367 330.661 327.641 330.488C327.916 330.312 328.244 330.224 328.625 330.224C328.961 330.224 329.249 330.289 329.489 330.42C329.732 330.55 329.919 330.742 330.049 330.996C330.18 331.246 330.245 331.557 330.245 331.928C330.245 332.026 330.243 332.116 330.237 332.196C330.235 332.273 330.227 332.352 330.213 332.432L329.633 332.14C329.639 332.097 329.641 332.057 329.641 332.02C329.644 331.98 329.645 331.941 329.645 331.904C329.645 331.528 329.552 331.242 329.365 331.048C329.179 330.85 328.935 330.752 328.633 330.752C328.391 330.752 328.181 330.814 328.005 330.94C327.832 331.062 327.697 331.233 327.601 331.452C327.505 331.67 327.457 331.92 327.457 332.2V332.292C327.457 332.601 327.511 332.868 327.617 333.092C327.724 333.316 327.885 333.489 328.101 333.612C328.32 333.732 328.597 333.792 328.933 333.792C329.059 333.792 329.191 333.782 329.329 333.764C329.471 333.742 329.609 333.71 329.745 333.668C329.884 333.625 330.016 333.569 330.141 333.5L330.169 334.096C330.068 334.152 329.951 334.201 329.817 334.244C329.684 334.284 329.537 334.314 329.377 334.336C329.217 334.36 329.048 334.372 328.869 334.372ZM327.065 332.432V331.96L329.809 331.936L330.213 332.088V332.432H327.065ZM332.416 334.372C332.251 334.372 332.084 334.358 331.916 334.332C331.751 334.305 331.595 334.27 331.448 334.228C331.302 334.182 331.174 334.132 331.064 334.076L331.116 333.456C331.239 333.525 331.37 333.586 331.508 333.64C331.65 333.69 331.795 333.73 331.944 333.76C332.096 333.786 332.248 333.8 332.4 333.8C332.547 333.8 332.682 333.784 332.804 333.752C332.93 333.717 333.028 333.656 333.1 333.568C333.175 333.477 333.212 333.346 333.212 333.176C333.212 333.064 333.18 332.972 333.116 332.9C333.052 332.828 332.944 332.762 332.792 332.704C332.643 332.645 332.44 332.58 332.184 332.508C331.974 332.449 331.786 332.377 331.62 332.292C331.455 332.206 331.324 332.092 331.228 331.948C331.135 331.804 331.088 331.616 331.088 331.384C331.088 331.024 331.206 330.741 331.44 330.536C331.678 330.328 331.996 330.224 332.396 330.224C332.562 330.224 332.722 330.238 332.876 330.268C333.031 330.294 333.174 330.33 333.304 330.376C333.435 330.421 333.548 330.469 333.644 330.52L333.588 331.14C333.46 331.06 333.328 330.994 333.192 330.944C333.056 330.89 332.926 330.853 332.8 330.832C332.675 330.808 332.564 330.796 332.468 330.796C332.359 330.796 332.25 330.812 332.14 330.844C332.034 330.873 331.944 330.929 331.872 331.012C331.8 331.092 331.764 331.208 331.764 331.36C331.764 331.469 331.79 331.561 331.84 331.636C331.891 331.71 331.979 331.777 332.104 331.836C332.23 331.894 332.403 331.956 332.624 332.02C332.888 332.097 333.114 332.178 333.3 332.264C333.49 332.346 333.635 332.456 333.736 332.592C333.838 332.728 333.888 332.916 333.888 333.156C333.888 333.388 333.838 333.596 333.736 333.78C333.635 333.961 333.476 334.105 333.26 334.212C333.044 334.318 332.763 334.372 332.416 334.372ZM336.049 334.372C335.884 334.372 335.717 334.358 335.549 334.332C335.384 334.305 335.228 334.27 335.081 334.228C334.934 334.182 334.806 334.132 334.697 334.076L334.749 333.456C334.872 333.525 335.002 333.586 335.141 333.64C335.282 333.69 335.428 333.73 335.577 333.76C335.729 333.786 335.881 333.8 336.033 333.8C336.18 333.8 336.314 333.784 336.437 333.752C336.562 333.717 336.661 333.656 336.733 333.568C336.808 333.477 336.845 333.346 336.845 333.176C336.845 333.064 336.813 332.972 336.749 332.9C336.685 332.828 336.577 332.762 336.425 332.704C336.276 332.645 336.073 332.58 335.817 332.508C335.606 332.449 335.418 332.377 335.253 332.292C335.088 332.206 334.957 332.092 334.861 331.948C334.768 331.804 334.721 331.616 334.721 331.384C334.721 331.024 334.838 330.741 335.073 330.536C335.31 330.328 335.629 330.224 336.029 330.224C336.194 330.224 336.354 330.238 336.509 330.268C336.664 330.294 336.806 330.33 336.937 330.376C337.068 330.421 337.181 330.469 337.277 330.52L337.221 331.14C337.093 331.06 336.961 330.994 336.825 330.944C336.689 330.89 336.558 330.853 336.433 330.832C336.308 330.808 336.197 330.796 336.101 330.796C335.992 330.796 335.882 330.812 335.773 330.844C335.666 330.873 335.577 330.929 335.505 331.012C335.433 331.092 335.397 331.208 335.397 331.36C335.397 331.469 335.422 331.561 335.473 331.636C335.524 331.71 335.612 331.777 335.737 331.836C335.862 331.894 336.036 331.956 336.257 332.02C336.521 332.097 336.746 332.178 336.933 332.264C337.122 332.346 337.268 332.456 337.369 332.592C337.47 332.728 337.521 332.916 337.521 333.156C337.521 333.388 337.47 333.596 337.369 333.78C337.268 333.961 337.109 334.105 336.893 334.212C336.677 334.318 336.396 334.372 336.049 334.372ZM343.044 334.372C342.665 334.372 342.351 334.276 342.1 334.084C341.849 333.889 341.661 333.634 341.536 333.32C341.411 333.002 341.348 332.658 341.348 332.288C341.348 331.893 341.415 331.54 341.548 331.228C341.681 330.916 341.875 330.67 342.128 330.492C342.384 330.31 342.693 330.22 343.056 330.22C343.24 330.22 343.408 330.245 343.56 330.296C343.715 330.344 343.851 330.409 343.968 330.492C344.085 330.572 344.183 330.661 344.26 330.76H344.328V330.336C344.328 330 344.328 329.674 344.328 329.36C344.328 329.042 344.328 328.732 344.328 328.428L344.988 328.348C344.988 328.67 344.988 328.994 344.988 329.32C344.988 329.642 344.988 329.981 344.988 330.336V332.532C344.988 332.86 344.988 333.16 344.988 333.432C344.988 333.704 344.988 333.988 344.988 334.284H344.412L344.38 333.74H344.316C344.212 333.876 344.096 333.99 343.968 334.084C343.84 334.177 343.699 334.248 343.544 334.296C343.392 334.346 343.225 334.372 343.044 334.372ZM343.244 333.78C343.409 333.78 343.559 333.754 343.692 333.704C343.825 333.65 343.944 333.576 344.048 333.48C344.155 333.384 344.248 333.268 344.328 333.132V331.368C344.245 331.248 344.147 331.148 344.032 331.068C343.92 330.985 343.797 330.924 343.664 330.884C343.531 330.841 343.395 330.82 343.256 330.82C342.976 330.82 342.745 330.886 342.564 331.02C342.383 331.153 342.247 331.332 342.156 331.556C342.068 331.777 342.024 332.022 342.024 332.292C342.024 332.55 342.067 332.793 342.152 333.02C342.237 333.244 342.369 333.426 342.548 333.568C342.727 333.709 342.959 333.78 343.244 333.78ZM347.965 334.372C347.637 334.372 347.348 334.316 347.097 334.204C346.849 334.089 346.641 333.934 346.473 333.74C346.305 333.545 346.177 333.322 346.089 333.072C346.004 332.818 345.961 332.553 345.961 332.276C345.961 331.878 346.041 331.526 346.201 331.22C346.364 330.91 346.593 330.666 346.889 330.488C347.188 330.309 347.543 330.22 347.953 330.22C348.271 330.22 348.552 330.272 348.797 330.376C349.043 330.48 349.251 330.625 349.421 330.812C349.592 330.998 349.721 331.217 349.809 331.468C349.897 331.716 349.941 331.985 349.941 332.276C349.941 332.668 349.861 333.022 349.701 333.34C349.541 333.657 349.313 333.909 349.017 334.096C348.724 334.28 348.373 334.372 347.965 334.372ZM347.965 333.796C348.256 333.796 348.497 333.724 348.689 333.58C348.881 333.436 349.025 333.248 349.121 333.016C349.217 332.784 349.265 332.537 349.265 332.276C349.265 331.977 349.212 331.717 349.105 331.496C348.999 331.274 348.848 331.102 348.653 330.98C348.459 330.857 348.228 330.796 347.961 330.796C347.673 330.796 347.431 330.861 347.233 330.992C347.036 331.122 346.887 331.3 346.785 331.524C346.687 331.748 346.637 331.998 346.637 332.276C346.637 332.537 346.685 332.784 346.781 333.016C346.88 333.248 347.028 333.436 347.225 333.58C347.423 333.724 347.669 333.796 347.965 333.796ZM351.698 334.284C351.618 334.033 351.537 333.784 351.454 333.536C351.371 333.285 351.287 333.03 351.202 332.772L350.974 332.068C350.878 331.774 350.782 331.484 350.686 331.196C350.593 330.905 350.498 330.612 350.402 330.316L351.098 330.288C351.197 330.613 351.299 330.956 351.406 331.316C351.515 331.673 351.619 332.017 351.718 332.348L352.086 333.576H352.15L352.51 332.32C352.606 331.986 352.702 331.654 352.798 331.324C352.894 330.99 352.991 330.654 353.09 330.316H353.73C353.826 330.638 353.923 330.969 354.022 331.308C354.121 331.644 354.218 331.976 354.314 332.304L354.686 333.576H354.75L355.126 332.288C355.219 331.965 355.317 331.629 355.418 331.28C355.522 330.928 355.617 330.606 355.702 330.316H356.406C356.313 330.606 356.218 330.898 356.122 331.192C356.029 331.485 355.935 331.777 355.842 332.068L355.618 332.764C355.533 333.022 355.449 333.28 355.366 333.536C355.283 333.789 355.202 334.038 355.122 334.284H354.342C354.249 333.977 354.153 333.66 354.054 333.332C353.955 333.001 353.859 332.688 353.766 332.392L353.418 331.236H353.35L353.006 332.404C352.918 332.7 352.826 333.01 352.73 333.336C352.634 333.661 352.539 333.977 352.446 334.284H351.698ZM357.296 334.284C357.296 333.988 357.296 333.704 357.296 333.432C357.296 333.16 357.296 332.86 357.296 332.532V332.132C357.296 331.838 357.296 331.538 357.296 331.232C357.296 330.925 357.296 330.62 357.296 330.316L357.872 330.276L357.892 331.012H357.964C358.05 330.892 358.159 330.77 358.292 330.648C358.426 330.525 358.583 330.424 358.764 330.344C358.946 330.261 359.154 330.22 359.388 330.22C359.81 330.22 360.118 330.341 360.312 330.584C360.507 330.826 360.604 331.178 360.604 331.64C360.604 331.813 360.604 331.966 360.604 332.1C360.604 332.233 360.604 332.377 360.604 332.532C360.604 332.846 360.604 333.144 360.604 333.424C360.604 333.701 360.604 333.988 360.604 334.284H359.944C359.944 333.988 359.944 333.702 359.944 333.428C359.944 333.15 359.944 332.861 359.944 332.56V331.808C359.944 331.49 359.887 331.25 359.772 331.088C359.66 330.925 359.456 330.844 359.16 330.844C358.982 330.844 358.819 330.88 358.672 330.952C358.526 331.024 358.392 331.121 358.272 331.244C358.155 331.364 358.05 331.497 357.956 331.644V332.56C357.956 332.872 357.956 333.164 357.956 333.436C357.956 333.705 357.956 333.988 357.956 334.284H357.296ZM363.386 334.372C363.122 334.372 362.898 334.326 362.714 334.236C362.53 334.142 362.39 334.002 362.294 333.816C362.201 333.626 362.154 333.385 362.154 333.092C362.154 332.86 362.154 332.63 362.154 332.404C362.154 332.174 362.154 331.95 362.154 331.732C362.154 331.51 362.154 331.298 362.154 331.096C362.154 330.89 362.154 330.694 362.154 330.508C362.154 330.236 362.154 329.984 362.154 329.752C362.154 329.52 362.154 329.278 362.154 329.028L362.806 328.884C362.806 329.081 362.806 329.264 362.806 329.432C362.806 329.6 362.806 329.769 362.806 329.94C362.806 330.11 362.806 330.3 362.806 330.508V332.936C362.806 333.221 362.866 333.436 362.986 333.58C363.109 333.724 363.295 333.796 363.546 333.796C363.645 333.796 363.753 333.78 363.87 333.748C363.987 333.713 364.091 333.66 364.182 333.588L364.238 334.168C364.185 334.208 364.113 334.244 364.022 334.276C363.931 334.305 363.831 334.328 363.722 334.344C363.613 334.362 363.501 334.372 363.386 334.372ZM361.39 330.84V330.316H364.198V330.84C363.931 330.84 363.662 330.84 363.39 330.84C363.121 330.84 362.858 330.84 362.602 330.84H362.33H361.39ZM365.171 334.284C365.171 333.988 365.171 333.704 365.171 333.432C365.171 333.16 365.171 332.86 365.171 332.532V332.132C365.171 331.894 365.171 331.676 365.171 331.476C365.171 331.273 365.171 331.078 365.171 330.892C365.171 330.702 365.171 330.51 365.171 330.316L365.835 330.292C365.835 330.489 365.835 330.684 365.835 330.876C365.835 331.065 365.835 331.262 365.835 331.468C365.835 331.67 365.835 331.892 365.835 332.132V332.532C365.835 332.86 365.835 333.16 365.835 333.432C365.835 333.704 365.835 333.988 365.835 334.284H365.171ZM365.491 329.4C365.347 329.4 365.23 329.36 365.139 329.28C365.049 329.2 365.003 329.077 365.003 328.912C365.003 328.749 365.049 328.628 365.139 328.548C365.23 328.465 365.35 328.424 365.499 328.424C365.646 328.424 365.763 328.466 365.851 328.552C365.939 328.634 365.983 328.754 365.983 328.912C365.983 329.077 365.939 329.2 365.851 329.28C365.763 329.36 365.643 329.4 365.491 329.4ZM367.218 334.284C367.218 333.988 367.218 333.704 367.218 333.432C367.218 333.16 367.218 332.86 367.218 332.532V332.132C367.218 331.838 367.218 331.538 367.218 331.232C367.218 330.925 367.218 330.62 367.218 330.316L367.794 330.276L367.814 331.004H367.886C367.969 330.886 368.073 330.768 368.198 330.648C368.326 330.525 368.477 330.424 368.65 330.344C368.823 330.261 369.022 330.22 369.246 330.22C369.571 330.22 369.821 330.301 369.994 330.464C370.17 330.624 370.285 330.854 370.338 331.156L370.378 331.18C370.389 331.252 370.397 331.326 370.402 331.404C370.41 331.478 370.414 331.557 370.414 331.64C370.414 331.813 370.414 331.966 370.414 332.1C370.414 332.233 370.414 332.377 370.414 332.532C370.414 332.846 370.414 333.144 370.414 333.424C370.414 333.701 370.414 333.988 370.414 334.284H369.754C369.754 333.988 369.754 333.702 369.754 333.428C369.754 333.15 369.754 332.861 369.754 332.56V331.808C369.754 331.49 369.701 331.25 369.594 331.088C369.487 330.925 369.294 330.844 369.014 330.844C368.843 330.844 368.689 330.881 368.55 330.956C368.414 331.028 368.29 331.125 368.178 331.248C368.069 331.368 367.969 331.5 367.878 331.644V332.56C367.878 332.872 367.878 333.164 367.878 333.436C367.878 333.705 367.878 333.988 367.878 334.284H367.218ZM372.258 334.284C372.258 333.988 372.258 333.702 372.258 333.428C372.258 333.15 372.258 332.861 372.258 332.56V331.808C372.258 331.49 372.205 331.25 372.098 331.088C371.991 330.925 371.798 330.844 371.518 330.844C371.35 330.844 371.197 330.88 371.058 330.952C370.922 331.024 370.797 331.121 370.682 331.244C370.57 331.364 370.47 331.497 370.382 331.644L370.286 331.02H370.358C370.449 330.897 370.559 330.774 370.69 330.652C370.823 330.526 370.978 330.424 371.154 330.344C371.33 330.261 371.53 330.22 371.754 330.22C372.17 330.22 372.467 330.344 372.646 330.592C372.827 330.84 372.918 331.189 372.918 331.64C372.918 331.813 372.918 331.966 372.918 332.1C372.918 332.233 372.918 332.377 372.918 332.532C372.918 332.846 372.918 333.144 372.918 333.424C372.918 333.701 372.918 333.988 372.918 334.284H372.258ZM375.987 334.372C375.512 334.372 375.121 334.281 374.815 334.1C374.508 333.918 374.28 333.67 374.131 333.356C373.981 333.041 373.907 332.681 373.907 332.276C373.907 331.876 373.98 331.521 374.127 331.212C374.273 330.902 374.484 330.661 374.759 330.488C375.033 330.312 375.361 330.224 375.743 330.224C376.079 330.224 376.367 330.289 376.607 330.42C376.849 330.55 377.036 330.742 377.167 330.996C377.297 331.246 377.363 331.557 377.363 331.928C377.363 332.026 377.36 332.116 377.355 332.196C377.352 332.273 377.344 332.352 377.331 332.432L376.751 332.14C376.756 332.097 376.759 332.057 376.759 332.02C376.761 331.98 376.763 331.941 376.763 331.904C376.763 331.528 376.669 331.242 376.483 331.048C376.296 330.85 376.052 330.752 375.751 330.752C375.508 330.752 375.299 330.814 375.123 330.94C374.949 331.062 374.815 331.233 374.719 331.452C374.623 331.67 374.575 331.92 374.575 332.2V332.292C374.575 332.601 374.628 332.868 374.735 333.092C374.841 333.316 375.003 333.489 375.219 333.612C375.437 333.732 375.715 333.792 376.051 333.792C376.176 333.792 376.308 333.782 376.447 333.764C376.588 333.742 376.727 333.71 376.863 333.668C377.001 333.625 377.133 333.569 377.259 333.5L377.287 334.096C377.185 334.152 377.068 334.201 376.935 334.244C376.801 334.284 376.655 334.314 376.495 334.336C376.335 334.36 376.165 334.372 375.987 334.372ZM374.183 332.432V331.96L376.927 331.936L377.331 332.088V332.432H374.183Z" fill="url(#paint7_linear_608_515)"/>
<path d="M325.666 324.315C323.788 324.315 322.23 324 320.994 323.37C319.757 322.74 318.83 321.894 318.211 320.832C317.605 319.771 317.301 318.598 317.301 317.315C317.301 315.973 317.581 314.865 318.141 313.99C318.701 313.103 319.372 312.421 320.154 311.942C320.947 311.464 321.676 311.155 322.341 311.015V310.805C321.665 310.607 321.011 310.268 320.381 309.79C319.751 309.3 319.232 308.687 318.824 307.952C318.415 307.217 318.211 306.372 318.211 305.415C318.211 304.26 318.52 303.251 319.139 302.387C319.769 301.524 320.644 300.853 321.764 300.375C322.884 299.885 324.185 299.64 325.666 299.64C327.148 299.64 328.449 299.885 329.569 300.375C330.689 300.853 331.558 301.524 332.176 302.387C332.806 303.251 333.121 304.26 333.121 305.415C333.121 306.372 332.917 307.217 332.509 307.952C332.1 308.687 331.575 309.3 330.934 309.79C330.304 310.268 329.645 310.607 328.956 310.805V311.015C329.633 311.155 330.362 311.464 331.144 311.942C331.937 312.421 332.614 313.103 333.174 313.99C333.745 314.865 334.031 315.973 334.031 317.315C334.031 318.598 333.722 319.771 333.104 320.832C332.497 321.894 331.575 322.74 330.339 323.37C329.102 324 327.545 324.315 325.666 324.315ZM325.666 323.195C327.381 323.195 328.775 322.938 329.849 322.425C330.922 321.912 331.704 321.212 332.194 320.325C332.695 319.438 332.946 318.435 332.946 317.315C332.946 315.985 332.62 314.888 331.966 314.025C331.325 313.162 330.45 312.52 329.341 312.1C328.245 311.68 327.02 311.47 325.666 311.47C324.313 311.47 323.082 311.68 321.974 312.1C320.877 312.52 320.002 313.162 319.349 314.025C318.707 314.888 318.386 315.985 318.386 317.315C318.386 318.435 318.637 319.438 319.139 320.325C319.64 321.212 320.422 321.912 321.484 322.425C322.557 322.938 323.951 323.195 325.666 323.195ZM325.666 310.42C327.696 310.42 329.265 309.947 330.374 309.002C331.482 308.057 332.036 306.85 332.036 305.38C332.036 303.887 331.453 302.743 330.286 301.95C329.131 301.157 327.591 300.76 325.666 300.76C323.73 300.76 322.184 301.157 321.029 301.95C319.874 302.743 319.296 303.887 319.296 305.38C319.296 306.36 319.541 307.229 320.031 307.987C320.533 308.746 321.256 309.341 322.201 309.772C323.146 310.204 324.301 310.42 325.666 310.42ZM347.459 324.315C345.943 324.315 344.613 324.018 343.469 323.423C342.338 322.816 341.393 321.964 340.634 320.867C339.888 319.759 339.328 318.452 338.954 316.947C338.581 315.431 338.394 313.768 338.394 311.96C338.394 309.463 338.744 307.293 339.444 305.45C340.156 303.607 341.183 302.177 342.524 301.162C343.866 300.147 345.488 299.64 347.389 299.64C348.848 299.64 350.131 299.932 351.239 300.515C352.348 301.098 353.281 301.932 354.039 303.017C354.809 304.102 355.387 305.403 355.772 306.92C356.157 308.425 356.349 310.105 356.349 311.96C356.349 314.503 355.993 316.702 355.282 318.557C354.582 320.401 353.567 321.824 352.237 322.827C350.918 323.819 349.326 324.315 347.459 324.315ZM347.389 323.195C349.256 323.195 350.761 322.705 351.904 321.725C353.059 320.733 353.899 319.392 354.424 317.7C354.961 316.008 355.229 314.095 355.229 311.96C355.229 309.685 354.949 307.713 354.389 306.045C353.829 304.365 352.966 303.064 351.799 302.142C350.644 301.221 349.174 300.76 347.389 300.76C345.558 300.76 344.058 301.25 342.892 302.23C341.737 303.198 340.885 304.528 340.337 306.22C339.788 307.9 339.514 309.813 339.514 311.96C339.514 314.13 339.783 316.061 340.319 317.752C340.856 319.444 341.702 320.774 342.857 321.742C344.012 322.711 345.523 323.195 347.389 323.195ZM365.609 324C366.333 322.717 367.039 321.457 367.727 320.22C368.415 318.983 369.203 317.572 370.089 315.985L374.954 307.305C375.573 306.197 376.133 305.187 376.634 304.277C377.148 303.367 377.638 302.492 378.104 301.652C378.583 300.812 379.073 299.943 379.574 299.045H380.764C380.263 299.943 379.773 300.812 379.294 301.652C378.828 302.492 378.338 303.367 377.824 304.277C377.323 305.187 376.763 306.197 376.144 307.305L371.279 315.985C370.393 317.572 369.605 318.983 368.917 320.22C368.229 321.457 367.523 322.717 366.799 324H365.609ZM366.169 310.77C364.991 310.77 363.935 310.519 363.002 310.017C362.08 309.516 361.351 308.816 360.814 307.917C360.278 307.007 360.009 305.952 360.009 304.75C360.009 303.583 360.278 302.539 360.814 301.617C361.351 300.696 362.086 299.967 363.019 299.43C363.953 298.893 365.014 298.625 366.204 298.625C367.383 298.625 368.433 298.893 369.354 299.43C370.276 299.967 370.999 300.696 371.524 301.617C372.061 302.539 372.329 303.583 372.329 304.75C372.329 305.952 372.061 307.007 371.524 307.917C370.999 308.816 370.27 309.516 369.337 310.017C368.415 310.519 367.359 310.77 366.169 310.77ZM366.169 309.685C367.768 309.685 369.01 309.253 369.897 308.39C370.795 307.515 371.244 306.302 371.244 304.75C371.244 303.747 371.04 302.866 370.632 302.107C370.235 301.349 369.658 300.76 368.899 300.34C368.153 299.92 367.254 299.71 366.204 299.71C364.629 299.71 363.381 300.177 362.459 301.11C361.549 302.032 361.094 303.245 361.094 304.75C361.094 306.302 361.549 307.515 362.459 308.39C363.381 309.253 364.618 309.685 366.169 309.685ZM380.239 324.315C379.061 324.315 378.005 324.064 377.072 323.562C376.15 323.061 375.421 322.361 374.884 321.462C374.348 320.552 374.079 319.497 374.079 318.295C374.079 317.128 374.348 316.084 374.884 315.163C375.421 314.241 376.156 313.512 377.089 312.975C378.023 312.438 379.084 312.17 380.274 312.17C381.453 312.17 382.503 312.438 383.424 312.975C384.346 313.512 385.069 314.241 385.594 315.163C386.131 316.084 386.399 317.128 386.399 318.295C386.399 319.497 386.131 320.552 385.594 321.462C385.069 322.361 384.34 323.061 383.407 323.562C382.485 324.064 381.429 324.315 380.239 324.315ZM380.239 323.23C381.838 323.23 383.08 322.798 383.967 321.935C384.865 321.06 385.314 319.847 385.314 318.295C385.314 317.292 385.11 316.411 384.702 315.652C384.305 314.894 383.728 314.305 382.969 313.885C382.223 313.465 381.324 313.255 380.274 313.255C378.699 313.255 377.451 313.722 376.529 314.655C375.619 315.577 375.164 316.79 375.164 318.295C375.164 319.847 375.619 321.06 376.529 321.935C377.451 322.798 378.688 323.23 380.239 323.23Z" fill="url(#paint8_linear_608_515)"/>
<path d="M373.301 6V301C373.301 314.807 362.108 326 348.301 326H2.5" stroke="#FFC014" stroke-width="0.608342"/>
<defs>
<linearGradient id="paint0_linear_608_515" x1="215.593" y1="444.66" x2="215.593" y2="2316.67" gradientUnits="userSpaceOnUse">
<stop stop-color="#FFC014"/>
<stop offset="1" stop-color="#F76700"/>
</linearGradient>
<linearGradient id="paint1_linear_608_515" x1="8.69254" y1="567.188" x2="0.907416" y2="567.517" gradientUnits="userSpaceOnUse">
<stop stop-color="#FFC014"/>
<stop offset="1" stop-color="#F87303"/>
</linearGradient>
<linearGradient id="paint2_linear_608_515" x1="39.6639" y1="566.543" x2="6.77632" y2="571.16" gradientUnits="userSpaceOnUse">
<stop stop-color="#FFC014"/>
<stop offset="1" stop-color="#F87303"/>
</linearGradient>
<linearGradient id="paint3_linear_608_515" x1="184.696" y1="1207.86" x2="188.371" y2="1214.72" gradientUnits="userSpaceOnUse">
<stop stop-color="#FFC014"/>
<stop offset="1" stop-color="#F87303"/>
</linearGradient>
<linearGradient id="paint4_linear_608_515" x1="171.519" y1="1179.82" x2="188.518" y2="1208.5" gradientUnits="userSpaceOnUse">
<stop stop-color="#FFC014"/>
<stop offset="1" stop-color="#F87303"/>
</linearGradient>
<linearGradient id="paint5_linear_608_515" x1="317.584" y1="2115.5" x2="317.839" y2="2123.29" gradientUnits="userSpaceOnUse">
<stop stop-color="#FFC014"/>
<stop offset="1" stop-color="#F87303"/>
</linearGradient>
<linearGradient id="paint6_linear_608_515" x1="317.39" y1="2084.53" x2="320.883" y2="2117.7" gradientUnits="userSpaceOnUse">
<stop stop-color="#FFC014"/>
<stop offset="1" stop-color="#F87303"/>
</linearGradient>
<linearGradient id="paint7_linear_608_515" x1="350.668" y1="328.5" x2="350.978" y2="336.286" gradientUnits="userSpaceOnUse">
<stop stop-color="#FFC014"/>
<stop offset="1" stop-color="#F87303"/>
</linearGradient>
<linearGradient id="paint8_linear_608_515" x1="350.994" y1="297.528" x2="355.184" y2="330.532" gradientUnits="userSpaceOnUse">
<stop stop-color="#FFC014"/>
<stop offset="1" stop-color="#F87303"/>
</linearGradient>
</defs>
</svg>
