<svg width="84" height="76" viewBox="0 0 84 76" fill="none" xmlns="http://www.w3.org/2000/svg">
<path d="M37.2797 41.8995C37.6275 45.4424 37.8207 47.2532 34.9998 50.2844C32.0628 53.4337 24.7206 59.2204 17.2238 63.6294C14.055 65.519 9.76557 67.7628 6.51952 68.9438C4.12362 69.8492 2.11416 70.2035 1.10943 68.432C0.452491 67.2904 0.761639 66.2276 1.10943 65.3221C3.73719 58.1182 11.234 44.6157 16.1417 35.8765C16.6441 34.9711 17.1851 34.0657 17.6875 33.1209C25.2616 19.8546 35.2703 3.59656 37.2411 0.99842C37.5116 0.604762 38.0526 0.171739 38.5163 0.447299C38.9027 0.683494 38.9027 1.15588 38.8641 1.51018C38.8641 1.54954 38.7482 2.02193 38.6709 2.21876C35.4635 15.6425 35.8113 28.7907 37.2797 41.8995Z" fill="#FF0000"/>
<path d="M48.3318 46.0331C45.1631 44.5372 43.5014 43.7892 42.3421 39.7739C41.1441 35.6405 39.8689 26.2714 39.8689 17.4141C39.8689 13.7137 40.1008 8.83238 40.6804 5.36819C41.1441 2.77005 41.8397 0.801758 43.8492 0.801758C45.1631 0.801758 45.8973 1.62844 46.5156 2.37639C51.346 8.28126 58.9974 21.6656 64.0211 30.4048C64.5234 31.2709 65.0258 32.1763 65.5668 33.1211C73.0636 46.4267 81.8743 63.3934 83.1109 66.4245C83.3042 66.8576 83.4201 67.5268 82.9177 67.8417C82.5313 68.0385 82.1449 67.8023 81.8743 67.6055C81.8357 67.5662 81.4879 67.2119 81.372 67.0938C71.5565 57.5279 60.234 51.2687 48.3318 46.0331Z" fill="#FF0000"/>
<path d="M39.2893 53.6695C42.1489 51.6225 43.6174 50.5596 47.5976 51.5044C51.6938 52.5279 60.3113 56.1102 67.8468 60.5192C70.9769 62.3694 75.0345 65.0462 77.7009 67.2901C79.6331 68.9828 80.9856 70.5574 79.9809 72.3289C79.3239 73.4705 78.2805 73.7461 77.3145 73.9035C69.8563 75.2026 54.6307 75.2813 44.738 75.3601C43.7333 75.3601 42.6899 75.3601 41.6465 75.3601C26.5756 75.3207 7.75622 74.6121 4.54881 74.1791C4.08509 74.1397 3.4668 73.9035 3.4668 73.3131C3.4668 72.88 3.85323 72.6045 4.16238 72.4864C4.23967 72.4864 4.70339 72.3289 4.85796 72.2895C17.8808 68.4317 28.8942 61.582 39.2893 53.6695Z" fill="#FF0000"/>
</svg>
