<svg width="140" height="142" viewBox="0 0 140 142" fill="none" xmlns="http://www.w3.org/2000/svg">
<path d="M137.941 70.9498C137.941 108.833 107.51 139.521 69.9999 139.521C32.4897 139.521 2.05859 108.833 2.05859 70.9498C2.05859 33.0664 32.4897 2.37891 69.9999 2.37891C107.51 2.37891 137.941 33.0664 137.941 70.9498Z" fill="white" stroke="#1B3F92" stroke-width="3"/>
<path d="M47.0697 102.986H39.503C38.8488 102.986 38.2213 102.724 37.7587 102.257C37.296 101.79 37.0361 101.157 37.0361 100.497V84.2861C37.0361 83.6259 37.296 82.9928 37.7587 82.526C38.2213 82.0591 38.8488 81.7969 39.503 81.7969H47.0697C47.7239 81.7969 48.3514 82.0591 48.814 82.526C49.2767 82.9928 49.5366 83.6259 49.5366 84.2861V100.498C49.5363 101.158 49.2763 101.791 48.8137 102.258C48.3511 102.724 47.7238 102.986 47.0697 102.986Z" fill="#EDEFFC" stroke="#1B3F92" stroke-width="3" stroke-miterlimit="10"/>
<path d="M64.6937 102.986H57.127C56.4728 102.986 55.8453 102.724 55.3827 102.257C54.9201 101.79 54.6602 101.157 54.6602 100.497V63.0967C54.6602 62.4365 54.9201 61.8033 55.3827 61.3365C55.8453 60.8697 56.4728 60.6074 57.127 60.6074H64.6937C65.348 60.6074 65.9754 60.8697 66.4381 61.3365C66.9007 61.8033 67.1606 62.4365 67.1606 63.0967V100.498C67.1603 101.158 66.9003 101.791 66.4377 102.258C65.9751 102.724 65.3478 102.986 64.6937 102.986Z" fill="#EDEFFC" stroke="#1B3F92" stroke-width="3" stroke-miterlimit="10"/>
<path d="M82.3177 102.987H74.7511C74.0968 102.987 73.4693 102.725 73.0067 102.258C72.5441 101.791 72.2842 101.158 72.2842 100.498V69.3291C72.2842 68.6689 72.5441 68.0358 73.0067 67.5689C73.4693 67.1021 74.0968 66.8398 74.7511 66.8398H82.3177C82.6417 66.8398 82.9625 66.9042 83.2618 67.0293C83.5611 67.1544 83.833 67.3378 84.0621 67.5689C84.2912 67.8001 84.4729 68.0745 84.5968 68.3765C84.7208 68.6785 84.7846 69.0022 84.7846 69.3291V100.498C84.7844 101.158 84.5244 101.791 84.0618 102.258C83.5992 102.724 82.9719 102.987 82.3177 102.987Z" fill="#EDEFFC" stroke="#1B3F92" stroke-width="3" stroke-miterlimit="10"/>
<path d="M99.5883 102.986H92.7296C91.9814 102.986 91.2639 102.686 90.7349 102.153C90.2059 101.619 89.9087 100.895 89.9087 100.14V42.2644C89.9087 41.8906 89.9817 41.5205 90.1234 41.1751C90.2652 40.8298 90.473 40.516 90.7349 40.2517C90.9969 39.9874 91.3078 39.7777 91.6501 39.6346C91.9923 39.4916 92.3591 39.418 92.7296 39.418H99.5883C99.9587 39.418 100.326 39.4916 100.668 39.6346C101.01 39.7777 101.321 39.9874 101.583 40.2517C101.845 40.516 102.053 40.8298 102.194 41.1751C102.336 41.5205 102.409 41.8906 102.409 42.2644V100.141C102.409 100.896 102.112 101.619 101.583 102.153C101.054 102.687 100.336 102.986 99.5883 102.986Z" fill="#EDEFFC" stroke="#1B3F92" stroke-width="3" stroke-miterlimit="10"/>
<path d="M29.7241 99.9445C34.2049 100.191 38.3117 97.4845 41.2206 94.2708C44.1295 91.056 46.2384 87.252 49.2093 84.0887C52.1801 80.9255 56.4239 78.3514 60.8837 78.8287C68.1324 79.6046 72.0882 87.6213 78.9779 89.8785C84.1347 91.5676 89.8124 89.6787 94.6602 87.3166C99.508 84.9545 104.286 82.0364 109.72 81.5349" stroke="#F76701" stroke-width="3" stroke-miterlimit="10" stroke-linecap="round"/>
</svg>
