<svg width="152" height="152" viewBox="0 0 152 152" fill="none" xmlns="http://www.w3.org/2000/svg">
<path d="M149.54 75.9377C149.54 117.027 116.533 150.313 75.8464 150.313C35.1593 150.313 2.15283 117.027 2.15283 75.9377C2.15283 34.8486 35.1593 1.5625 75.8464 1.5625C116.533 1.5625 149.54 34.8486 149.54 75.9377Z" fill="white" stroke="#1B3F92" stroke-width="3"/>
<path d="M117.099 95.7624V110.377C117.099 110.377 108.32 106.716 106.658 106.719C104.995 106.723 102.922 108.17 102.922 108.17C102.922 108.17 84.9087 119.329 82.3505 119.784C79.7922 120.239 77.1535 120.152 73.0584 119.349C69.4131 118.634 57.7983 114.105 53.0308 112.234C52.2042 111.909 51.9946 110.844 52.6115 110.2C53.3771 109.4 54.2398 108.853 54.2398 108.853C54.2398 108.853 55.7193 108.112 57.0677 107.984C57.9525 107.9 59.5429 108.067 60.9199 108.36C59.7553 106.788 58.4106 104.876 57.9239 103.917C59.3536 102.849 60.4729 103.031 61.4039 103.481C62.3348 103.931 64.5736 105.837 65.4066 106.763C66.0171 107.442 67.3923 109.571 68.0822 110.66C69.0981 110.955 70.0854 111.226 70.8816 111.428C73.2376 112.026 77.4214 112.214 79.1789 111.327C80.7545 110.531 84.0886 107.056 84.8053 106.463C85.522 105.87 85.3068 105.347 84.7416 105.127C84.1773 104.906 81.8702 105.458 80.2844 105.639C79.0736 105.777 76.8968 105.913 75.1715 105.603C74.0993 105.41 71.6897 104.895 70.5278 103.784C69.3669 102.673 68.689 99.93 69.3891 98.6738C70.8289 98.8732 71.7765 99.1425 72.7462 99.3336C73.7151 99.5237 76.1625 99.6514 77.7058 99.0177C79.2491 98.3839 87.3968 94.289 89.9791 93.7708C92.5614 93.2527 100.956 91.1996 106.039 92.194C111.208 93.207 117.099 95.7624 117.099 95.7624Z" fill="#EDEFFC" stroke="#1B3F92" stroke-width="2" stroke-linejoin="round"/>
<path d="M45.8021 64.0476C50.8854 65.0429 59.2797 62.9889 61.862 62.4707C64.4443 61.9526 72.5912 57.8576 74.1354 57.2239C75.6786 56.5902 78.1261 56.7178 79.0949 56.908C80.0638 57.0981 81.0123 57.3674 82.4521 57.5678C83.1522 56.3115 82.4743 53.5688 81.3134 52.4579C80.1524 51.3471 77.7428 50.8308 76.6696 50.6388C74.9435 50.3284 72.7676 50.4654 71.5568 50.6024C69.971 50.7823 67.6639 51.3359 67.0996 51.115C66.5353 50.8941 66.3192 50.3713 67.0359 49.7786C67.7526 49.1859 71.0867 45.7107 72.6623 44.9148C74.4189 44.0276 78.6036 44.2158 80.9596 44.8132C81.7557 45.0145 82.743 45.2866 83.759 45.5821C84.4489 46.6696 85.8241 48.7991 86.4345 49.4785C87.2667 50.4049 89.5063 52.3107 90.4373 52.7608C91.3683 53.2109 92.4867 53.3927 93.9173 52.3247C93.4306 51.3657 92.0859 49.4543 90.9212 47.8812C92.2983 48.1747 93.8887 48.3415 94.7735 48.2577C96.1219 48.13 97.6014 47.3882 97.6014 47.3882C97.6014 47.3882 98.464 46.8411 99.2297 46.0415C99.8466 45.3975 99.637 44.3333 98.8104 44.008C94.0429 42.1367 82.4281 37.6074 78.7828 36.8926C74.6858 36.0902 72.0472 36.0035 69.4889 36.4583C66.9306 36.9131 48.9173 48.0713 48.9173 48.0713C48.9173 48.0713 46.8439 49.5177 45.1814 49.5223C43.519 49.527 34.7405 45.8644 34.7405 45.8644V60.4792C34.7405 60.4801 40.631 63.0355 45.8021 64.0476Z" fill="#EDEFFC" stroke="#1B3F92" stroke-width="2" stroke-linejoin="round"/>
<path d="M75.9197 66.4648C69.5508 66.4648 64.3687 71.693 64.3687 78.1207C64.3687 84.5473 69.5499 89.7765 75.9197 89.7765C82.2887 89.7765 87.4708 84.5473 87.4708 78.1207C87.4708 71.693 82.2887 66.4648 75.9197 66.4648Z" fill="#EDEFFC"/>
<path d="M75.9197 64.1797C68.2809 64.1797 62.0662 70.4507 62.0662 78.1588C62.0662 85.8669 68.2809 92.138 75.9197 92.138C83.5586 92.138 89.7733 85.8669 89.7733 78.1588C89.7733 70.4507 83.5586 64.1797 75.9197 64.1797ZM75.9197 89.8146C69.5508 89.8146 64.3686 84.5855 64.3686 78.1588C64.3686 71.7322 69.5498 66.503 75.9197 66.503C82.2887 66.503 87.4708 71.7312 87.4708 78.1588C87.4708 84.5855 82.2887 89.8146 75.9197 89.8146Z" fill="#1B3F92"/>
<path d="M77.0262 76.8436C75.3472 76.2061 74.6563 75.7877 74.6563 75.1297C74.6563 74.5715 75.071 74.0133 76.3548 74.0133C77.0604 74.0133 77.6385 74.126 78.1059 74.2668C78.7182 74.4513 79.3573 74.0683 79.5162 73.4429C79.5906 73.1455 79.545 72.8303 79.3893 72.5668C79.2336 72.3033 78.9806 72.1129 78.6859 72.0375C78.1037 71.8886 77.5073 71.8027 76.9071 71.7813V71.004C76.9071 70.8758 76.882 70.7488 76.8334 70.6303C76.7848 70.5118 76.7135 70.4041 76.6236 70.3134C76.5337 70.2227 76.427 70.1508 76.3096 70.1017C76.1921 70.0526 76.0663 70.0273 75.9392 70.0273C75.8121 70.0273 75.6862 70.0526 75.5688 70.1017C75.4513 70.1508 75.3446 70.2227 75.2548 70.3134C75.1649 70.4041 75.0936 70.5118 75.0449 70.6303C74.9963 70.7488 74.9713 70.8758 74.9713 71.004V71.9201C72.8581 72.3386 71.6326 73.7141 71.6326 75.468C71.6326 77.4009 73.0743 78.3981 75.1883 79.1157C76.6503 79.6142 77.282 80.0923 77.282 80.85C77.282 81.6477 76.5118 82.0858 75.386 82.0858C74.6586 82.0809 73.937 81.9559 73.2497 81.7158C72.6226 81.5005 71.9447 81.8481 71.7794 82.4958L71.7554 82.589C71.6827 82.8714 71.7191 83.1712 71.8571 83.4276C71.9952 83.684 72.2245 83.8779 72.4989 83.9701C73.2672 84.2182 74.0647 84.3621 74.8706 84.3979V85.3149C74.8706 85.8545 75.3038 86.2916 75.8385 86.2916H75.8394C76.3742 86.2916 76.8073 85.8545 76.8073 85.3149V84.2581C79.0784 83.8592 80.3234 82.3448 80.3234 80.5704C80.3243 78.7774 79.3758 77.6814 77.0262 76.8436Z" fill="#1B3F92"/>
</svg>
