<svg width="150" height="152" viewBox="0 0 150 152" fill="none" xmlns="http://www.w3.org/2000/svg">
<path d="M148.5 75.68C148.5 116.661 115.58 149.86 75 149.86C34.4198 149.86 1.5 116.661 1.5 75.68C1.5 34.6987 34.4198 1.5 75 1.5C115.58 1.5 148.5 34.6987 148.5 75.68Z" fill="white" stroke="#1B3F92" stroke-width="3"/>
<path d="M116.147 95.4537V110.031C116.147 110.031 107.391 106.379 105.733 106.382C104.075 106.386 102.006 107.83 102.006 107.83C102.006 107.83 84.0395 118.96 81.4878 119.414C78.9361 119.867 76.3043 119.781 72.2197 118.98C68.5838 118.267 56.9988 113.749 52.2436 111.882C51.4192 111.559 51.2101 110.497 51.8254 109.854C52.5891 109.057 53.4495 108.511 53.4495 108.511C53.4495 108.511 54.9252 107.771 56.2702 107.644C57.1527 107.56 58.739 107.726 60.1125 108.019C58.9508 106.451 57.6096 104.544 57.1241 103.587C58.5501 102.522 59.6666 102.703 60.5952 103.152C61.5237 103.601 63.7567 105.502 64.5876 106.426C65.1965 107.104 66.5682 109.227 67.2563 110.312C68.2696 110.607 69.2544 110.878 70.0485 111.079C72.3984 111.675 76.5714 111.863 78.3245 110.978C79.896 110.184 83.2215 106.718 83.9364 106.127C84.6512 105.536 84.4366 105.014 83.8728 104.794C83.3099 104.573 81.0088 105.125 79.4271 105.305C78.2194 105.443 76.0482 105.578 74.3274 105.269C73.2579 105.076 70.8545 104.562 69.6956 103.454C68.5377 102.346 67.8615 99.6106 68.5598 98.3576C69.996 98.5565 70.9411 98.8251 71.9083 99.0157C72.8747 99.2053 75.3158 99.3327 76.8552 98.7006C78.3945 98.0685 86.5212 93.9841 89.0969 93.4672C91.6725 92.9504 100.045 90.9026 105.116 91.8945C110.271 92.9049 116.147 95.4537 116.147 95.4537Z" fill="#EDEFFC" stroke="#1B3F92" stroke-width="2" stroke-linejoin="round"/>
<path d="M45.0336 63.8216C50.1039 64.8143 58.4766 62.7656 61.0522 62.2488C63.6279 61.732 71.7537 57.6475 73.294 57.0154C74.8333 56.3834 77.2745 56.5107 78.2408 56.7003C79.2071 56.89 80.1532 57.1586 81.5893 57.3584C82.2876 56.1054 81.6114 53.3698 80.4535 52.2618C79.2956 51.1537 76.8922 50.6388 75.8217 50.4473C74.1 50.1377 71.9297 50.2744 70.722 50.411C69.1403 50.5904 66.8392 51.1426 66.2763 50.9223C65.7135 50.702 65.4979 50.1805 66.2128 49.5893C66.9276 48.9981 70.2531 45.5319 71.8247 44.738C73.5768 43.8531 77.7507 44.0409 80.1007 44.6367C80.8947 44.8375 81.8795 45.1089 82.8928 45.4036C83.5809 46.4884 84.9526 48.6124 85.5615 49.29C86.3915 50.214 88.6254 52.1149 89.554 52.5639C90.4825 53.0128 91.5981 53.1941 93.025 52.1288C92.5395 51.1723 91.1983 49.2658 90.0367 47.6968C91.4102 47.9896 92.9965 48.156 93.879 48.0723C95.2239 47.9449 96.6997 47.205 96.6997 47.205C96.6997 47.205 97.56 46.6594 98.3237 45.8618C98.9391 45.2195 98.73 44.158 97.9055 43.8336C93.1503 41.967 81.5654 37.4495 77.9294 36.7365C73.843 35.9362 71.2112 35.8497 68.6595 36.3033C66.1078 36.7569 48.1408 47.8864 48.1408 47.8864C48.1408 47.8864 46.0727 49.329 44.4146 49.3337C42.7564 49.3383 34.0005 45.6852 34.0005 45.6852V60.2623C34.0005 60.2633 39.8759 62.8121 45.0336 63.8216Z" fill="#EDEFFC" stroke="#1B3F92" stroke-width="2" stroke-linejoin="round"/>
<path d="M75.0736 66.2324C68.7211 66.2324 63.5522 71.4472 63.5522 77.8582C63.5522 84.2684 68.7201 89.4841 75.0736 89.4841C81.4262 89.4841 86.595 84.2684 86.595 77.8582C86.595 71.4472 81.4262 66.2324 75.0736 66.2324Z" fill="#FFC014"/>
<path d="M75.0738 63.9531C67.4546 63.9531 61.2559 70.208 61.2559 77.8963C61.2559 85.5846 67.4546 91.8395 75.0738 91.8395C82.6929 91.8395 88.8916 85.5846 88.8916 77.8963C88.8916 70.208 82.6929 63.9531 75.0738 63.9531ZM75.0738 89.5221C68.7212 89.5221 63.5524 84.3064 63.5524 77.8963C63.5524 71.4862 68.7203 66.2705 75.0738 66.2705C81.4263 66.2705 86.5951 71.4852 86.5951 77.8963C86.5951 84.3064 81.4263 89.5221 75.0738 89.5221Z" fill="#1B3F92"/>
<path d="M76.1776 76.5838C74.5029 75.948 73.8138 75.5307 73.8138 74.8744C73.8138 74.3176 74.2275 73.7608 75.5079 73.7608C76.2117 73.7608 76.7884 73.8733 77.2545 74.0137C77.8652 74.1977 78.5027 73.8157 78.6612 73.1919C78.7354 72.8952 78.6899 72.5809 78.5346 72.3181C78.3793 72.0553 78.127 71.8654 77.833 71.7902C77.2523 71.6416 76.6575 71.5559 76.0588 71.5346V70.7593C76.0588 70.6314 76.0338 70.5047 75.9853 70.3865C75.9368 70.2683 75.8657 70.1609 75.776 70.0705C75.6864 69.98 75.5799 69.9083 75.4628 69.8593C75.3457 69.8104 75.2202 69.7852 75.0934 69.7852C74.9666 69.7852 74.8411 69.8104 74.7239 69.8593C74.6068 69.9083 74.5004 69.98 74.4107 70.0705C74.3211 70.1609 74.25 70.2683 74.2014 70.3865C74.1529 70.5047 74.128 70.6314 74.128 70.7593V71.6731C72.0203 72.0904 70.7979 73.4624 70.7979 75.2118C70.7979 77.1397 72.2358 78.1343 74.3444 78.8501C75.8027 79.3474 76.4328 79.8242 76.4328 80.58C76.4328 81.3756 75.6645 81.8125 74.5416 81.8125C73.8161 81.8077 73.0964 81.683 72.4109 81.4435C71.7854 81.2288 71.1092 81.5755 70.9443 82.2215L70.9204 82.3145C70.8479 82.5962 70.8842 82.8952 71.0218 83.1509C71.1595 83.4066 71.3883 83.6001 71.6619 83.6921C72.4282 83.9395 73.2238 84.083 74.0276 84.1187V85.0334C74.0276 85.5716 74.4596 86.0076 74.993 86.0076H74.9939C75.5273 86.0076 75.9593 85.5716 75.9593 85.0334V83.9793C78.2245 83.5815 79.4663 82.0709 79.4663 80.3011C79.4672 78.5127 78.5211 77.4195 76.1776 76.5838Z" fill="#1B3F92"/>
</svg>
