<svg width="54" height="23" viewBox="0 0 54 23" fill="none" xmlns="http://www.w3.org/2000/svg">
<path d="M0.695557 0.703766H4.99183C7.09 0.703766 7.93927 1.5628 7.93927 3.58404C7.93927 5.60529 7.04005 6.46432 4.99183 6.46432H2.59391V9.09194H0.695557V0.703766ZM4.84196 4.69573C5.69122 4.69573 6.04092 4.39254 6.04092 3.63457C6.04092 2.87661 5.69122 2.57342 4.84196 2.57342H2.59391V4.74626H4.84196V4.69573Z" fill="#1B3F92"/>
<path d="M9.23804 9.14247V0.703766H13.7341C15.8323 0.703766 16.6816 1.46173 16.6816 3.28085C16.6816 4.29148 16.3818 4.99891 15.7324 5.45369C16.2819 5.75688 16.5817 6.31272 16.5817 7.12122V9.193H14.6833V7.17175C14.6833 6.61591 14.3336 6.36326 13.5843 6.36326H11.1364V9.14247H9.23804ZM13.6342 4.54413C14.4835 4.54413 14.8332 4.24095 14.8332 3.48298C14.8332 2.77554 14.4835 2.47236 13.6342 2.47236H11.1364V4.4936H13.6342V4.54413Z" fill="#1B3F92"/>
<path d="M26.4231 4.9484C26.4231 7.98027 25.1242 9.29408 22.1268 9.29408C19.1294 9.29408 17.8306 7.98027 17.8306 4.9484C17.8306 1.91653 19.1794 0.602722 22.1768 0.602722C25.1742 0.602722 26.4231 1.91653 26.4231 4.9484ZM22.1768 7.47496C23.8254 7.47496 24.5747 6.71699 24.5747 4.9484C24.5747 3.17981 23.8753 2.42184 22.1768 2.42184C20.5282 2.42184 19.7789 3.17981 19.7789 4.9484C19.7789 6.71699 20.4783 7.47496 22.1768 7.47496Z" fill="#1B3F92"/>
<path d="M29.5206 6.51487C29.6704 7.17177 30.3199 7.47496 31.5688 7.47496C32.7178 7.47496 33.2673 7.2223 33.2673 6.76752C33.2673 6.31274 32.7178 6.06009 31.2191 5.80743C28.5214 5.30212 27.7221 4.64522 27.7221 3.17981C27.7221 1.41122 28.8711 0.602722 31.2691 0.602722C33.617 0.602722 34.766 1.36069 35.0158 3.3314H33.0175C32.8677 2.6745 32.3181 2.37131 31.1691 2.37131C30.1201 2.37131 29.6205 2.62397 29.6205 3.02822C29.6205 3.43247 30.0701 3.63459 31.5688 3.93778C34.2664 4.54415 35.1657 5.15053 35.1657 6.61593C35.1657 8.38452 33.9667 9.24355 31.4189 9.24355C28.9711 9.24355 27.822 8.43505 27.5723 6.51487H29.5206Z" fill="#1B3F92"/>
<path d="M40.7608 2.52289V9.14247H38.8125V2.52289H35.7651V0.703766H43.8082V2.52289H40.7608Z" fill="#1B3F92"/>
<path d="M53.0501 4.9484C53.0501 7.98027 51.7512 9.29408 48.7538 9.29408C45.7564 9.29408 44.4575 7.98027 44.4575 4.9484C44.4575 1.91653 45.7564 0.602722 48.7538 0.602722C51.7512 0.602722 53.0501 1.91653 53.0501 4.9484ZM48.7538 7.47496C50.4024 7.47496 51.1517 6.71699 51.1517 4.9484C51.1517 3.17981 50.4523 2.42184 48.7538 2.42184C47.1052 2.42184 46.3559 3.17981 46.3559 4.9484C46.4058 6.71699 47.1052 7.47496 48.7538 7.47496Z" fill="#1B3F92"/>
<path d="M0.695557 13.9429H4.99183C7.09 13.9429 7.93927 14.802 7.93927 16.8232C7.93927 18.8445 7.04005 19.7035 4.99183 19.7035H2.59391V22.3311H0.695557V13.9429ZM4.84196 17.9349C5.69122 17.9349 6.04092 17.6317 6.04092 16.8737C6.04092 16.1158 5.69122 15.8126 4.84196 15.8126H2.59391V17.9854H4.84196V17.9349Z" fill="#1B3F92"/>
<path d="M7.8894 22.3816L11.5862 13.9935H13.6844L17.3812 22.3816H15.3829L14.7834 20.9668H10.5371L9.93763 22.3816H7.8894ZM11.2865 19.1476H13.9841L12.6353 15.9642L11.2865 19.1476Z" fill="#1B3F92"/>
<path d="M16.2319 13.9429H18.48L20.778 17.4296L23.076 13.9429H25.324L21.7272 19.1982V22.3816H19.8288V19.1982L16.2319 13.9429Z" fill="#1B3F92"/>
<path d="M52.8503 10.709H0.695557V12.427H52.8503V10.709Z" fill="#1B3F92"/>
</svg>
