<svg width="108" height="109" viewBox="0 0 108 109" fill="none" xmlns="http://www.w3.org/2000/svg">
<path d="M105.974 54.14C105.974 83.2164 82.6186 106.764 53.8363 106.764C25.054 106.764 1.69824 83.2164 1.69824 54.14C1.69824 25.0636 25.054 1.51562 53.8363 1.51562C82.6186 1.51562 105.974 25.0636 105.974 54.14Z" fill="white" stroke="#1B3F92" stroke-width="3"/>
<path d="M80.9677 24.0713H62.2965C60.7694 24.065 59.2888 24.5996 58.1136 25.5814C56.9385 26.5633 56.1437 27.9299 55.8683 29.4421L53.4144 43.0033C53.2448 43.9482 53.2835 44.919 53.5278 45.8471C53.7721 46.7751 54.2159 47.6379 54.828 48.3741C55.4435 49.1108 56.2108 49.7037 57.0768 50.1118C57.9427 50.5198 58.8865 50.7333 59.8426 50.7373H67.6312L66.9643 52.5096C66.472 53.8238 66.301 55.2379 66.4658 56.6326C66.6305 58.0273 67.1261 59.3616 67.9108 60.5229C68.6955 61.6842 69.7462 62.6383 70.9741 63.3048C72.2021 63.9713 73.5714 64.3305 74.9663 64.3522C75.4839 64.3563 75.9915 64.2087 76.4272 63.9274C76.863 63.646 77.208 63.2431 77.4202 62.7678L83.395 49.1797C83.531 48.8837 83.6124 48.5652 83.635 48.2398V26.7567C83.635 26.0445 83.354 25.3615 82.8538 24.8579C82.3536 24.3543 81.6751 24.0713 80.9677 24.0713ZM78.3004 47.5148L73.4192 58.6055C72.9428 58.3445 72.5322 57.977 72.2189 57.5313C71.905 57.0839 71.7066 56.565 71.6414 56.0213C71.5762 55.4775 71.6463 54.9259 71.8455 54.4162L72.8591 51.7309C73.1257 51.0344 73.2166 50.2822 73.1235 49.5417C73.0304 48.8012 72.7562 48.0955 72.3256 47.4879C71.9016 46.8827 71.3376 46.3904 70.6824 46.0535C70.0272 45.7167 69.3004 45.5454 68.5647 45.5545H59.7892C59.612 45.555 59.4368 45.5168 59.2757 45.4426C59.1145 45.3685 58.9712 45.26 58.8557 45.1248C58.6486 44.8384 58.5623 44.4813 58.6156 44.1312L61.0696 30.7043C61.0581 30.5378 61.0817 30.3708 61.1389 30.2143C61.1962 30.0577 61.2857 29.9151 61.4016 29.7959C61.5175 29.6766 61.6572 29.5835 61.8114 29.5225C61.9657 29.4615 62.131 29.4341 62.2965 29.4421H78.3004V47.5148ZM48.7999 56.4303H41.0914L41.7582 54.6579C42.2434 53.3361 42.4044 51.9159 42.2277 50.518C42.0509 49.12 41.5416 47.7857 40.743 46.6284C39.9443 45.4711 38.88 44.525 37.6404 43.8705C36.4008 43.216 35.0226 42.8725 33.6229 42.8691C33.1053 42.865 32.5976 43.0126 32.1619 43.2939C31.7262 43.5752 31.3812 43.9781 31.1689 44.4535L25.1942 58.0415C25.0413 58.379 24.9596 58.7448 24.9541 59.1157V80.5988C24.9541 81.311 25.2351 81.994 25.7353 82.4977C26.2356 83.0013 26.914 83.2842 27.6214 83.2842H46.2926C47.8197 83.2905 49.3004 82.756 50.4755 81.7741C51.6507 80.7923 52.4455 79.4257 52.7209 77.9134L55.1748 64.4865C55.3444 63.5416 55.3057 62.5708 55.0614 61.6427C54.8171 60.7146 54.3732 59.8519 53.7611 59.1157C53.1827 58.3267 52.4378 57.6766 51.5799 57.2123C50.7221 56.7479 49.7726 56.4809 48.7999 56.4303ZM47.5196 76.7855C47.4738 77.0748 47.3229 77.3367 47.0962 77.5202C46.8695 77.7038 46.5831 77.7961 46.2926 77.7791H30.2887V59.7065L35.1699 48.6158C35.6463 48.8768 36.0569 49.2442 36.3702 49.69C36.6841 50.1373 36.8826 50.6562 36.9478 51.2C37.013 51.7438 36.9428 52.2953 36.7436 52.805L35.7301 55.4904C35.4634 56.1869 35.3726 56.939 35.4657 57.6795C35.5588 58.42 35.8329 59.1257 36.2635 59.7333C36.6816 60.3485 37.243 60.8513 37.8986 61.1977C38.5542 61.5441 39.284 61.7236 40.0244 61.7205H48.7999C48.9771 61.72 49.1523 61.7582 49.3135 61.8323C49.4746 61.9065 49.6179 62.0149 49.7335 62.1502C49.9405 62.4365 50.0268 62.7937 49.9735 63.1438L47.5196 76.7855Z" fill="#1B3F92"/>
</svg>
