<svg width="108" height="109" viewBox="0 0 108 109" fill="none" xmlns="http://www.w3.org/2000/svg">
<path d="M105.974 54.14C105.974 83.2164 82.6186 106.764 53.8363 106.764C25.054 106.764 1.69824 83.2164 1.69824 54.14C1.69824 25.0636 25.054 1.51562 53.8363 1.51562C82.6186 1.51562 105.974 25.0636 105.974 54.14Z" fill="white" stroke="#1B3F92" stroke-width="3"/>
<path d="M80.9677 24.0704H62.2965C60.7694 24.0641 59.2888 24.5986 58.1136 25.5804C56.9385 26.5623 56.1437 27.9289 55.8683 29.4411L53.4144 43.0024C53.2448 43.9472 53.2835 44.918 53.5278 45.8461C53.7721 46.7742 54.2159 47.6369 54.828 48.3731C55.4435 49.1098 56.2108 49.7027 57.0768 50.1108C57.9427 50.5189 58.8865 50.7323 59.8426 50.7363H67.6312L66.9643 52.5086C66.472 53.8228 66.301 55.2369 66.4658 56.6316C66.6305 58.0263 67.1261 59.3606 67.9108 60.5219C68.6955 61.6832 69.7462 62.6373 70.9741 63.3038C72.2021 63.9703 73.5714 64.3295 74.9663 64.3512C75.4839 64.3553 75.9915 64.2077 76.4272 63.9264C76.863 63.6451 77.208 63.2422 77.4202 62.7668L83.395 49.1788C83.531 48.8827 83.6124 48.5642 83.635 48.2389V26.7558C83.635 26.0435 83.354 25.3605 82.8538 24.8569C82.3536 24.3533 81.6751 24.0704 80.9677 24.0704ZM78.3004 47.5138L73.4192 58.6045C72.9428 58.3435 72.5322 57.976 72.2189 57.5303C71.905 57.083 71.7066 56.5641 71.6414 56.0203C71.5762 55.4765 71.6463 54.925 71.8455 54.4153L72.8591 51.7299C73.1257 51.0334 73.2166 50.2812 73.1235 49.5407C73.0304 48.8002 72.7562 48.0946 72.3256 47.487C71.9016 46.8817 71.3376 46.3894 70.6824 46.0525C70.0272 45.7157 69.3004 45.5444 68.5647 45.5535H59.7892C59.612 45.554 59.4368 45.5158 59.2757 45.4417C59.1145 45.3675 58.9712 45.2591 58.8557 45.1238C58.6486 44.8375 58.5623 44.4803 58.6156 44.1302L61.0696 30.7033C61.0581 30.5368 61.0817 30.3699 61.1389 30.2133C61.1962 30.0567 61.2857 29.9141 61.4016 29.7949C61.5175 29.6757 61.6572 29.5825 61.8114 29.5215C61.9657 29.4606 62.131 29.4332 62.2965 29.4411H78.3004V47.5138ZM48.7999 56.4293H41.0914L41.7582 54.657C42.2434 53.3351 42.4044 51.9149 42.2277 50.517C42.0509 49.1191 41.5416 47.7848 40.743 46.6274C39.9443 45.4701 38.88 44.524 37.6404 43.8696C36.4008 43.2151 35.0226 42.8715 33.6229 42.8681C33.1053 42.864 32.5976 43.0116 32.1619 43.2929C31.7262 43.5742 31.3812 43.9771 31.1689 44.4525L25.1942 58.0405C25.0413 58.3781 24.9596 58.7438 24.9541 59.1147V80.5978C24.9541 81.31 25.2351 81.9931 25.7353 82.4967C26.2356 83.0003 26.914 83.2832 27.6214 83.2832H46.2926C47.8197 83.2895 49.3004 82.755 50.4755 81.7731C51.6507 80.7913 52.4455 79.4247 52.7209 77.9124L55.1748 64.4855C55.3444 63.5407 55.3057 62.5699 55.0614 61.6418C54.8171 60.7137 54.3732 59.851 53.7611 59.1147C53.1827 58.3257 52.4378 57.6756 51.5799 57.2113C50.7221 56.7469 49.7726 56.4799 48.7999 56.4293ZM47.5196 76.7846C47.4738 77.0738 47.3229 77.3357 47.0962 77.5193C46.8695 77.7029 46.5831 77.7951 46.2926 77.7782H30.2887V59.7055L35.1699 48.6148C35.6463 48.8758 36.0569 49.2433 36.3702 49.689C36.6841 50.1363 36.8826 50.6552 36.9478 51.199C37.013 51.7428 36.9428 52.2943 36.7436 52.804L35.7301 55.4894C35.4634 56.1859 35.3726 56.9381 35.4657 57.6786C35.5588 58.4191 35.8329 59.1247 36.2635 59.7323C36.6816 60.3475 37.243 60.8503 37.8986 61.1967C38.5542 61.5431 39.284 61.7226 40.0244 61.7195H48.7999C48.9771 61.719 49.1523 61.7572 49.3135 61.8313C49.4746 61.9055 49.6179 62.014 49.7335 62.1492C49.9405 62.4356 50.0268 62.7927 49.9735 63.1428L47.5196 76.7846Z" fill="#1B3F92"/>
</svg>
