<svg width="254" height="180" viewBox="0 0 254 180" fill="none" xmlns="http://www.w3.org/2000/svg">
<g clip-path="url(#clip0_1599_1574)">
<path d="M253.171 40.7679L98.3721 80.7391L3.86084 13.771L114.076 1.47266L253.909 39.8514" fill="white"/>
<path d="M253.217 40.9054L98.5706 81.5181L98.2186 81.6155L97.912 81.3978L3.18506 14.7277L0.641602 12.9405L3.73577 12.5796L58.8063 6.20986L86.3586 3.07083L113.939 0.0234375H114.212L114.479 0.0979065C126.129 3.29423 137.756 6.58792 149.394 9.8358L184.293 19.6539L219.152 29.6094L236.565 34.6502L253.972 39.7311L253.892 40.0061L236.338 35.4923L218.795 30.9097L183.743 21.6702L148.707 12.3161C137.052 9.18851 125.373 6.07811 113.724 2.88752L114.257 2.92762L86.6992 6.03229L59.1356 9.03386L3.99125 14.9167L4.55899 12.7686L98.8318 80.0861L98.1732 79.9658L253.165 40.6304L253.217 40.9054Z" fill="#FCBF1A"/>
<path d="M96.027 137.195C97.3101 105.02 98.298 80.7381 98.3718 80.7381C98.4456 80.7381 96.4074 137.779 96.3904 137.779C96.3734 137.779 96.8673 123.682 98.3718 80.7381L1.0957 14.7324C1.50447 25.5128 1.91514 36.2913 2.32769 47.0679L96.1008 137.728L100.001 175.11C85.1 157.643 70.1061 140.267 55.0194 122.983C39.0508 104.653 22.9763 86.4224 6.79579 68.2908C5.9896 65.7131 5.41619 63.6109 5.05851 62.2189C4.02523 58.2092 3.67891 56.0898 2.36176 50.8485C1.9757 49.3134 1.64641 48.0704 1.4477 47.3143" fill="white"/>
<path d="M95.9078 137.19L97.4577 94.5379L97.8778 83.8778L97.9971 81.2142V80.8705V80.7903C97.9971 80.7903 97.9971 80.7903 98.0368 80.6242C98.0629 80.5689 98.1009 80.5201 98.1481 80.4815C98.1952 80.4429 98.2503 80.4153 98.3093 80.4008C98.3093 80.3436 98.6329 80.4581 98.6727 80.6701C98.7124 80.882 98.6727 80.7445 98.6727 80.7961V81.5636L98.6386 82.8983L98.491 88.2312L97.8267 109.551L97.1284 130.872L96.9524 136.205L96.9013 137.534V137.746C96.9808 137.746 96.7026 138.347 96.4131 138.318C96.2655 138.318 96.2882 138.318 96.203 138.267C96.1257 138.224 96.0565 138.168 95.9986 138.101C95.8882 137.97 95.8278 137.803 95.8283 137.631V137.356V136.692L95.9078 134.022L96.2427 123.362L97.5883 80.7216L97.9062 81.3574L0.52793 15.6038L2.14598 14.693L3.45746 47.0228L3.11681 46.2495L50.1425 91.4276L73.6468 114.014L97.1171 136.646L97.5088 137.024L97.5656 137.562L101.415 174.95L101.88 179.492L98.9282 176.055L52.8676 122.176L29.6529 95.3857L18.0483 81.9933L6.48349 68.5607L6.41537 68.4805V68.4003L4.97899 63.1648C4.49641 61.4463 4.11603 59.6477 3.73565 57.8834C3.35526 56.1191 2.99759 54.3548 2.60017 52.5963C2.20276 50.8378 1.75992 49.0907 1.33979 47.3378L1.61231 47.2634C2.08921 48.9818 2.58314 50.7404 3.03165 52.4875C3.48017 54.2346 3.90597 55.9988 4.32609 57.7517C4.74622 59.5045 5.16067 61.2516 5.68298 62.9757L7.2329 68.1311L7.14207 67.9764L19.0191 81.1512L30.8565 94.326L54.5197 120.716L101.08 174.159L98.5932 175.242L94.619 137.872L95.0675 138.782L71.6541 116.087L48.2973 93.3923L1.56689 47.882L1.2376 47.5612V47.1087L0.102127 14.7732L0.0283203 12.7168L1.73153 13.8624L98.8146 80.1259L99.1496 80.355V80.7617L97.5202 123.391L97.0433 134.062L96.9411 136.726V137.39V137.556C96.9411 137.556 96.9411 137.637 96.9411 137.614C96.938 137.553 96.921 137.494 96.8915 137.442C96.8619 137.389 96.8206 137.344 96.7707 137.31C96.7099 137.267 96.6398 137.24 96.5664 137.23C96.4755 137.23 96.5039 137.23 96.3563 137.23C96.0667 137.156 95.7886 137.728 95.868 137.7V137.499L95.9248 136.165L96.1406 130.837L96.9808 109.523L97.7983 88.237L97.98 82.9098L98.0254 81.5808V80.9221V80.8419C98.0254 80.8705 98.0254 80.7331 98.0254 80.8934C98.0254 81.0538 98.3661 81.1226 98.3831 81.1111C98.4354 81.1133 98.4873 81.1011 98.5333 81.0759C98.5793 81.0507 98.6176 81.0134 98.6443 80.9679C98.6897 80.8591 98.6443 80.8534 98.6443 80.882V80.9622V81.2887L98.5023 83.9523L98.0141 94.6009L96.1406 137.224L95.9078 137.19Z" fill="#FCBF1A"/>
<path d="M96.6348 137.877L102.045 179.412L243.134 111.94L250.866 78.9859L253.183 40.7676L98.372 80.7445L96.6348 137.877Z" fill="#194190"/>
<path d="M96.7196 137.872C98.5364 151.717 100.296 165.562 102.159 179.395L101.994 179.309L172.393 145.295L242.867 111.407L242.543 111.808L250.207 78.8313V78.9459L252.433 40.7218L253.37 41.5009L214.69 51.5767L175.987 61.5781C163.094 64.9405 150.172 68.1884 137.256 71.4592C124.34 74.73 111.401 77.9263 98.4739 81.157L98.7919 80.756L97.7075 109.305L96.7196 137.872ZM96.5493 137.872L97.2987 109.299L97.9516 80.7159V80.4009L98.2639 80.3149C111.14 76.878 123.999 73.4068 136.87 70.0042C149.741 66.6017 162.634 63.1992 175.544 59.894L214.247 49.9041L252.972 40.0058L253.977 39.748L253.909 40.7848L251.496 78.9974V79.0547V79.112L243.695 112.049L243.633 112.33L243.378 112.45L172.768 146.057L102.096 179.515L101.948 179.584V179.429C100.183 165.567 98.3377 151.728 96.5493 137.883V137.872Z" fill="#FCBF1A"/>
<path d="M105.622 171.867C105.332 170.991 103.589 87.3365 103.589 87.3365L246.926 48.1387C244.655 68.6837 242.359 89.2364 240.039 109.797L105.622 171.867Z" fill="white"/>
<path d="M105.559 172.024C105.508 171.794 105.451 171.542 105.412 171.273C105.376 171.026 105.355 170.778 105.349 170.529L105.292 169.211L105.19 166.57L105.003 161.283L104.662 150.721L104.021 129.589L102.806 87.3269V86.6968L103.413 86.525L174.948 66.4764L246.511 46.485L248.85 45.832L248.595 48.2894L245.353 79.1528L243.741 94.5788L242.066 110.005L241.941 111.15L240.891 111.643C235.247 114.295 229.576 116.89 223.904 119.473L206.872 127.241C195.517 132.339 184.162 137.454 172.808 142.461L155.844 149.959L138.959 157.405L105.559 172.024ZM105.718 171.657L139.453 155.257L172.813 139.155C183.89 133.817 194.955 128.593 205.986 123.357L222.57 115.607C228.1 113.023 233.629 110.452 239.193 107.925L238.012 109.569L239.801 94.1549L241.629 78.7518L245.279 47.94L247.369 49.7444L175.59 68.9337L103.799 88.0887L104.367 87.2925L104.98 129.566L105.321 150.703L105.559 161.272L105.667 166.553L105.735 169.194L105.769 170.511C105.769 170.752 105.769 170.912 105.769 171.084C105.769 171.256 105.718 171.451 105.701 171.657H105.718Z" fill="#FCBF1A"/>
<path d="M163.247 80.2167L160.658 78.9737L151.717 74.6719C151.194 74.775 146.232 75.8175 144.035 80.5719C142.957 82.9848 142.802 85.7145 143.598 88.2362L144.166 88.534L154.884 94.0445" fill="#F07F12"/>
<path d="M163.247 80.2167L160.658 78.9737L151.717 74.6719C151.194 74.775 146.232 75.8175 144.035 80.5719C142.957 82.9848 142.802 85.7145 143.598 88.2362L144.166 88.534L154.884 94.0445" stroke="#FCBF1A" stroke-width="2" stroke-miterlimit="10"/>
<path d="M164.171 90.6255C166.689 86.9211 166.639 82.4702 164.059 80.6842C161.478 78.8982 157.345 80.4533 154.826 84.1578C152.307 87.8622 152.357 92.3131 154.938 94.0991C157.518 95.8851 161.652 94.3299 164.171 90.6255Z" fill="#F07F12" stroke="#FCBF1A" stroke-width="2" stroke-miterlimit="10"/>
<path d="M159.591 87.8019C158.972 88.7642 157.513 91.0326 155.322 91.7314C154.947 91.8517 153.908 92.1897 153.38 91.6913C153.26 91.5734 153.174 91.425 153.13 91.2617C152.971 90.729 152.347 87.0974 155.237 83.5688C157.212 81.1572 160.375 79.3357 161.266 80.0746C161.448 80.2235 161.493 80.4928 161.573 81.014C161.716 82.1583 161.58 83.3206 161.175 84.3994C160.791 85.5962 160.259 86.7393 159.591 87.8019Z" fill="white" stroke="#FCBF1A" stroke-miterlimit="10"/>
<path d="M156.505 85.3724C156.746 84.8681 156.683 84.3334 156.364 84.178C156.045 84.0225 155.591 84.3053 155.349 84.8096C155.108 85.3139 155.171 85.8486 155.49 86.0041C155.809 86.1595 156.264 85.8767 156.505 85.3724Z" stroke="#FCBF1A" stroke-width="2" stroke-miterlimit="10"/>
<path d="M193.803 78.3035L221.872 69.041L227.237 71.4297L228.588 75.6685L206.123 84.4441L193.803 78.3035Z" fill="#194190" stroke="#FCBF1A" stroke-miterlimit="10"/>
<path d="M180.563 100.811L230.427 83.082L227.526 101.143L178.678 121.472L180.563 100.811Z" fill="#194190" stroke="#FCBF1A" stroke-miterlimit="10"/>
<path d="M188.75 103.92C188.75 104.143 192.724 108.308 192.724 108.308L198.526 100.804L203.165 104.143L208.019 97.2697L212.152 100.804L217.222 93.1741L220.702 97.4129L221.787 91.5645" stroke="#FCBF1A" stroke-miterlimit="10"/>
<path d="M149.497 123.178C149.477 122.869 149.556 122.562 149.723 122.302C149.89 122.042 150.135 121.843 150.422 121.734L169.765 114.477C169.876 114.435 169.995 114.423 170.112 114.442C170.229 114.461 170.339 114.51 170.431 114.584C170.524 114.659 170.596 114.756 170.64 114.867C170.684 114.977 170.7 115.097 170.684 115.216L170.219 118.653L169.083 121.568L168.8 124.575L153.102 131.449L152.199 129.645L151.501 128.746L150.189 127.474C150.004 127.346 149.851 127.175 149.744 126.976C149.636 126.777 149.577 126.555 149.57 126.328L149.497 123.178Z" fill="#194190" stroke="#FCBF1A" stroke-miterlimit="10"/>
<path d="M151.052 128.116L163.94 123.059L164.377 119.307L165.728 117.256L166.006 115.893" stroke="#FCBF1A" stroke-miterlimit="10"/>
<path d="M167.903 124.932L163.94 123.059" stroke="#FCBF1A" stroke-miterlimit="10"/>
<path d="M137.135 129.701C138.073 128.063 137.913 126.199 136.777 125.538C135.642 124.876 133.962 125.669 133.025 127.307C132.087 128.945 132.247 130.809 133.382 131.471C134.517 132.132 136.198 131.34 137.135 129.701Z" fill="#194190" stroke="#FCBF1A" stroke-miterlimit="10"/>
<path d="M149.446 91.6384C149.792 87.348 151.234 84.8849 152.608 83.3956C154.572 81.2704 158.285 79.088 157.99 78.0512C157.99 77.9882 157.956 77.9366 157.933 77.9424C155.695 78.734 153.643 79.9863 151.91 81.6199C149.606 83.8157 147.945 86.6076 147.107 89.6909C147.103 89.7061 147.093 89.7191 147.08 89.7272C147.067 89.7352 147.051 89.7376 147.036 89.7338C147.021 89.73 147.008 89.7203 147 89.7069C146.992 89.6935 146.989 89.6774 146.993 89.6622C147.386 86.253 148.575 82.9865 150.462 80.1305C151.372 78.7649 152.437 77.5114 153.636 76.3957C153.648 76.3874 153.657 76.3742 153.661 76.3592C153.664 76.3442 153.661 76.3285 153.653 76.3156C153.644 76.3026 153.631 76.2936 153.616 76.2903C153.601 76.2871 153.586 76.29 153.573 76.2984C151.512 77.0209 149.65 78.2262 148.14 79.8155C147.004 81.0069 144.892 83.682 144.353 88.8259" stroke="#FCBF1A" stroke-miterlimit="10"/>
</g>
<defs>
<clipPath id="clip0_1599_1574">
<rect width="254" height="179.584" fill="white"/>
</clipPath>
</defs>
</svg>
