<svg width="30" height="31" viewBox="0 0 30 31" fill="none" xmlns="http://www.w3.org/2000/svg">
<path d="M15 29.1633C22.732 29.1633 29 22.8588 29 15.0817C29 7.30458 22.732 1 15 1C7.26801 1 1 7.30458 1 15.0817C1 22.8588 7.26801 29.1633 15 29.1633Z" stroke="white" stroke-width="2" stroke-miterlimit="10" stroke-linecap="round" stroke-linejoin="round"/>
<path d="M15.0001 29.1633C19.2176 29.1633 22.6365 22.8588 22.6365 15.0817C22.6365 7.30458 19.2176 1 15.0001 1C10.7827 1 7.36377 7.30458 7.36377 15.0817C7.36377 22.8588 10.7827 29.1633 15.0001 29.1633Z" stroke="white" stroke-width="2" stroke-miterlimit="10" stroke-linecap="round" stroke-linejoin="round"/>
<path d="M15 1V29.1633" stroke="white" stroke-width="2" stroke-miterlimit="10" stroke-linecap="round" stroke-linejoin="round"/>
<path d="M1.94971 9.98438H28.0769" stroke="white" stroke-width="2" stroke-miterlimit="10" stroke-linecap="round" stroke-linejoin="round"/>
<path d="M1.94971 19.9229H28.0769" stroke="white" stroke-width="2" stroke-miterlimit="10" stroke-linecap="round" stroke-linejoin="round"/>
</svg>
