<svg width="35" height="29" viewBox="0 0 35 29" fill="none" xmlns="http://www.w3.org/2000/svg">
<path d="M9.14374 27.5913C9.14374 28.1634 9.79999 28.4274 10.2375 28.0754L24.6312 14.7858C24.7625 14.6537 24.85 14.4777 24.85 14.3017C24.85 14.1257 24.7625 13.9497 24.6312 13.8176L10.1937 0.52806C9.79999 0.132013 9.09999 0.440049 9.09999 1.01212V8.97707H0.918749C0.4375 8.97707 0 9.37312 0 9.90118V18.7462C0 19.2303 0.39375 19.6703 0.918749 19.6703H9.14374V27.5913Z" fill="white"/>
<path d="M28.8749 28.5153H20.6061C19.4249 28.5153 18.4624 27.5472 18.4624 26.3591C18.4624 25.1709 19.4249 24.2028 20.6061 24.2028H28.8749C29.8811 24.2028 30.7561 23.3667 30.7561 22.3106V6.20472C30.7561 5.1926 29.9249 4.3125 28.8749 4.3125H20.6061C19.4249 4.3125 18.4624 3.34439 18.4624 2.15625C18.4624 0.968112 19.4249 0 20.6061 0H28.8749C32.2436 0 34.9999 2.77232 34.9999 6.16072V22.3106C34.9999 25.787 32.2436 28.5153 28.8749 28.5153Z" fill="white"/>
</svg>
