<svg width="150" height="152" viewBox="0 0 150 152" fill="none" xmlns="http://www.w3.org/2000/svg">
<path d="M148.5 75.68C148.5 116.661 115.58 149.86 75 149.86C34.4198 149.86 1.5 116.661 1.5 75.68C1.5 34.6987 34.4198 1.5 75 1.5C115.58 1.5 148.5 34.6987 148.5 75.68Z" fill="white" stroke="#1B3F92" stroke-width="3"/>
<path d="M50.2347 110.28H42.0623C41.3557 110.28 40.678 109.997 40.1783 109.493C39.6787 108.989 39.3979 108.305 39.3979 107.592V90.083C39.3979 89.37 39.6787 88.6862 40.1783 88.182C40.678 87.6778 41.3557 87.3945 42.0623 87.3945H50.2347C50.9413 87.3945 51.619 87.6778 52.1187 88.182C52.6183 88.6862 52.899 89.37 52.899 90.083V107.593C52.8987 108.306 52.6179 108.989 52.1183 109.493C51.6186 109.997 50.9411 110.28 50.2347 110.28Z" fill="#FFC014" stroke="#1B3F92" stroke-width="3" stroke-miterlimit="10"/>
<path d="M69.2693 110.279H61.097C60.3903 110.279 59.7127 109.996 59.213 109.492C58.7133 108.987 58.4326 108.304 58.4326 107.591V67.1963C58.4326 66.4833 58.7133 65.7995 59.213 65.2953C59.7127 64.7911 60.3903 64.5078 61.097 64.5078H69.2693C69.976 64.5078 70.6537 64.7911 71.1533 65.2953C71.653 65.7995 71.9337 66.4833 71.9337 67.1963V107.592C71.9334 108.304 71.6526 108.988 71.1529 109.492C70.6533 109.996 69.9758 110.279 69.2693 110.279Z" fill="#FFC014" stroke="#1B3F92" stroke-width="3" stroke-miterlimit="10"/>
<path d="M88.304 110.279H80.1316C79.425 110.279 78.7473 109.996 78.2477 109.492C77.748 108.987 77.4673 108.303 77.4673 107.59V73.9268C77.4673 73.2138 77.748 72.5299 78.2477 72.0257C78.7473 71.5215 79.425 71.2383 80.1316 71.2383H88.304C88.6539 71.2383 89.0004 71.3078 89.3236 71.4429C89.6469 71.578 89.9406 71.7761 90.188 72.0257C90.4354 72.2754 90.6317 72.5718 90.7656 72.8979C90.8995 73.2241 90.9684 73.5737 90.9684 73.9268V107.59C90.9681 108.303 90.6873 108.987 90.1877 109.491C89.6881 109.995 89.0105 110.279 88.304 110.279Z" fill="#FFC014" stroke="#1B3F92" stroke-width="3" stroke-miterlimit="10"/>
<path d="M106.957 110.28H99.5496C98.7416 110.28 97.9666 109.956 97.3953 109.379C96.8239 108.803 96.5029 108.021 96.5029 107.206V44.6973C96.5029 44.2936 96.5817 43.8939 96.7348 43.5209C96.888 43.1479 97.1124 42.809 97.3953 42.5235C97.6782 42.238 98.0141 42.0116 98.3837 41.8571C98.7533 41.7026 99.1495 41.623 99.5496 41.623H106.957C107.357 41.623 107.754 41.7026 108.123 41.8571C108.493 42.0116 108.829 42.238 109.112 42.5235C109.395 42.809 109.619 43.1479 109.772 43.5209C109.925 43.8939 110.004 44.2936 110.004 44.6973V107.207C110.004 108.022 109.683 108.804 109.111 109.38C108.54 109.956 107.765 110.28 106.957 110.28Z" fill="#FFC014" stroke="#1B3F92" stroke-width="3" stroke-miterlimit="10"/>
<path d="M31.5005 106.995C36.34 107.261 40.7755 104.338 43.9172 100.867C47.059 97.3949 49.3367 93.2863 52.5454 89.8698C55.754 86.4533 60.3376 83.6733 65.1544 84.1888C72.9833 85.0268 77.2558 93.6852 84.697 96.1231C90.2665 97.9474 96.3988 95.9073 101.635 93.3561C106.87 90.8049 112.031 87.6532 117.899 87.1116" stroke="#1B3F92" stroke-width="3" stroke-miterlimit="10" stroke-linecap="round"/>
</svg>
