<svg width="182" height="76" viewBox="0 0 182 76" fill="none" xmlns="http://www.w3.org/2000/svg">
<path d="M0 0.451019H14.8794C22.1376 0.451019 25.2223 3.4278 25.2223 10.2834C25.2223 17.139 22.1376 20.1158 14.8794 20.1158H6.62313V29.1364H0V0.451019ZM14.4257 13.9819C17.329 13.9819 18.5992 12.8994 18.5992 10.2834C18.5992 7.66746 17.329 6.585 14.4257 6.585H6.62313V13.9819H14.4257Z" fill="#FDFFFF"/>
<path d="M29.7587 29.1364V0.451019H45.4546C52.7128 0.451019 55.7975 3.06698 55.7975 9.20096C55.7975 12.719 54.7995 15.1545 52.5313 16.5076C54.5274 17.5901 55.4346 19.3942 55.4346 22.1004V29.1364H48.8115V22.4612C48.8115 20.5669 47.632 19.6648 45.0009 19.6648H36.3818V29.1364H29.7587ZM45.0917 13.5308C47.995 13.5308 49.1744 12.4484 49.1744 10.0128C49.1744 7.57726 47.9042 6.585 45.0917 6.585H36.3818V13.5308H45.0917Z" fill="#FDFFFF"/>
<path d="M89.4576 14.7937C89.4576 25.1674 85.012 29.5874 74.5783 29.5874C64.1446 29.5874 59.6989 25.1674 59.6989 14.7937C59.6989 4.42007 64.2353 0 74.5783 0C85.012 0 89.4576 4.42007 89.4576 14.7937ZM74.5783 23.3632C80.3848 23.3632 82.8345 20.7473 82.8345 14.7035C82.8345 8.65973 80.3848 6.04377 74.5783 6.04377C68.7717 6.04377 66.322 8.65973 66.322 14.7035C66.322 20.8375 68.8624 23.3632 74.5783 23.3632Z" fill="#FDFFFF"/>
<path d="M100.254 20.1159C100.799 22.371 102.976 23.3633 107.422 23.3633C111.414 23.3633 113.319 22.5514 113.319 21.0179C113.319 19.5746 111.414 18.6726 106.152 17.7705C96.7158 16.0566 93.9033 13.8917 93.9033 8.84018C93.9033 2.79641 97.8046 0.0902405 106.242 0.0902405C114.498 0.0902405 118.4 2.79641 119.216 9.47162H112.321C111.867 7.21648 109.871 6.22422 105.789 6.22422C102.159 6.22422 100.436 7.03607 100.436 8.47936C100.436 9.92265 101.978 10.6443 107.24 11.6366C116.857 13.5309 119.851 15.5154 119.851 20.6571C119.851 26.7009 115.678 29.5875 106.877 29.5875C98.3489 29.5875 94.3569 26.7911 93.5403 20.2061H100.254V20.1159Z" fill="#FDFFFF"/>
<path d="M139.176 6.585V29.1364H132.553V6.585H121.847V0.451019H149.973V6.585H139.176Z" fill="#FDFFFF"/>
<path d="M182 14.7937C182 25.1674 177.554 29.5874 167.121 29.5874C156.687 29.5874 152.241 25.1674 152.241 14.7937C152.241 4.42007 156.687 0 167.121 0C177.464 0 182 4.42007 182 14.7937ZM167.121 23.3632C172.927 23.3632 175.377 20.7473 175.377 14.7035C175.377 8.65973 172.927 6.04377 167.121 6.04377C161.314 6.04377 158.864 8.65973 158.864 14.7035C158.864 20.8375 161.314 23.3632 167.121 23.3632Z" fill="#FDFFFF"/>
<path d="M0 45.644H14.8794C22.1376 45.644 25.2223 48.6208 25.2223 55.4764C25.2223 62.332 22.1376 65.3088 14.8794 65.3088H6.62313V74.3294H0V45.644ZM14.4257 59.1748C17.329 59.1748 18.5992 58.0924 18.5992 55.4764C18.5992 52.8605 17.329 51.778 14.4257 51.778H6.62313V59.1748H14.4257Z" fill="#FDFFFF"/>
<path d="M25.0408 74.3294L37.8334 45.5538H45.1823L57.975 74.3294H50.8982L48.8115 69.5485H34.1135L32.0268 74.3294H25.0408ZM36.8354 63.4145H46.2711L41.5532 52.5899L36.8354 63.4145Z" fill="#FDFFFF"/>
<path d="M53.8923 45.644H61.7856L69.8604 57.5511L77.8445 45.644H85.6471L73.1266 63.5047V74.3294H66.5035V63.5047L53.8923 45.644Z" fill="#FDFFFF"/>
<path d="M181.365 34.4586H0V40.2317H181.365V34.4586Z" fill="#FDFFFF"/>
</svg>
