<svg width="102" height="102" viewBox="0 0 102 102" fill="none" xmlns="http://www.w3.org/2000/svg">
<path d="M99.5991 51.0327C99.5991 78.1536 77.8144 100.116 50.9701 100.116C24.1258 100.116 2.34106 78.1536 2.34106 51.0327C2.34106 23.9119 24.1258 1.94922 50.9701 1.94922C77.8144 1.94922 99.5991 23.9119 99.5991 51.0327Z" fill="white" stroke="#1B3F92" stroke-width="3"/>
<path d="M44.3729 79.115H61.3285L63.1882 58.7877C63.2471 58.1448 63.091 57.5005 62.7448 56.9581C62.3986 56.4157 61.8824 56.0067 61.279 55.7966C55.8175 53.8933 49.8838 53.8933 44.4223 55.7966C43.8189 56.0067 43.3028 56.4157 42.9566 56.9581C42.6104 57.5005 42.4542 58.1448 42.5131 58.7877L44.3729 79.115Z" fill="#1B3F92"/>
<path d="M44.5293 80.4414C44.8879 82.4099 45.9166 84.189 47.4368 85.4698C48.957 86.7506 50.8726 87.452 52.8508 87.4522C54.829 87.4522 56.7447 86.7508 58.2649 85.47C59.7851 84.1892 60.8138 82.41 61.1722 80.4414H44.5293Z" fill="#1B3F92"/>
<path d="M52.8504 73.4254C52.0349 73.4244 51.2531 73.0961 50.6765 72.5126C50.0998 71.9291 49.7754 71.1381 49.7743 70.3129V69.8282H49.2953C48.4795 69.8282 47.6971 69.5003 47.1202 68.9165C46.5433 68.3328 46.2192 67.5411 46.2192 66.7156C46.2192 65.8902 46.5433 65.0985 47.1202 64.5148C47.6971 63.931 48.4795 63.6031 49.2953 63.6031H49.7743V63.1184C49.7743 62.2929 50.0984 61.5012 50.6753 60.9175C51.2522 60.3338 52.0346 60.0059 52.8504 60.0059C53.6662 60.0059 54.4486 60.3338 55.0255 60.9175C55.6024 61.5012 55.9264 62.2929 55.9264 63.1184V63.6031H56.4055C57.2213 63.6031 58.0037 63.931 58.5806 64.5148C59.1575 65.0985 59.4815 65.8902 59.4815 66.7156C59.4815 67.5411 59.1575 68.3328 58.5806 68.9165C58.0037 69.5003 57.2213 69.8282 56.4055 69.8282H55.9264V70.3129C55.9256 71.1382 55.6013 71.9294 55.0246 72.5129C54.4479 73.0964 53.666 73.4246 52.8504 73.4254Z" fill="#1B3F92"/>
<path d="M56.4058 64.4195H55.1199V63.1184C55.1199 62.5094 54.8808 61.9254 54.4552 61.4948C54.0297 61.0642 53.4525 60.8223 52.8507 60.8223C52.2488 60.8223 51.6716 61.0642 51.2461 61.4948C50.8205 61.9254 50.5814 62.5094 50.5814 63.1184V64.4195H49.2966C48.6947 64.4195 48.1175 64.6614 47.692 65.092C47.2664 65.5227 47.0273 66.1067 47.0273 66.7157C47.0273 67.3246 47.2664 67.9087 47.692 68.3393C48.1175 68.7699 48.6947 69.0118 49.2966 69.0118H50.5814V70.3129C50.5814 70.9219 50.8205 71.5059 51.2461 71.9365C51.6716 72.3671 52.2488 72.609 52.8507 72.609C53.4525 72.609 54.0297 72.3671 54.4552 71.9365C54.8808 71.5059 55.1199 70.9219 55.1199 70.3129V69.0118H56.4058C57.0076 69.0118 57.5848 68.7699 58.0103 68.3393C58.4359 67.9087 58.675 67.3246 58.675 66.7157C58.675 66.1067 58.4359 65.5227 58.0103 65.092C57.5848 64.6614 57.0076 64.4195 56.4058 64.4195Z" fill="#EDEFFC"/>
<path d="M49.2089 67.7876C49.7937 67.7876 50.2678 67.3078 50.2678 66.7161C50.2678 66.1243 49.7937 65.6445 49.2089 65.6445C48.624 65.6445 48.1499 66.1243 48.1499 66.7161C48.1499 67.3078 48.624 67.7876 49.2089 67.7876Z" fill="#1B3F92"/>
<path d="M56.4945 67.7876C57.0794 67.7876 57.5535 67.3078 57.5535 66.7161C57.5535 66.1243 57.0794 65.6445 56.4945 65.6445C55.9097 65.6445 55.4355 66.1243 55.4355 66.7161C55.4355 67.3078 55.9097 67.7876 56.4945 67.7876Z" fill="#1B3F92"/>
<path d="M52.8514 64.1001C53.4363 64.1001 53.9104 63.6203 53.9104 63.0286C53.9104 62.4368 53.4363 61.957 52.8514 61.957C52.2666 61.957 51.7925 62.4368 51.7925 63.0286C51.7925 63.6203 52.2666 64.1001 52.8514 64.1001Z" fill="#1B3F92"/>
<path d="M52.8514 71.4731C53.4363 71.4731 53.9104 70.9934 53.9104 70.4016C53.9104 69.8098 53.4363 69.3301 52.8514 69.3301C52.2666 69.3301 51.7925 69.8098 51.7925 70.4016C51.7925 70.9934 52.2666 71.4731 52.8514 71.4731Z" fill="#1B3F92"/>
<path d="M46.5977 61.9707C46.119 61.9707 45.651 61.827 45.253 61.5579C44.8549 61.2888 44.5447 60.9063 44.3615 60.4587C44.1783 60.0112 44.1304 59.5188 44.2238 59.0437C44.3172 58.5686 44.5477 58.1321 44.8862 57.7896C45.2247 57.4471 45.656 57.2138 46.1255 57.1193C46.5951 57.0248 47.0817 57.0733 47.524 57.2587C47.9663 57.4441 48.3443 57.758 48.6103 58.1608C48.8763 58.5635 49.0182 59.0371 49.0182 59.5215C49.0182 60.171 48.7632 60.794 48.3093 61.2533C47.8554 61.7126 47.2397 61.9707 46.5977 61.9707Z" fill="#1B3F92"/>
<path d="M46.5985 61.1543C47.4897 61.1543 48.2122 60.4232 48.2122 59.5215C48.2122 58.6197 47.4897 57.8887 46.5985 57.8887C45.7073 57.8887 44.9849 58.6197 44.9849 59.5215C44.9849 60.4232 45.7073 61.1543 46.5985 61.1543Z" fill="#EDEFFC"/>
<path d="M59.1036 61.9707C58.6249 61.9707 58.1569 61.827 57.7588 61.5579C57.3608 61.2888 57.0506 60.9063 56.8674 60.4587C56.6842 60.0112 56.6362 59.5188 56.7296 59.0437C56.823 58.5686 57.0535 58.1321 57.392 57.7896C57.7306 57.4471 58.1619 57.2138 58.6314 57.1193C59.1009 57.0248 59.5876 57.0733 60.0299 57.2587C60.4722 57.4441 60.8502 57.758 61.1162 58.1608C61.3821 58.5635 61.5241 59.0371 61.5241 59.5215C61.5241 60.171 61.2691 60.794 60.8151 61.2533C60.3612 61.7126 59.7456 61.9707 59.1036 61.9707Z" fill="#1B3F92"/>
<path d="M59.1044 61.1543C59.9956 61.1543 60.7181 60.4232 60.7181 59.5215C60.7181 58.6197 59.9956 57.8887 59.1044 57.8887C58.2132 57.8887 57.4907 58.6197 57.4907 59.5215C57.4907 60.4232 58.2132 61.1543 59.1044 61.1543Z" fill="#EDEFFC"/>
<path d="M59.047 50.3672C58.9874 50.3673 58.9284 50.3555 58.8733 50.3323C58.8183 50.3092 58.7683 50.2753 58.7263 50.2325C57.168 48.6559 55.0547 47.7702 52.8511 47.7702C50.6474 47.7702 48.5341 48.6559 46.9758 50.2325C46.8906 50.3185 46.7751 50.3668 46.6547 50.3667C46.5343 50.3667 46.4189 50.3182 46.3339 50.232C46.2488 50.1458 46.2011 50.0289 46.2012 49.9071C46.2013 49.7853 46.2492 49.6685 46.3344 49.5824C48.0628 47.8339 50.4069 46.8516 52.8511 46.8516C55.2952 46.8516 57.6393 47.8339 59.3677 49.5824C59.431 49.6468 59.474 49.7286 59.4914 49.8177C59.5088 49.9067 59.4998 49.9989 59.4655 50.0828C59.4313 50.1667 59.3732 50.2384 59.2988 50.289C59.2243 50.3396 59.1367 50.3668 59.047 50.3672Z" fill="#1B3F92"/>
<path d="M57.5746 51.857C57.4545 51.857 57.3392 51.809 57.2539 51.7233C56.6758 51.138 55.9895 50.6738 55.234 50.357C54.4786 50.0403 53.6689 49.8772 52.8511 49.8772C52.0334 49.8772 51.2237 50.0403 50.4682 50.357C49.7128 50.6738 49.0264 51.138 48.4483 51.7233C48.4062 51.766 48.3561 51.7998 48.301 51.8229C48.2459 51.846 48.1868 51.8579 48.1271 51.8579C48.0675 51.8579 48.0084 51.846 47.9533 51.8229C47.8982 51.7998 47.8481 51.766 47.8059 51.7233C47.7637 51.6806 47.7303 51.6299 47.7074 51.5742C47.6846 51.5184 47.6729 51.4586 47.6729 51.3983C47.6729 51.3379 47.6846 51.2781 47.7074 51.2223C47.7303 51.1666 47.7637 51.1159 47.8059 51.0732C49.1437 49.7207 50.9575 48.9609 52.8486 48.9609C54.7397 48.9609 56.5535 49.7207 57.8913 51.0732C57.9547 51.1374 57.9979 51.2192 58.0153 51.3083C58.0328 51.3973 58.0238 51.4896 57.9895 51.5734C57.9552 51.6573 57.8971 51.729 57.8225 51.7794C57.748 51.8299 57.6603 51.8569 57.5706 51.857H57.5746Z" fill="#F76701"/>
<path d="M56.102 53.3474C56.0424 53.3475 55.9834 53.3356 55.9283 53.3125C55.8733 53.2894 55.8233 53.2555 55.7813 53.2127C55.0034 52.4276 53.9496 51.9867 52.851 51.9867C51.7523 51.9867 50.6985 52.4276 49.9206 53.2127C49.8356 53.2989 49.7202 53.3474 49.5998 53.3475C49.4794 53.3476 49.3639 53.2993 49.2787 53.2132C49.1935 53.1272 49.1456 53.0104 49.1455 52.8886C49.1454 52.7668 49.1931 52.6499 49.2782 52.5637C49.7473 52.089 50.3042 51.7124 50.9172 51.4555C51.5301 51.1986 52.187 51.0664 52.8505 51.0664C53.5139 51.0664 54.1708 51.1986 54.7838 51.4555C55.3967 51.7124 55.9536 52.089 56.4227 52.5637C56.4861 52.6279 56.5293 52.7097 56.5467 52.7987C56.5642 52.8878 56.5552 52.98 56.5209 53.0639C56.4866 53.1478 56.4285 53.2194 56.3539 53.2699C56.2794 53.3204 56.1917 53.3474 56.102 53.3474Z" fill="#FFC014"/>
<path d="M37.9968 30.6543H25.6533C24.4084 30.6543 23.3992 31.6755 23.3992 32.9351V49.3366C23.3992 50.5963 24.4084 51.6174 25.6533 51.6174H37.9968C39.2417 51.6174 40.2509 50.5963 40.2509 49.3366V32.9351C40.2509 31.6755 39.2417 30.6543 37.9968 30.6543Z" fill="#EDEFFC"/>
<path d="M33.1196 31.7168H26.3099C25.2489 31.7168 24.3887 32.5872 24.3887 33.6608V45.2915C24.3887 46.3652 25.2489 47.2355 26.3099 47.2355H33.1196C34.1807 47.2355 35.0409 46.3652 35.0409 45.2915V33.6608C35.0409 32.5872 34.1807 31.7168 33.1196 31.7168Z" fill="#1B3F92"/>
<path d="M37.9818 31.7168H37.0923C36.4629 31.7168 35.9526 32.2331 35.9526 32.87V48.8979C35.9526 49.5348 36.4629 50.0511 37.0923 50.0511H37.9818C38.6112 50.0511 39.1215 49.5348 39.1215 48.8979V32.87C39.1215 32.2331 38.6112 31.7168 37.9818 31.7168Z" fill="#1B3F92"/>
<g opacity="0.85">
<path opacity="0.85" d="M57.6552 20.4141H48.0469C47.0777 20.4141 46.292 21.2091 46.292 22.1897V34.9572C46.292 35.9379 47.0777 36.7329 48.0469 36.7329H57.6552C58.6244 36.7329 59.4101 35.9379 59.4101 34.9572V22.1897C59.4101 21.2091 58.6244 20.4141 57.6552 20.4141Z" fill="#EDEFFC"/>
<path opacity="0.85" d="M53.8591 21.2422H48.5582C47.7321 21.2422 47.0625 21.9198 47.0625 22.7556V31.8095C47.0625 32.6453 47.7321 33.3229 48.5582 33.3229H53.8591C54.6851 33.3229 55.3547 32.6453 55.3547 31.8095V22.7556C55.3547 21.9198 54.6851 21.2422 53.8591 21.2422Z" fill="#1B3F92"/>
<path opacity="0.85" d="M57.6451 21.2422H56.9512C56.4616 21.2422 56.0647 21.6438 56.0647 22.1392V34.6179C56.0647 35.1133 56.4616 35.5149 56.9512 35.5149H57.6451C58.1347 35.5149 58.5316 35.1133 58.5316 34.6179V22.1392C58.5316 21.6438 58.1347 21.2422 57.6451 21.2422Z" fill="#1B3F92"/>
</g>
<g opacity="0.7">
<path opacity="0.7" d="M77.2935 14.6133H70.4617C69.7727 14.6133 69.2141 15.1785 69.2141 15.8756V24.953C69.2141 25.6502 69.7727 26.2153 70.4617 26.2153H77.2935C77.9825 26.2153 78.5411 25.6502 78.5411 24.953V15.8756C78.5411 15.1785 77.9825 14.6133 77.2935 14.6133Z" fill="#EDEFFC"/>
<path opacity="0.7" d="M74.5946 15.2012H70.8247C70.2376 15.2012 69.7617 15.6827 69.7617 16.2768V22.7141C69.7617 23.3081 70.2376 23.7897 70.8247 23.7897H74.5946C75.1817 23.7897 75.6576 23.3081 75.6576 22.7141V16.2768C75.6576 15.6827 75.1817 15.2012 74.5946 15.2012Z" fill="#1B3F92"/>
<path opacity="0.7" d="M77.2854 15.2012H76.7922C76.4441 15.2012 76.1619 15.4867 76.1619 15.839V24.7112C76.1619 25.0635 76.4441 25.349 76.7922 25.349H77.2854C77.6335 25.349 77.9157 25.0635 77.9157 24.7112V15.839C77.9157 15.4867 77.6335 15.2012 77.2854 15.2012Z" fill="#1B3F92"/>
</g>
</svg>
