<svg width="1044" height="3428" viewBox="0 0 1044 3428" fill="none" xmlns="http://www.w3.org/2000/svg">
<path d="M985.5 3426L1000.5 3416V3103.75V2800C1000.5 2766.86 973.71 2740 940.573 2740C843.458 2740 648.611 2740 510 2740C379.008 2740 196.427 2740 99.3732 2740C62.3701 2740 32.5 2710 32.5 2673V2515V2191.5C32.5 2154.5 62.4969 2124.5 99.5 2124.5H229.5H327.25H381.5H426H489C522.137 2124.5 549 2097.64 549 2064.5V1669.5C549 1632.5 519.003 1602.5 482 1602.5H356.5H68C31.5492 1602.5 2 1572.95 2 1536.5V731V232C2 187.817 37.8172 152 82 152H962C1006.18 152 1042 116.183 1042 72V0" stroke="url(#paint0_linear_951_5578)" stroke-width="4"/>
<defs>
<linearGradient id="paint0_linear_951_5578" x1="600.75" y1="731" x2="600.75" y2="3808.5" gradientUnits="userSpaceOnUse">
<stop stop-color="#FFC014"/>
<stop offset="1" stop-color="#F76700"/>
</linearGradient>
</defs>
</svg>
