<svg width="121" height="123" viewBox="0 0 121 123" fill="none" xmlns="http://www.w3.org/2000/svg">
<path d="M119.047 61.3291C119.047 94.0373 92.7736 120.529 60.3921 120.529C28.0107 120.529 1.7373 94.0373 1.7373 61.3291C1.7373 28.6209 28.0107 2.12891 60.3921 2.12891C92.7736 2.12891 119.047 28.6209 119.047 61.3291Z" fill="white" stroke="#1B3F92" stroke-width="3"/>
<g clip-path="url(#clip0_951_5699)">
<path d="M74.3393 97.3844H36.137C35.4834 97.3844 34.8565 97.1225 34.3942 96.6563C33.9319 96.19 33.672 95.5576 33.6716 94.8981V27.7461C33.672 27.0865 33.9319 26.4541 34.3942 25.9879C34.8565 25.5217 35.4834 25.2598 36.137 25.2598H85.4307C86.0844 25.2598 86.7112 25.5217 87.1735 25.9879C87.6358 26.4541 87.8958 27.0865 87.8961 27.7461V83.7061L74.3393 97.3844Z" fill="#EDEFFC" stroke="#1B3F92" stroke-width="5" stroke-miterlimit="20"/>
<path d="M54.6217 35.2087C54.6217 35.045 54.5897 34.8829 54.5275 34.7317C54.4653 34.5805 54.3741 34.4432 54.2592 34.3277C54.1443 34.2121 54.0079 34.1206 53.8579 34.0583C53.7078 33.9961 53.5471 33.9643 53.3849 33.9649H43.5303C43.2034 33.9649 42.8898 34.0959 42.6587 34.3292C42.4275 34.5624 42.2976 34.8788 42.2976 35.2087C42.2976 35.5386 42.4275 35.855 42.6587 36.0883C42.8898 36.3215 43.2034 36.4526 43.5303 36.4526H47.2284V47.6446C47.2228 47.8114 47.2506 47.9776 47.31 48.1333C47.3694 48.289 47.4592 48.4311 47.5742 48.5511C47.6891 48.671 47.8268 48.7664 47.9791 48.8316C48.1313 48.8967 48.295 48.9303 48.4604 48.9303C48.6257 48.9303 48.7894 48.8967 48.9417 48.8316C49.0939 48.7664 49.2316 48.671 49.3466 48.5511C49.4615 48.4311 49.5514 48.289 49.6108 48.1333C49.6702 47.9776 49.6979 47.8114 49.6924 47.6446V36.4526H53.3849C53.5471 36.4533 53.708 36.4217 53.8581 36.3595C54.0082 36.2973 54.1447 36.2058 54.2596 36.0902C54.3746 35.9746 54.4657 35.8372 54.5279 35.6859C54.59 35.5347 54.6219 35.3725 54.6217 35.2087Z" fill="#1B3F92" stroke="#1B3F92" stroke-miterlimit="20"/>
<path d="M62.2285 35.7384C62.0783 35.2245 61.7667 34.7738 61.3408 34.454C60.9148 34.1341 60.3974 33.9625 59.8665 33.9649H59.2355C58.7047 33.9626 58.1875 34.1343 57.7618 34.4541C57.3361 34.7739 57.0248 35.2246 56.8748 35.7384L53.4406 47.2896C53.3467 47.6057 53.3811 47.9464 53.5362 48.2369C53.6914 48.5274 53.9545 48.7437 54.2677 48.8385C54.5809 48.9332 54.9186 48.8984 55.2065 48.7419C55.4943 48.5854 55.7088 48.3199 55.8026 48.0038L56.2787 46.4035H62.8246L63.2993 48.0038C63.3756 48.26 63.5316 48.4846 63.7444 48.6442C63.9571 48.8038 64.2152 48.89 64.4803 48.8899C64.6004 48.8897 64.7198 48.8721 64.8349 48.8378C64.9901 48.7908 65.1345 48.7135 65.26 48.6102C65.3855 48.5069 65.4896 48.3797 65.5663 48.2358C65.6431 48.0919 65.691 47.9341 65.7073 47.7715C65.7236 47.6089 65.708 47.4447 65.6614 47.2882L62.2285 35.7384ZM57.0172 43.9088L59.2355 36.4427H59.8665L62.0848 43.9088H57.0172Z" fill="#1B3F92" stroke="#1B3F92" stroke-miterlimit="20"/>
<path d="M73.9957 41.4259L77.8152 35.9208C77.9963 35.6503 78.0648 35.3188 78.0059 34.9978C77.947 34.6769 77.7654 34.3921 77.5003 34.205C77.2352 34.0179 76.9079 33.9435 76.5889 33.9978C76.2699 34.0521 75.9848 34.2307 75.7952 34.4952L72.4922 39.2565L69.1878 34.4952C68.9981 34.2307 68.7131 34.0521 68.3941 33.9978C68.0751 33.9435 67.7477 34.0179 67.4826 34.205C67.2175 34.3921 67.0359 34.6769 66.977 34.9978C66.9181 35.3188 66.9866 35.6503 67.1677 35.9208L70.9872 41.4259L67.1677 46.9311C67.0746 47.0649 67.0085 47.2159 66.9732 47.3756C66.9379 47.5352 66.9341 47.7002 66.9621 47.8613C66.99 48.0224 67.0491 48.1764 67.136 48.3144C67.2229 48.4525 67.3359 48.5719 67.4686 48.6659C67.6012 48.7598 67.7509 48.8265 67.9091 48.8621C68.0672 48.8977 68.2308 48.9015 68.3905 48.8734C68.5501 48.8452 68.7027 48.7855 68.8395 48.6978C68.9763 48.6101 69.0946 48.4961 69.1878 48.3623L72.4908 43.5995L75.7938 48.3623C75.9819 48.6328 76.2687 48.8168 76.5913 48.8739C76.9138 48.9309 77.2456 48.8563 77.5137 48.6666C77.7817 48.4768 77.9641 48.1873 78.0207 47.8618C78.0772 47.5364 78.0033 47.2015 77.8152 46.9311L73.9957 41.4259Z" fill="#1B3F92" stroke="#1B3F92" stroke-miterlimit="20"/>
<path d="M43.5302 57.5932H41.0662C40.7393 57.5932 40.4257 57.4622 40.1945 57.2289C39.9634 56.9956 39.8335 56.6792 39.8335 56.3493C39.8335 56.0194 39.9634 55.7031 40.1945 55.4698C40.4257 55.2365 40.7393 55.1055 41.0662 55.1055H43.5302C43.8571 55.1055 44.1706 55.2365 44.4018 55.4698C44.633 55.7031 44.7629 56.0194 44.7629 56.3493C44.7629 56.6792 44.633 56.9956 44.4018 57.2289C44.1706 57.4622 43.8571 57.5932 43.5302 57.5932Z" fill="#5C81ED"/>
<path d="M43.5302 62.5659H41.0662C40.9043 62.5659 40.744 62.5337 40.5945 62.4712C40.4449 62.4087 40.309 62.317 40.1945 62.2015C40.0801 62.086 39.9893 61.9489 39.9273 61.798C39.8654 61.6471 39.8335 61.4853 39.8335 61.322C39.8335 61.1586 39.8654 60.9969 39.9273 60.846C39.9893 60.6951 40.0801 60.5579 40.1945 60.4424C40.309 60.3269 40.4449 60.2353 40.5945 60.1728C40.744 60.1103 40.9043 60.0781 41.0662 60.0781H43.5302C43.6921 60.0781 43.8524 60.1103 44.0019 60.1728C44.1515 60.2353 44.2874 60.3269 44.4018 60.4424C44.5163 60.5579 44.6071 60.6951 44.669 60.846C44.731 60.9969 44.7629 61.1586 44.7629 61.322C44.7629 61.4853 44.731 61.6471 44.669 61.798C44.6071 61.9489 44.5163 62.086 44.4018 62.2015C44.2874 62.317 44.1515 62.4087 44.0019 62.4712C43.8524 62.5337 43.6921 62.5659 43.5302 62.5659Z" fill="#5C81ED"/>
<path d="M43.5302 67.5405H41.0662C40.7393 67.5405 40.4257 67.4094 40.1945 67.1761C39.9634 66.9429 39.8335 66.6265 39.8335 66.2966C39.8335 65.9667 39.9634 65.6503 40.1945 65.4171C40.4257 65.1838 40.7393 65.0527 41.0662 65.0527H43.5302C43.8571 65.0527 44.1706 65.1838 44.4018 65.4171C44.633 65.6503 44.7629 65.9667 44.7629 66.2966C44.7629 66.6265 44.633 66.9429 44.4018 67.1761C44.1706 67.4094 43.8571 67.5405 43.5302 67.5405Z" fill="#5C81ED"/>
<path d="M80.5014 57.5932H78.0374C77.7104 57.5932 77.3969 57.4622 77.1657 57.2289C76.9346 56.9956 76.8047 56.6792 76.8047 56.3493C76.8047 56.0194 76.9346 55.7031 77.1657 55.4698C77.3969 55.2365 77.7104 55.1055 78.0374 55.1055H80.5014C80.8283 55.1055 81.1418 55.2365 81.373 55.4698C81.6042 55.7031 81.7341 56.0194 81.7341 56.3493C81.7341 56.6792 81.6042 56.9956 81.373 57.2289C81.1418 57.4622 80.8283 57.5932 80.5014 57.5932Z" fill="#5C81ED"/>
<path d="M80.5014 62.5659H78.0374C77.8755 62.5659 77.7152 62.5337 77.5656 62.4712C77.4161 62.4087 77.2802 62.317 77.1657 62.2015C77.0513 62.086 76.9605 61.9489 76.8985 61.798C76.8366 61.6471 76.8047 61.4853 76.8047 61.322C76.8047 61.1586 76.8366 60.9969 76.8985 60.846C76.9605 60.6951 77.0513 60.5579 77.1657 60.4424C77.2802 60.3269 77.4161 60.2353 77.5656 60.1728C77.7152 60.1103 77.8755 60.0781 78.0374 60.0781H80.5014C80.8283 60.0781 81.1418 60.2092 81.373 60.4424C81.6042 60.6757 81.7341 60.9921 81.7341 61.322C81.7341 61.6519 81.6042 61.9683 81.373 62.2015C81.1418 62.4348 80.8283 62.5659 80.5014 62.5659Z" fill="#5C81ED"/>
<path d="M80.5014 67.5405H78.0374C77.7104 67.5405 77.3969 67.4094 77.1657 67.1761C76.9346 66.9429 76.8047 66.6265 76.8047 66.2966C76.8047 65.9667 76.9346 65.6503 77.1657 65.4171C77.3969 65.1838 77.7104 65.0527 78.0374 65.0527H80.5014C80.8283 65.0527 81.1418 65.1838 81.373 65.4171C81.6042 65.6503 81.7341 65.9667 81.7341 66.2966C81.7341 66.6265 81.6042 66.9429 81.373 67.1761C81.1418 67.4094 80.8283 67.5405 80.5014 67.5405Z" fill="#5C81ED"/>
<path d="M63.2479 57.5932H48.4597C48.1328 57.5932 47.8193 57.4622 47.5881 57.2289C47.3569 56.9956 47.2271 56.6792 47.2271 56.3493C47.2271 56.0194 47.3569 55.7031 47.5881 55.4698C47.8193 55.2365 48.1328 55.1055 48.4597 55.1055H63.2479C63.5748 55.1055 63.8883 55.2365 64.1195 55.4698C64.3507 55.7031 64.4806 56.0194 64.4806 56.3493C64.4806 56.6792 64.3507 56.9956 64.1195 57.2289C63.8883 57.4622 63.5748 57.5932 63.2479 57.5932Z" fill="#5C81ED"/>
<path d="M58.3199 62.5659H48.4597C48.1328 62.5659 47.8193 62.4348 47.5881 62.2015C47.3569 61.9683 47.2271 61.6519 47.2271 61.322C47.2271 60.9921 47.3569 60.6757 47.5881 60.4424C47.8193 60.2092 48.1328 60.0781 48.4597 60.0781H58.3199C58.6468 60.0781 58.9604 60.2092 59.1915 60.4424C59.4227 60.6757 59.5526 60.9921 59.5526 61.322C59.5526 61.6519 59.4227 61.9683 59.1915 62.2015C58.9604 62.4348 58.6468 62.5659 58.3199 62.5659Z" fill="#5C81ED"/>
<path d="M63.2479 67.5405H48.4597C48.1328 67.5405 47.8193 67.4094 47.5881 67.1761C47.3569 66.9429 47.2271 66.6265 47.2271 66.2966C47.2271 65.9667 47.3569 65.6503 47.5881 65.4171C47.8193 65.1838 48.1328 65.0527 48.4597 65.0527H63.2479C63.5748 65.0527 63.8883 65.1838 64.1195 65.4171C64.3507 65.6503 64.4806 65.9667 64.4806 66.2966C64.4806 66.6265 64.3507 66.9429 64.1195 67.1761C63.8883 67.4094 63.5748 67.5405 63.2479 67.5405Z" fill="#5C81ED"/>
<path d="M45.9956 80.35V76.462C46.7522 76.7437 47.2283 77.2466 47.2283 77.7214C47.2227 77.8881 47.2504 78.0543 47.3098 78.2101C47.3693 78.3658 47.4591 78.5079 47.5741 78.6278C47.689 78.7478 47.8267 78.8432 47.979 78.9083C48.1312 78.9735 48.2949 79.0071 48.4602 79.0071C48.6256 79.0071 48.7893 78.9735 48.9415 78.9083C49.0938 78.8432 49.2315 78.7478 49.3464 78.6278C49.4614 78.5079 49.5512 78.3658 49.6107 78.2101C49.6701 78.0543 49.6978 77.8881 49.6922 77.7214C49.6922 75.845 48.1413 74.325 45.9956 73.8926V73.7517C45.9956 73.5883 45.9637 73.4266 45.9017 73.2757C45.8398 73.1248 45.749 72.9876 45.6345 72.8721C45.52 72.7566 45.3842 72.665 45.2346 72.6025C45.085 72.54 44.9247 72.5078 44.7629 72.5078C44.601 72.5078 44.4407 72.54 44.2911 72.6025C44.1416 72.665 44.0057 72.7566 43.8912 72.8721C43.7768 72.9876 43.686 73.1248 43.624 73.2757C43.5621 73.4266 43.5302 73.5883 43.5302 73.7517V73.8926C41.3859 74.325 39.8335 75.845 39.8335 77.7214C39.8335 80.3457 41.8773 81.4515 43.5302 82.0883V85.9748C42.7735 85.6931 42.2989 85.1888 42.2989 84.7141C42.2989 84.3842 42.169 84.0678 41.9378 83.8345C41.7067 83.6012 41.3931 83.4702 41.0662 83.4702C40.7393 83.4702 40.4257 83.6012 40.1945 83.8345C39.9634 84.0678 39.8335 84.3842 39.8335 84.7141C39.8335 86.5904 41.3845 88.1118 43.5302 88.5429V88.6837C43.5302 88.8471 43.5621 89.0088 43.624 89.1597C43.686 89.3107 43.7768 89.4478 43.8912 89.5633C44.0057 89.6788 44.1416 89.7704 44.2911 89.8329C44.4407 89.8954 44.601 89.9276 44.7629 89.9276C44.9247 89.9276 45.085 89.8954 45.2346 89.8329C45.3842 89.7704 45.52 89.6788 45.6345 89.5633C45.749 89.4478 45.8398 89.3107 45.9017 89.1597C45.9637 89.0088 45.9956 88.8471 45.9956 88.6837V88.5429C48.1413 88.1118 49.6922 86.5904 49.6922 84.7141C49.6922 82.0925 47.6485 80.9881 45.9956 80.35ZM42.2989 77.7214C42.2989 77.2466 42.7735 76.7353 43.5302 76.462V79.3639C42.5236 78.837 42.2989 78.3679 42.2989 77.7214ZM45.9956 85.9748V83.0729C47.0021 83.5984 47.2283 84.0661 47.2283 84.7141C47.2283 85.1916 46.7522 85.6931 45.9956 85.9748Z" fill="#1B3F92" stroke="#1B3F92" stroke-miterlimit="20"/>
<path d="M62.0164 77.4897H53.3848C53.0579 77.4897 52.7443 77.3586 52.5131 77.1254C52.282 76.8921 52.1521 76.5757 52.1521 76.2458C52.1521 75.9159 52.282 75.5995 52.5131 75.3663C52.7443 75.133 53.0579 75.002 53.3848 75.002H62.0108C62.3378 75.002 62.6513 75.133 62.8825 75.3663C63.1137 75.5995 63.2435 75.9159 63.2435 76.2458C63.2435 76.5757 63.1137 76.8921 62.8825 77.1254C62.6513 77.3586 62.3378 77.4897 62.0108 77.4897H62.0164Z" fill="#1B3F92" stroke="#1B3F92" stroke-miterlimit="20"/>
<path d="M58.3197 87.437H53.3848C53.0579 87.437 52.7443 87.3059 52.5131 87.0726C52.282 86.8394 52.1521 86.523 52.1521 86.1931C52.1521 85.8632 52.282 85.5468 52.5131 85.3135C52.7443 85.0803 53.0579 84.9492 53.3848 84.9492H58.3142C58.6411 84.9492 58.9546 85.0803 59.1858 85.3135C59.417 85.5468 59.5469 85.8632 59.5469 86.1931C59.5469 86.523 59.417 86.8394 59.1858 87.0726C58.9546 87.3059 58.6411 87.437 58.3142 87.437H58.3197Z" fill="#5C81ED"/>
<path d="M65.7132 87.437H63.2478C62.9209 87.437 62.6074 87.3059 62.3762 87.0726C62.145 86.8394 62.0151 86.523 62.0151 86.1931C62.0151 85.8632 62.145 85.5468 62.3762 85.3135C62.6074 85.0803 62.9209 84.9492 63.2478 84.9492H65.7132C66.0401 84.9492 66.3537 85.0803 66.5849 85.3135C66.816 85.5468 66.9459 85.8632 66.9459 86.1931C66.9459 86.523 66.816 86.8394 66.5849 87.0726C66.3537 87.3059 66.0401 87.437 65.7132 87.437Z" fill="#5C81ED"/>
<path d="M69.4098 82.4623H53.3848C53.0579 82.4623 52.7443 82.3313 52.5131 82.098C52.282 81.8648 52.1521 81.5484 52.1521 81.2185C52.1521 80.8886 52.282 80.5722 52.5131 80.3389C52.7443 80.1057 53.0579 79.9746 53.3848 79.9746H69.4098C69.7367 79.9746 70.0503 80.1057 70.2814 80.3389C70.5126 80.5722 70.6425 80.8886 70.6425 81.2185C70.6425 81.5484 70.5126 81.8648 70.2814 82.098C70.0503 82.3313 69.7367 82.4623 69.4098 82.4623Z" fill="#1B3F92" stroke="#1B3F92" stroke-miterlimit="20"/>
<path d="M74.3391 96.9013V86.1953C74.3395 85.5358 74.5994 84.9034 75.0617 84.4371C75.524 83.9709 76.1509 83.709 76.8045 83.709L87.371 83.8372L74.3391 96.9013Z" fill="#A5A6AD" stroke="#1B3F92" stroke-width="5" stroke-miterlimit="20"/>
<path d="M63.2478 62.5659C63.9286 62.5659 64.4805 62.009 64.4805 61.322C64.4805 60.635 63.9286 60.0781 63.2478 60.0781C62.567 60.0781 62.0151 60.635 62.0151 61.322C62.0151 62.009 62.567 62.5659 63.2478 62.5659Z" fill="#A5A6AD"/>
<path d="M73.1065 62.5659C73.7873 62.5659 74.3392 62.009 74.3392 61.322C74.3392 60.635 73.7873 60.0781 73.1065 60.0781C72.4257 60.0781 71.8738 60.635 71.8738 61.322C71.8738 62.009 72.4257 62.5659 73.1065 62.5659Z" fill="#A5A6AD"/>
<path d="M68.177 62.5659C68.8578 62.5659 69.4097 62.009 69.4097 61.322C69.4097 60.635 68.8578 60.0781 68.177 60.0781C67.4962 60.0781 66.9443 60.635 66.9443 61.322C66.9443 62.009 67.4962 62.5659 68.177 62.5659Z" fill="#A5A6AD"/>
<path d="M73.1065 57.5932C73.7873 57.5932 74.3392 57.0363 74.3392 56.3493C74.3392 55.6624 73.7873 55.1055 73.1065 55.1055C72.4257 55.1055 71.8738 55.6624 71.8738 56.3493C71.8738 57.0363 72.4257 57.5932 73.1065 57.5932Z" fill="#A5A6AD"/>
<path d="M68.177 57.5932C68.8578 57.5932 69.4097 57.0363 69.4097 56.3493C69.4097 55.6624 68.8578 55.1055 68.177 55.1055C67.4962 55.1055 66.9443 55.6624 66.9443 56.3493C66.9443 57.0363 67.4962 57.5932 68.177 57.5932Z" fill="#A5A6AD"/>
<path d="M73.1065 67.5405C73.7873 67.5405 74.3392 66.9836 74.3392 66.2966C74.3392 65.6096 73.7873 65.0527 73.1065 65.0527C72.4257 65.0527 71.8738 65.6096 71.8738 66.2966C71.8738 66.9836 72.4257 67.5405 73.1065 67.5405Z" fill="#A5A6AD"/>
<path d="M68.177 67.5405C68.8578 67.5405 69.4097 66.9836 69.4097 66.2966C69.4097 65.6096 68.8578 65.0527 68.177 65.0527C67.4962 65.0527 66.9443 65.6096 66.9443 66.2966C66.9443 66.9836 67.4962 67.5405 68.177 67.5405Z" fill="#A5A6AD"/>
</g>
<defs>
<clipPath id="clip0_951_5699">
<rect width="54.9211" height="72.8402" fill="white" transform="translate(33.3225 24.9082)"/>
</clipPath>
</defs>
</svg>
