<svg width="135" height="44" viewBox="0 0 135 44" fill="none" xmlns="http://www.w3.org/2000/svg">
<g clip-path="url(#clip0_1020_1749)">
<path d="M58.2948 43.0249H47.4644L54.2385 1.10938H65.0684L58.2948 43.0249Z" fill="#00579F"/>
<path d="M97.5564 2.13412C95.4201 1.28602 92.0319 0.349609 87.8423 0.349609C77.1468 0.349609 69.6152 6.05696 69.569 14.2168C69.4801 20.237 74.9614 23.5808 79.061 25.5882C83.2512 27.6394 84.6755 28.9782 84.6755 30.8066C84.6329 33.6146 81.2896 34.909 78.1714 34.909C73.8474 34.909 71.5305 34.2417 68.0096 32.6794L66.5834 32.0097L65.0679 41.4188C67.608 42.5769 72.288 43.6046 77.1468 43.6496C88.5109 43.6496 95.9093 38.0306 95.997 29.335C96.0402 24.5635 93.1459 20.9073 86.9059 17.9197C83.1179 16.0019 80.7981 14.7087 80.7981 12.7464C80.8425 10.9624 82.7602 9.13526 87.0362 9.13526C90.5572 9.04576 93.1441 9.89268 95.1039 10.7402L96.0835 11.1853L97.5564 2.13412Z" fill="#00579F"/>
<path d="M111.951 28.1757C112.843 25.7677 116.275 16.4481 116.275 16.4481C116.23 16.5376 117.165 13.9957 117.7 12.4352L118.457 16.0469C118.457 16.0469 120.508 26.0801 120.953 28.1757C119.261 28.1757 114.09 28.1757 111.951 28.1757ZM125.32 1.10938H116.943C114.359 1.10938 112.397 1.8668 111.282 4.58713L95.1946 43.0243H106.559C106.559 43.0243 108.43 37.851 108.832 36.7368C110.078 36.7368 121.133 36.7368 122.737 36.7368C123.048 38.2083 124.03 43.0243 124.03 43.0243H134.057L125.32 1.10938Z" fill="#00579F"/>
<path d="M38.4183 1.10938L27.8116 29.6918L26.6526 23.8949C24.6916 17.2061 18.5417 9.93888 11.6787 6.32541L21.394 42.9805H32.8469L49.8706 1.10938H38.4183Z" fill="#00579F"/>
<path d="M17.9626 1.10938H0.537398L0.359131 1.95629C13.9519 5.43463 22.9541 13.819 26.6527 23.8967L22.8647 4.63276C22.241 1.9557 20.3245 1.19768 17.9626 1.10938Z" fill="#FAA61A"/>
</g>
<defs>
<clipPath id="clip0_1020_1749">
<rect width="133.698" height="43.3" fill="white" transform="translate(0.359131 0.349609)"/>
</clipPath>
</defs>
</svg>
