<svg width="50" height="36" viewBox="0 0 50 36" fill="none" xmlns="http://www.w3.org/2000/svg">
<path d="M25.1594 0.246094H25.4375C28.0063 0.255469 41.0219 0.349219 44.5312 1.29297C45.5922 1.581 46.5589 2.14241 47.3349 2.92112C48.1108 3.69982 48.6688 4.66854 48.9531 5.73047C49.2687 6.91797 49.4906 8.48984 49.6406 10.1117L49.6719 10.4367L49.7406 11.2492L49.7656 11.5742C49.9688 14.4305 49.9937 17.1055 49.9969 17.6898V17.9242C49.9937 18.5305 49.9656 21.3867 49.7406 24.3617L49.7156 24.6898L49.6875 25.0148C49.5312 26.8023 49.3 28.5773 48.9531 29.8836C48.6697 30.9459 48.112 31.9151 47.3359 32.694C46.5598 33.4728 45.5926 34.0339 44.5312 34.3211C40.9062 35.2961 27.1281 35.3648 25.2188 35.368H24.775C23.8094 35.368 19.8156 35.3492 15.6281 35.2055L15.0969 35.1867L14.825 35.1742L14.2906 35.1523L13.7562 35.1305C10.2875 34.9773 6.98438 34.7305 5.4625 34.318C4.40153 34.0311 3.43458 33.4704 2.65851 32.6922C1.88245 31.9139 1.32452 30.9454 1.04062 29.8836C0.69375 28.5805 0.4625 26.8023 0.30625 25.0148L0.28125 24.6867L0.25625 24.3617C0.102024 22.2442 0.0165621 20.1223 0 17.9992L0 17.6148C0.00625 16.943 0.03125 14.6211 0.2 12.0586L0.221875 11.7367L0.23125 11.5742L0.25625 11.2492L0.325 10.4367L0.35625 10.1117C0.50625 8.48984 0.728125 6.91484 1.04375 5.73047C1.32717 4.66812 1.88488 3.69894 2.66098 2.9201C3.43708 2.14126 4.40428 1.58013 5.46562 1.29297C6.9875 0.886719 10.2906 0.636719 13.7594 0.480469L14.2906 0.458594L14.8281 0.439844L15.0969 0.430469L15.6312 0.408594C18.6053 0.31289 21.5806 0.259759 24.5562 0.249219H25.1594V0.246094ZM20 10.2773V25.3336L32.9906 17.8086L20 10.2773Z" fill="url(#paint0_linear_952_8269)"/>
<defs>
<linearGradient id="paint0_linear_952_8269" x1="49" y1="1.99921" x2="-1.39374e-06" y2="33.4992" gradientUnits="userSpaceOnUse">
<stop stop-color="#F76700"/>
<stop offset="1" stop-color="#FFC014"/>
</linearGradient>
</defs>
</svg>
